<svg width="77" height="17" viewBox="0 0 77 17" fill="none" xmlns="http://www.w3.org/2000/svg">
<g clip-path="url(#clip0_4405_10330)">
<path d="M26.0256 8.5392L31.6457 14.2943L31.5311 14.3988L31.4827 14.4446C29.909 15.8484 27.847 16.5779 25.7407 16.4761C23.6343 16.3743 21.6522 15.4494 20.2212 13.9004C18.7902 12.3515 18.0248 10.3026 18.0898 8.19478C18.1547 6.08701 19.0449 4.08907 20.5686 2.63122C22.1351 1.1976 24.2035 0.438905 26.3255 0.519494C28.4475 0.600082 30.4523 1.51346 31.9056 3.06177L26.0256 8.5392Z" fill="#01B94F"/>
<path d="M20.5717 2.62856C22.1381 1.1962 24.2056 0.438504 26.3266 0.519566C28.4475 0.600629 30.4512 1.51392 31.9036 3.06166C31.9036 3.06166 27.2287 7.43852 27.1344 7.51495C27.1344 7.51495 26.0874 8.50089 26.095 8.51617C26.1026 8.53146 31.6336 14.2713 31.6336 14.2713L31.5215 14.3783L31.4731 14.4242C28.1713 17.3285 23.1117 17.196 20.1233 13.9656C18.6882 12.3985 17.9301 10.328 18.0141 8.20479C18.0981 6.08153 19.0173 4.07739 20.5717 2.62856Z" fill="url(#paint0_radial_4405_10330)"/>
<path d="M20.5725 2.6222C22.1401 1.19173 24.2077 0.435755 26.3283 0.517756C28.4489 0.599757 30.452 1.51314 31.9044 3.0604C31.9044 3.0604 27.3543 7.34044 27.1683 7.49075C27.1683 7.49075 26.1493 8.46395 26.1671 8.49452C26.2053 8.58624 31.6242 14.2446 31.6242 14.2446L31.5121 14.3516L31.4637 14.3974C28.1696 17.2966 23.1074 17.154 20.1292 13.9337C18.6962 12.371 17.9388 10.3054 18.0218 8.1867C18.1048 6.06805 19.0216 4.06801 20.5725 2.6222Z" fill="url(#paint1_radial_4405_10330)"/>
<path d="M20.5807 2.62048C22.1484 1.19188 24.2151 0.437318 26.3345 0.519785C28.4538 0.602252 30.4557 1.51513 31.9076 3.06122C31.9076 3.06122 27.4874 7.2419 27.2021 7.46865C27.2021 7.46865 26.2187 8.42656 26.2365 8.47242C26.2951 8.60999 31.6171 14.2225 31.6171 14.2225L31.5025 14.3295L31.4541 14.3728C28.1702 17.2643 23.1105 17.1166 20.1374 13.904C18.7068 12.3456 17.9505 10.2847 18.0335 8.17087C18.1166 6.05702 19.0322 4.06179 20.5807 2.62048Z" fill="url(#paint2_radial_4405_10330)"/>
<path d="M20.5813 2.61805C22.1491 1.19056 24.2155 0.436921 26.3342 0.519859C28.453 0.602797 30.4541 1.51565 31.9056 3.06134C31.9056 3.06134 27.6128 7.13758 27.2332 7.44584C27.2332 7.44584 26.2804 8.39102 26.3059 8.45216C26.3823 8.63559 31.605 14.1997 31.605 14.1997L31.4929 14.3041C31.4929 14.3041 31.4445 14.3474 31.4445 14.35C28.1682 17.2314 23.1086 17.0734 20.1431 13.8736C18.7147 12.3199 17.9591 10.2643 18.0412 8.15544C18.1233 6.04661 19.0365 4.05592 20.5813 2.61805Z" fill="url(#paint3_radial_4405_10330)"/>
<path d="M20.5873 2.6132C22.1556 1.18791 24.2212 0.436127 26.3387 0.520007C28.4562 0.603888 30.4559 1.51671 31.9065 3.06159C31.9065 3.06159 27.7437 7.0461 27.2673 7.42316C27.2673 7.42316 26.345 8.35305 26.3756 8.42948C26.4724 8.65876 31.5983 14.1744 31.5957 14.177L31.4836 14.2814L31.4352 14.3273C28.1666 17.1959 23.1095 17.0354 20.1517 13.8432C18.7258 12.2936 17.9712 10.2426 18.0529 8.13834C18.1345 6.0341 19.0457 4.04771 20.5873 2.6132Z" fill="url(#paint4_radial_4405_10330)"/>
<path d="M20.5893 2.61078C22.1577 1.18658 24.223 0.43573 26.3399 0.520082C28.4568 0.604434 30.4558 1.51723 31.9059 3.06171C31.9059 3.06171 27.8704 6.94942 27.2998 7.39271C27.2998 7.39271 26.4081 8.30732 26.4463 8.39903C26.561 8.67418 31.5875 14.1414 31.5875 14.1414L31.4754 14.2714L31.427 14.3147C28.1634 17.1629 23.1089 16.9973 20.1562 13.8128C18.7329 12.2676 17.9795 10.2216 18.0606 8.12239C18.1418 6.02316 19.051 4.04149 20.5893 2.61078Z" fill="url(#paint5_radial_4405_10330)"/>
<path d="M20.5962 2.60836C22.1648 1.18526 24.2297 0.435335 26.346 0.520158C28.4623 0.60498 30.4605 1.51776 31.9103 3.06184C31.9103 3.06184 28.0022 6.85273 27.3372 7.39283C27.3372 7.39283 26.4736 8.29215 26.5169 8.39915C26.6621 8.70742 31.5816 14.1288 31.5791 14.1288L31.467 14.2333L31.4186 14.2791C28.1652 17.1299 23.1107 16.9567 20.1656 13.7823C18.7443 12.2418 17.9916 10.2008 18.0723 8.10639C18.153 6.01196 19.0606 4.03491 20.5962 2.60836Z" fill="url(#paint6_radial_4405_10330)"/>
<path d="M20.5966 2.60282C22.1658 1.18114 24.2305 0.432583 26.3462 0.518354C28.4619 0.604124 30.4592 1.51736 31.9082 3.06139C31.9082 3.06139 28.1275 6.75293 27.3683 7.35672C27.3683 7.35672 26.5352 8.2433 26.5861 8.37578C26.739 8.74264 31.5693 14.1156 31.5668 14.1156C31.5642 14.1156 31.4623 14.215 31.4547 14.2201L31.4063 14.2634C28.1606 17.0964 23.1061 16.918 20.1686 13.7615C18.746 12.2248 17.992 10.1861 18.0722 8.09354C18.1525 6.001 19.0605 4.026 20.5966 2.60282Z" fill="url(#paint7_radial_4405_10330)"/>
<path d="M20.6024 2.59915C22.1716 1.17935 24.2354 0.432198 26.3499 0.518434C28.4643 0.60467 30.4604 1.5174 31.9088 3.06028C31.9088 3.06028 28.2581 6.655 27.402 7.33267C27.402 7.33267 26.5995 8.20397 26.6581 8.35173C26.8288 8.76445 31.5598 14.089 31.5598 14.0916L31.4477 14.196L31.3993 14.2393C28.1612 17.0723 23.1067 16.8863 20.1897 13.7298C18.7687 12.1989 18.014 10.1663 18.0914 8.07902C18.1687 5.99173 19.072 4.02063 20.6024 2.59915Z" fill="url(#paint8_radial_4405_10330)"/>
<path d="M20.6035 2.59674C22.1729 1.17803 24.2363 0.431804 26.3502 0.518511C28.464 0.605218 30.4594 1.51793 31.9074 3.06041C31.9074 3.06041 28.384 6.55578 27.4235 7.30988C27.4235 7.30988 26.6592 8.16844 26.7153 8.32894C26.914 8.77987 31.5507 14.056 31.5481 14.0586L31.4361 14.1605C31.4361 14.1605 31.3927 14.2013 31.3876 14.2064C28.1572 17.0291 23.1053 16.8355 20.178 13.6968C19.4771 12.9401 18.932 12.0526 18.5741 11.0852C18.2161 10.1178 18.0522 9.08941 18.0917 8.05866C18.1312 7.02791 18.3734 6.01504 18.8043 5.07787C19.2353 4.14071 19.8467 3.29762 20.6035 2.59674Z" fill="url(#paint9_radial_4405_10330)"/>
<path d="M20.6095 2.59191C22.1793 1.17539 24.2421 0.431019 26.3547 0.518667C28.4673 0.606316 30.4613 1.51899 31.9083 3.06068C31.9083 3.06068 28.5149 6.45923 27.4678 7.28722C27.4678 7.28722 26.7264 8.13304 26.7978 8.30628C27.0067 8.81581 31.5415 14.041 31.5415 14.0436L31.4294 14.1455L31.381 14.1888C28.1557 16.9963 23.1062 16.7976 20.1892 13.6614C18.7773 12.1376 18.0284 10.1155 18.1072 8.03962C18.186 5.96377 19.0861 4.00422 20.6095 2.59191Z" fill="url(#paint10_radial_4405_10330)"/>
<path d="M20.6126 2.58972C22.1831 1.17415 24.2458 0.430628 26.3583 0.518745C28.4707 0.606862 30.4644 1.51959 31.9115 3.06104C31.9115 3.06104 28.6428 6.37298 27.5015 7.2672C27.5015 7.2672 26.7932 8.09519 26.8671 8.28626C27.0964 8.82891 31.5344 14.0159 31.5319 14.0159L31.4198 14.1204L31.3714 14.1637C28.1562 16.9661 23.1068 16.7623 20.1974 13.6363C19.4986 12.8841 18.9551 12.0014 18.5977 11.0389C18.2404 10.0764 18.0763 9.05291 18.1149 8.02693C18.1535 7.00095 18.3939 5.99265 18.8225 5.05968C19.2511 4.12671 19.8594 3.28739 20.6126 2.58972Z" fill="url(#paint11_radial_4405_10330)"/>
<path d="M20.6186 2.58607C22.1891 1.17236 24.251 0.430246 26.3622 0.518827C28.4733 0.607409 30.4658 1.51964 31.9123 3.05993C31.9123 3.05993 28.7736 6.26232 27.5355 7.24317C27.5355 7.24317 26.8578 8.05841 26.9393 8.26223C27.1941 8.85837 31.5251 13.9919 31.5251 13.9944L31.413 14.0989C31.413 14.0989 31.3697 14.1371 31.3671 14.1422C28.1571 16.9446 23.1102 16.723 20.2059 13.6072C17.3016 10.4914 17.4468 5.46236 20.6186 2.58607Z" fill="url(#paint12_radial_4405_10330)"/>
<path d="M20.6183 2.58249C22.1893 1.1702 24.251 0.429456 26.3615 0.518984C28.4721 0.608513 30.4637 1.52119 31.9094 3.06145C31.9094 3.06145 28.8981 6.16193 27.5784 7.21666C27.5784 7.21666 26.9288 8.01662 27.018 8.23572C27.2855 8.87772 31.5222 13.9628 31.5222 13.9654L31.4101 14.0673L31.3617 14.1106C28.1491 16.8952 23.092 16.6786 20.2081 13.5705C17.3242 10.4624 17.4541 5.45114 20.6183 2.58249Z" fill="url(#paint13_radial_4405_10330)"/>
<path d="M20.6262 2.57885C22.1972 1.16842 24.258 0.429075 26.3674 0.519068C28.4767 0.609061 30.467 1.52124 31.9122 3.06035C31.9122 3.06035 29.0309 6.06657 27.6042 7.19772C27.6042 7.19772 26.9851 7.98495 27.0794 8.21678C27.3672 8.9021 31.5021 13.9388 31.5021 13.9413L31.39 14.0432L31.3416 14.0866C28.1519 16.8609 23.0948 16.6367 20.216 13.5388C17.3372 10.4409 17.4671 5.4373 20.6262 2.57885Z" fill="url(#paint14_radial_4405_10330)"/>
<path d="M20.6265 2.57644C22.1977 1.16711 24.2581 0.428686 26.3669 0.519149C28.4756 0.609613 30.4652 1.52178 31.91 3.06049C31.91 3.06049 29.156 5.9699 27.635 7.17494C27.635 7.17494 27.0465 7.93923 27.1484 8.19399C27.4542 8.92007 31.4998 13.916 31.4998 13.9185L31.3903 14.0205L31.3419 14.0638C28.1471 16.8178 23.0926 16.5987 20.2214 13.5058C17.3502 10.413 17.4725 5.42725 20.6265 2.57644Z" fill="url(#paint15_radial_4405_10330)"/>
<path d="M20.6341 2.57085C22.2064 1.16417 24.2664 0.427921 26.3741 0.519315C28.4819 0.610708 30.4704 1.5225 31.9151 3.06C31.9151 3.06 29.2884 5.86241 27.6809 7.15152C27.6809 7.15152 27.1229 7.91581 27.2299 8.17058C27.5459 8.95016 31.5023 13.89 31.4871 13.8926L31.375 13.9945C31.36 14.0102 31.3439 14.0247 31.3266 14.0378C28.1496 16.7944 23.0951 16.5625 20.2316 13.4773C17.368 10.3921 17.4903 5.41403 20.6341 2.57085Z" fill="url(#paint16_radial_4405_10330)"/>
<path d="M20.6356 2.57016C22.2098 1.16558 24.271 0.432556 26.3786 0.527771C28.4861 0.622985 30.4728 1.53889 31.914 3.07968C31.914 3.07968 29.4148 5.77509 27.7027 7.13808C27.7027 7.13808 27.1754 7.88199 27.29 8.15714C27.6339 8.98512 31.4783 13.8791 31.4758 13.8817C31.4732 13.8842 31.3815 13.9709 31.3637 13.9836L31.3178 14.0269C28.146 16.7631 23.094 16.5185 20.2356 13.4486C17.3771 10.3787 17.4892 5.40314 20.6356 2.57016Z" fill="url(#paint17_radial_4405_10330)"/>
<path d="M20.6402 2.56673C22.2139 1.16309 24.2741 0.430611 26.3806 0.525822C28.4872 0.621033 30.4729 1.53638 31.9135 3.07626C31.9135 3.07626 29.5442 5.6825 27.7354 7.11683C27.7354 7.11683 27.2386 7.84545 27.3584 8.13588C27.7227 9.00973 31.4703 13.8553 31.4652 13.8579L31.3556 13.9598L31.3072 14.0031C28.143 16.7291 23.0936 16.4794 20.2428 13.4172C17.392 10.3549 17.5015 5.38952 20.6402 2.56673Z" fill="url(#paint18_radial_4405_10330)"/>
<path d="M20.6419 2.55082C22.2157 1.14856 24.2753 0.416961 26.381 0.512157C28.4867 0.607353 30.4719 1.5218 31.9127 3.06035C31.9127 3.06035 29.6708 5.56978 27.7702 7.07798C27.7702 7.07798 27.3015 7.79133 27.4289 8.09704C27.811 9.01674 31.4592 13.8165 31.4567 13.8191L31.3446 13.921L31.2962 13.9617C28.1422 16.6953 23.0928 16.438 20.2471 13.3885C17.4013 10.339 17.5109 5.37616 20.6419 2.55082Z" fill="url(#paint19_radial_4405_10330)"/>
<path d="M20.6484 2.5513C22.2217 1.14998 24.2802 0.418923 26.3849 0.514115C28.4896 0.609307 30.4738 1.52321 31.9141 3.06083C30.6475 4.49697 29.2738 5.83493 27.8047 7.06318C27.8047 7.06318 27.3666 7.76379 27.5016 8.08224C27.9016 9.0478 31.4504 13.7966 31.4479 13.8017L31.3383 13.9011L31.2899 13.9444C28.141 16.6627 23.0942 16.4003 20.2561 13.3584C17.418 10.3165 17.5199 5.35371 20.6484 2.5513Z" fill="url(#paint20_radial_4405_10330)"/>
<path d="M20.6501 2.55225C22.2237 1.15154 24.2821 0.420887 26.3866 0.51607C28.4911 0.611254 30.4752 1.52474 31.9158 3.06178C30.667 4.49399 29.3037 5.8223 27.8396 7.03356C27.8396 7.03356 27.4345 7.71887 27.5848 8.05261C28.0052 9.07167 31.4573 13.767 31.4522 13.7695L31.3426 13.8714L31.2942 13.9147C28.1402 16.628 23.0933 16.3605 20.2604 13.3288C17.4274 10.2971 17.5293 5.35466 20.6501 2.55225Z" fill="url(#paint21_radial_4405_10330)"/>
<path d="M20.6566 2.55073C22.2302 1.15217 24.2873 0.422872 26.3904 0.518034C28.4935 0.613195 30.4764 1.5253 31.9172 3.06026C30.688 4.4935 29.3341 5.81496 27.8716 7.00911C27.8716 7.00911 27.497 7.68169 27.6423 8.02817C28.0805 9.09563 31.4332 13.7604 31.4306 13.7604C31.4281 13.7604 31.3414 13.8444 31.3185 13.8623L31.2727 13.903C28.1391 16.5934 23.0947 16.308 20.2694 13.2967C17.444 10.2854 17.5383 5.35314 20.6566 2.55073Z" fill="url(#paint22_radial_4405_10330)"/>
<path d="M20.6599 2.55145C22.2333 1.15366 24.2899 0.424835 26.3924 0.51999C28.4949 0.615146 30.4773 1.52677 31.918 3.06097C30.7086 4.49682 29.365 5.81398 27.9054 6.99454C27.9054 6.99454 27.5615 7.65183 27.7118 8.0136C28.1729 9.11673 31.4263 13.7254 31.4212 13.728L31.3116 13.8273L31.2632 13.8706C28.1372 16.5635 23.0955 16.2807 20.2778 13.2668C17.4601 10.253 17.5492 5.32838 20.6599 2.55145Z" fill="url(#paint23_radial_4405_10330)"/>
<path d="M20.6601 2.55217C22.2334 1.15515 24.2895 0.426798 26.3913 0.521947C28.4931 0.617097 30.475 1.52824 31.9156 3.06169C30.7269 4.50006 29.3925 5.81145 27.9336 6.97488C27.9336 6.97488 27.6203 7.61688 27.7782 7.99394C28.2572 9.14292 31.4112 13.7007 31.4086 13.7058L31.2965 13.8051L31.2481 13.8484C28.1349 16.5285 23.0931 16.2407 20.2907 13.237C17.4883 10.2333 17.5571 5.31636 20.6601 2.55217Z" fill="url(#paint24_radial_4405_10330)"/>
<path d="M20.6658 2.55165C22.2388 1.15617 24.2937 0.428771 26.3944 0.523908C28.495 0.619044 30.4758 1.52922 31.9162 3.06118C30.7498 4.50004 29.4271 5.8048 27.9724 6.95143C27.9724 6.95143 27.6871 7.5807 27.8527 7.97049C28.3622 9.16534 31.4194 13.6772 31.4016 13.6823L31.292 13.7817L31.2436 13.8224C28.1329 16.4949 23.0937 16.1994 20.2913 13.2059C17.4889 10.2124 17.5653 5.30311 20.6658 2.55165Z" fill="url(#paint25_radial_4405_10330)"/>
<path d="M20.6683 2.55138C22.2414 1.15727 24.2957 0.430746 26.3955 0.525867C28.4953 0.620989 30.4755 1.53028 31.9162 3.0609C30.7732 4.50288 29.4601 5.80141 28.0055 6.92823C28.0055 6.92823 27.7507 7.54221 27.9214 7.94729C28.431 9.18799 31.3964 13.6515 31.3913 13.654C31.3862 13.6566 31.3073 13.733 31.2818 13.7534L31.2334 13.7967C28.1329 16.4615 23.0937 16.1609 20.2912 13.1751C17.4888 10.1892 17.5754 5.29009 20.6683 2.55138Z" fill="url(#paint26_radial_4405_10330)"/>
<path d="M20.674 2.53539C22.2489 1.14398 24.3038 0.420592 26.403 0.518563C28.5022 0.616533 30.4808 1.52816 31.9193 3.0602C31.9193 3.0602 30.7015 4.7926 28.0392 6.9046C28.0392 6.9046 27.815 7.50584 27.9934 7.92366C28.5284 9.19748 31.3868 13.6278 31.3843 13.6304L31.2722 13.7297L31.2263 13.773C28.1309 16.4277 23.0942 16.1194 20.2918 13.1438C17.4894 10.1681 17.5837 5.27665 20.674 2.53539Z" fill="url(#paint27_radial_4405_10330)"/>
<path d="M20.6757 2.53085C22.2514 1.14147 24.306 0.419834 26.4044 0.518741C28.5029 0.617648 30.4805 1.52933 31.9185 3.06077C31.9185 3.06077 30.8306 4.68616 28.0716 6.88223C27.9688 7.21414 27.9688 7.56938 28.0716 7.90129C28.6269 9.23371 31.3835 13.6004 31.3835 13.6055L31.2739 13.7048L31.2255 13.7456C28.1276 16.3951 23.0935 16.0818 20.3089 13.1163C17.5243 10.1509 17.5931 5.26703 20.6757 2.53085Z" fill="url(#paint28_radial_4405_10330)"/>
<path d="M20.6797 2.52924C22.2549 1.14049 24.3088 0.419442 26.4064 0.51883C28.504 0.618218 30.4806 1.53023 31.9174 3.06169C31.9174 3.06169 30.9569 4.59028 28.0959 6.85004C28.0059 7.18522 28.0157 7.53938 28.124 7.8691C28.6972 9.26521 31.3671 13.586 31.362 13.5911L31.2525 13.6905L31.2066 13.7312C28.1265 16.363 23.0924 16.0547 20.3129 13.0867C17.5334 10.1187 17.6022 5.25522 20.6797 2.52924Z" fill="url(#paint29_radial_4405_10330)"/>
<path d="M20.6852 2.52685C22.2605 1.13919 24.3141 0.419064 26.4111 0.518921C28.5081 0.618778 30.4839 1.53078 31.9203 3.06186C31.9203 3.06186 31.0897 4.50128 28.1396 6.84001C28.0686 7.17923 28.0906 7.53133 28.2033 7.85907C28.7969 9.2832 31.3623 13.5556 31.3572 13.5607L31.2477 13.6575L31.1993 13.7008C28.1268 16.33 23.0952 16.0013 20.3234 13.0563C17.5083 10.0704 17.6127 5.24264 20.6852 2.52685Z" fill="url(#paint30_radial_4405_10330)"/>
<path d="M20.6899 2.5211C22.2659 1.13622 24.3186 0.418321 26.4142 0.519107C28.5098 0.619893 30.4841 1.53147 31.92 3.0612C31.92 3.0612 31.2168 4.39362 28.1724 6.80624C28.1198 7.14908 28.1549 7.49964 28.2743 7.8253C28.8857 9.29529 31.3518 13.5218 31.3467 13.5244L31.2372 13.6237L31.1888 13.6645C28.1316 16.2758 23.1 15.9574 20.3282 13.0072C17.5563 10.057 17.6226 5.22925 20.6899 2.5211Z" fill="url(#paint31_radial_4405_10330)"/>
<path d="M20.6925 2.51895C22.2691 1.135 24.3218 0.417945 26.4172 0.519198C28.5126 0.620451 30.4867 1.53209 31.9225 3.0616C31.9225 3.0616 31.3467 4.29466 28.208 6.78371C28.1736 7.12948 28.2207 7.4785 28.3456 7.80277C28.9748 9.339 31.3416 13.5069 31.3365 13.5197L31.227 13.619L31.1811 13.6598C28.1239 16.261 23.0949 15.9221 20.3358 12.9974C17.5334 10.0269 17.6327 5.21691 20.6925 2.51895Z" fill="url(#paint32_radial_4405_10330)"/>
<path d="M20.6964 2.51635C22.2727 1.13364 24.3247 0.417568 26.4191 0.519292C28.5135 0.621017 30.4864 1.53258 31.9213 3.06154C31.9213 3.06154 31.4729 4.20798 28.24 6.77091C28.2255 7.11899 28.2846 7.46621 28.4132 7.78997C29.0629 9.36187 31.3328 13.4916 31.3277 13.5069L31.2182 13.6037L31.1698 13.6445C28.1202 16.2278 23.0937 15.8838 20.3397 12.9642C17.5449 10.0039 17.6392 5.20411 20.6964 2.51635Z" fill="url(#paint33_radial_4405_10330)"/>
<path d="M20.7007 2.50988C22.2778 1.12919 24.3295 0.414866 26.423 0.517525C28.5166 0.620185 30.4886 1.5318 31.923 3.06017C31.923 3.06017 31.6046 4.10725 28.2748 6.74661C28.2803 7.10072 28.352 7.45068 28.4863 7.7784C29.1563 9.38597 31.3244 13.4673 31.3193 13.4724L31.2097 13.5692L31.1639 13.61C28.122 16.1933 23.0955 15.8417 20.3491 12.9323C17.5594 9.98211 17.6511 5.19 20.7007 2.50988Z" fill="url(#paint34_radial_4405_10330)"/>
<path d="M20.7042 2.50779C22.2823 1.13253 24.3321 0.422764 26.4227 0.527768C28.5132 0.632771 30.4816 1.54436 31.9139 3.07082C31.9139 3.07082 31.7228 4.0109 28.2988 6.72414C28.3283 7.07942 28.4143 7.42772 28.5535 7.75593C29.2439 9.4119 31.3152 13.4448 31.3101 13.4499L31.2005 13.5467C31.1833 13.5589 31.1671 13.5726 31.1521 13.5875C28.1179 16.1606 23.0939 15.7988 20.3552 12.9022C17.5706 9.95965 17.6573 5.18027 20.7042 2.50779Z" fill="url(#paint35_radial_4405_10330)"/>
<path d="M20.705 2.50568C22.2831 1.13013 24.3332 0.420415 26.424 0.525904C28.5147 0.631392 30.483 1.54386 31.9146 3.07126C31.9146 3.07126 31.8535 3.91453 28.3326 6.70165C28.3827 7.05732 28.4786 7.40499 28.618 7.736C29.3313 9.43018 31.3032 13.4198 31.2981 13.4249L31.1886 13.5217C31.1733 13.5217 31.1554 13.5523 31.1401 13.5625C28.1135 16.1279 23.0921 15.7636 20.3585 12.872C17.5816 9.93971 17.6656 5.16797 20.705 2.50568Z" fill="url(#paint36_radial_4405_10330)"/>
<path d="M20.7125 2.50142C22.2918 1.12772 24.342 0.419676 26.4324 0.526096C28.5228 0.632516 30.4906 1.54511 31.9222 3.07209C31.9222 3.07209 31.9884 3.82619 28.3733 6.6821C28.4473 7.03604 28.5566 7.38169 28.6994 7.7139C29.4255 9.46158 31.3005 13.3977 31.2929 13.4028C31.2853 13.4079 31.219 13.4716 31.1833 13.4996L31.1375 13.5404C28.1185 16.1007 23.0946 15.7237 20.3686 12.8423C17.5942 9.91761 17.6783 5.15606 20.7125 2.50142Z" fill="url(#paint37_radial_4405_10330)"/>
<path d="M20.7142 2.49816C22.2938 1.1245 24.3446 0.416946 26.4352 0.524327C28.5258 0.631708 30.4933 1.54565 31.9238 3.07393C31.9238 3.07393 32.1174 3.71848 28.4081 6.65847C28.5033 7.01096 28.6225 7.35654 28.7647 7.69281C29.5112 9.47617 31.2869 13.3741 31.2818 13.3792L31.1723 13.476L31.1239 13.5167C28.1151 16.0542 23.0937 15.6822 20.3728 12.8136C17.6061 9.89398 17.685 5.14262 20.7142 2.49816Z" fill="url(#paint38_radial_4405_10330)"/>
<path d="M20.7208 2.49506C22.3007 1.12172 24.3517 0.414612 26.4423 0.522468C28.5329 0.630324 30.5002 1.54474 31.9304 3.07338C31.9304 3.07338 32.2463 3.61858 28.4452 6.62734C28.4452 6.62734 28.5853 7.05535 28.8401 7.66169C29.6044 9.50109 31.2808 13.3429 31.2757 13.348L31.1661 13.4448L31.1202 13.4831C28.114 16.0282 23.0952 15.6435 20.3819 12.7825C17.6203 9.87049 17.6967 5.12933 20.7208 2.49506Z" fill="url(#paint39_radial_4405_10330)"/>
<path d="M31.263 13.333C28.2874 16.0081 23.1437 15.6539 20.3871 12.742C17.6306 9.83003 17.7045 5.09905 20.7234 2.48008C22.3043 1.10798 24.3555 0.402145 26.4459 0.510942C28.5363 0.61974 30.5032 1.53469 31.933 3.06349C31.933 3.06349 32.384 3.51187 28.4835 6.60217C28.4759 6.61236 31.2732 13.3254 31.263 13.333Z" fill="url(#paint40_radial_4405_10330)"/>
<path d="M28.3606 6.69922C27.1402 7.70044 25.6397 8.88 23.8945 10.2022C25.191 11.6042 26.6987 12.7948 28.3631 13.7307C29.7923 14.495 30.9107 14.6377 31.4585 14.1536C32.0062 13.6696 31.94 12.5537 31.3031 11.0965C30.549 9.49105 29.557 8.00862 28.3606 6.69922Z" fill="url(#paint41_linear_4405_10330)"/>
<path d="M28.4711 6.59961L27.8597 7.10914C28.9792 8.33982 29.9099 9.72984 30.6213 11.2338C31.2455 12.6706 31.2302 13.3916 31.029 13.5725C30.8277 13.7534 29.9589 13.7993 28.5705 13.063C27.0324 12.1907 25.6413 11.0817 24.4484 9.77652L23.7656 10.2861L23.9261 10.4415C26.8177 13.4298 29.9462 15.1317 31.3219 14.5126C31.3627 14.4922 31.4035 14.4718 31.4417 14.4489H31.457C31.5102 14.4159 31.5605 14.3784 31.6073 14.3368C31.6569 14.2919 31.7021 14.2425 31.7423 14.189C32.6416 13.0095 31.2761 9.83257 28.5552 6.71935L28.4711 6.59961Z" fill="#84EEB1"/>
</g>
<path d="M40.784 14.6727C39.3049 14.6727 38.1378 14.1353 37.2827 13.0607C36.4276 11.9744 36 10.4491 36 8.48466C36 6.56643 36.4218 5.05264 37.2653 3.9433C38.1205 2.83397 39.3453 2.2793 40.94 2.2793C41.4947 2.2793 41.9916 2.36019 42.4307 2.52196C42.8698 2.67219 43.228 2.84552 43.5054 3.04197V4.72331C43.1934 4.52686 42.8236 4.34197 42.396 4.16864C41.9685 3.9953 41.5178 3.90864 41.044 3.90864C40.0271 3.90864 39.2876 4.28419 38.8253 5.03531C38.3631 5.78642 38.132 6.9362 38.132 8.48466C38.132 9.98688 38.3631 11.1251 38.8253 11.8993C39.2876 12.662 39.9925 13.0433 40.94 13.0433C41.4947 13.0433 41.9742 12.9625 42.3787 12.8007C42.7831 12.6273 43.1587 12.4136 43.5054 12.1593V13.8407C43.2396 14.0256 42.8814 14.2105 42.4307 14.3953C41.98 14.5802 41.4311 14.6727 40.784 14.6727Z" fill="#102938"/>
<path d="M44.8102 5.78064H51.6049V14.4993H49.5423V7.40998H46.8729V14.4993H44.8102V5.78064Z" fill="#102938"/>
<path d="M52.6482 12.714C52.6482 12.714 52.6886 12.7429 52.7695 12.8007C52.8504 12.8469 52.966 12.87 53.1162 12.87C53.4513 12.87 53.6709 12.6967 53.7749 12.35C53.8789 12.0033 53.9482 11.3678 53.9829 10.4433L54.1562 5.78064H60.0669V14.4993H58.0042V7.40998H55.9069L55.7855 10.53C55.7393 11.9744 55.5602 13.026 55.2482 13.6847C54.9362 14.3433 54.3411 14.6727 53.4629 14.6727C53.2202 14.6727 53.0238 14.6438 52.8735 14.586C52.7233 14.5282 52.6482 14.4993 52.6482 14.4993V12.714Z" fill="#102938"/>
<path d="M61.8051 5.78064H63.8158V11.1713L67.0051 5.78064H68.7905V14.4993H66.7798V9.10866L63.5905 14.4993H61.8051V5.78064Z" fill="#102938"/>
<path d="M76.9186 7.40998H74.4919V14.4993H72.4293V7.40998H70.0026V5.78064H76.9186V7.40998Z" fill="#102938"/>
<g clip-path="url(#clip1_4405_10330)">
<path fill-rule="evenodd" clip-rule="evenodd" d="M16 0.5H0V16.5H16V0.5ZM10.7988 13.308H9.12744V5.00643H8.38154C7.01405 5.00643 6.29578 5.69707 6.29578 6.71923C6.29578 7.87952 6.79305 8.41822 7.81521 9.10887L8.6578 9.6752L6.22672 13.308H4.41722L6.59967 10.062C5.34269 9.16412 4.63823 8.29391 4.63823 6.81592C4.63823 4.96499 5.92283 3.70801 8.36772 3.70801H10.7988V13.308Z" fill="#102938"/>
</g>
<defs>
<radialGradient id="paint0_radial_4405_10330" cx="0" cy="0" r="1" gradientUnits="userSpaceOnUse" gradientTransform="translate(28.0538 1.40712) rotate(-2.29061) scale(36.6772 27.1417)">
<stop stop-color="#03BA50"/>
<stop offset="0.8" stop-color="#01B64E"/>
</radialGradient>
<radialGradient id="paint1_radial_4405_10330" cx="0" cy="0" r="1" gradientUnits="userSpaceOnUse" gradientTransform="translate(28.0483 1.4029) rotate(-2.29061) scale(36.6007 27.0851)">
<stop stop-color="#04BC50"/>
<stop offset="0.8" stop-color="#01B34D"/>
</radialGradient>
<radialGradient id="paint2_radial_4405_10330" cx="0" cy="0" r="1" gradientUnits="userSpaceOnUse" gradientTransform="translate(28.0427 1.4106) rotate(-2.29061) scale(36.5242 27.0285)">
<stop stop-color="#06BD51"/>
<stop offset="0.72" stop-color="#02B24C"/>
<stop offset="0.8" stop-color="#01B04B"/>
</radialGradient>
<radialGradient id="paint3_radial_4405_10330" cx="0" cy="0" r="1" gradientUnits="userSpaceOnUse" gradientTransform="translate(28.027 1.42224) rotate(-2.29061) scale(36.4477 26.9719)">
<stop stop-color="#08BF52"/>
<stop offset="0.56" stop-color="#04B44D"/>
<stop offset="0.8" stop-color="#01AD4A"/>
</radialGradient>
<radialGradient id="paint4_radial_4405_10330" cx="0" cy="0" r="1" gradientUnits="userSpaceOnUse" gradientTransform="translate(28.0142 1.43354) rotate(-2.29061) scale(36.3712 26.9153)">
<stop stop-color="#0AC053"/>
<stop offset="0.48" stop-color="#05B54E"/>
<stop offset="0.8" stop-color="#01AA49"/>
</radialGradient>
<radialGradient id="paint5_radial_4405_10330" cx="0" cy="0" r="1" gradientUnits="userSpaceOnUse" gradientTransform="translate(27.9975 1.46121) rotate(-1.71836) scale(36.2795 26.8553)">
<stop stop-color="#0BC253"/>
<stop offset="0.42" stop-color="#07B74E"/>
<stop offset="0.8" stop-color="#01A848"/>
</radialGradient>
<radialGradient id="paint6_radial_4405_10330" cx="0" cy="0" r="1" gradientUnits="userSpaceOnUse" gradientTransform="translate(27.9782 1.46829) rotate(-1.71836) scale(36.203 26.7987)">
<stop stop-color="#0DC354"/>
<stop offset="0.37" stop-color="#08B84F"/>
<stop offset="0.8" stop-color="#01A546"/>
</radialGradient>
<radialGradient id="paint7_radial_4405_10330" cx="0" cy="0" r="1" gradientUnits="userSpaceOnUse" gradientTransform="translate(28.2452 1.47495) rotate(-1.71836) scale(36.1265 26.7313)">
<stop stop-color="#0FC555"/>
<stop offset="0.33" stop-color="#0ABA50"/>
<stop offset="0.8" stop-color="#01A245"/>
</radialGradient>
<radialGradient id="paint8_radial_4405_10330" cx="0" cy="0" r="1" gradientUnits="userSpaceOnUse" gradientTransform="translate(28.219 1.48675) rotate(-1.70136) scale(36.4103 26.6747)">
<stop stop-color="#11C656"/>
<stop offset="0.3" stop-color="#0CBB51"/>
<stop offset="0.8" stop-color="#019F44"/>
</radialGradient>
<radialGradient id="paint9_radial_4405_10330" cx="0" cy="0" r="1" gradientUnits="userSpaceOnUse" gradientTransform="translate(28.2086 1.49995) rotate(-1.70135) scale(36.333 26.6181)">
<stop stop-color="#12C856"/>
<stop offset="0.28" stop-color="#0EBD51"/>
<stop offset="0.77" stop-color="#029E44"/>
<stop offset="0.8" stop-color="#019C43"/>
</radialGradient>
<radialGradient id="paint10_radial_4405_10330" cx="0" cy="0" r="1" gradientUnits="userSpaceOnUse" gradientTransform="translate(28.2006 1.51787) rotate(-1.70135) scale(36.2532 26.5597)">
<stop stop-color="#14C957"/>
<stop offset="0.26" stop-color="#0FBE52"/>
<stop offset="0.72" stop-color="#049F44"/>
<stop offset="0.8" stop-color="#019941"/>
</radialGradient>
<radialGradient id="paint11_radial_4405_10330" cx="0" cy="0" r="1" gradientUnits="userSpaceOnUse" gradientTransform="translate(28.1847 1.53989) rotate(-1.70136) scale(36.176 26.5031)">
<stop stop-color="#16CB58"/>
<stop offset="0.24" stop-color="#11C053"/>
<stop offset="0.66" stop-color="#06A145"/>
<stop offset="0.8" stop-color="#019640"/>
</radialGradient>
<radialGradient id="paint12_radial_4405_10330" cx="0" cy="0" r="1" gradientUnits="userSpaceOnUse" gradientTransform="translate(28.1665 1.5624) rotate(-1.70135) scale(36.0988 26.4465)">
<stop stop-color="#18CC59"/>
<stop offset="0.23" stop-color="#13C154"/>
<stop offset="0.62" stop-color="#07A246"/>
<stop offset="0.8" stop-color="#01933F"/>
</radialGradient>
<radialGradient id="paint13_radial_4405_10330" cx="0" cy="0" r="1" gradientUnits="userSpaceOnUse" gradientTransform="translate(28.1445 1.59212) rotate(-1.70136) scale(36.019 26.388)">
<stop stop-color="#19CD59"/>
<stop offset="0.21" stop-color="#15C254"/>
<stop offset="0.59" stop-color="#09A347"/>
<stop offset="0.8" stop-color="#01903E"/>
</radialGradient>
<radialGradient id="paint14_radial_4405_10330" cx="0" cy="0" r="1" gradientUnits="userSpaceOnUse" gradientTransform="translate(28.1231 1.62126) rotate(-1.70135) scale(35.9418 26.3315)">
<stop stop-color="#1BCF5A"/>
<stop offset="0.2" stop-color="#17C455"/>
<stop offset="0.56" stop-color="#0BA547"/>
<stop offset="0.8" stop-color="#018D3C"/>
</radialGradient>
<radialGradient id="paint15_radial_4405_10330" cx="0" cy="0" r="1" gradientUnits="userSpaceOnUse" gradientTransform="translate(28.0942 1.51071) rotate(-1.13442) scale(35.8558 26.2743)">
<stop stop-color="#1DD05B"/>
<stop offset="0.19" stop-color="#18C556"/>
<stop offset="0.54" stop-color="#0CA648"/>
<stop offset="0.8" stop-color="#018B3B"/>
</radialGradient>
<radialGradient id="paint16_radial_4405_10330" cx="0" cy="0" r="1" gradientUnits="userSpaceOnUse" gradientTransform="translate(28.0675 1.5332) rotate(-1.13442) scale(35.7759 26.2159)">
<stop stop-color="#1ED25B"/>
<stop offset="0.18" stop-color="#1AC756"/>
<stop offset="0.51" stop-color="#0EA848"/>
<stop offset="0.8" stop-color="#01883A"/>
</radialGradient>
<radialGradient id="paint17_radial_4405_10330" cx="0" cy="0" r="1" gradientUnits="userSpaceOnUse" gradientTransform="translate(28.0372 1.55742) rotate(-1.13442) scale(35.6987 26.1593)">
<stop stop-color="#20D35C"/>
<stop offset="0.18" stop-color="#1BC857"/>
<stop offset="0.49" stop-color="#0FA949"/>
<stop offset="0.8" stop-color="#018539"/>
</radialGradient>
<radialGradient id="paint18_radial_4405_10330" cx="0" cy="0" r="1" gradientUnits="userSpaceOnUse" gradientTransform="translate(28.0025 1.58793) rotate(-1.13442) scale(35.6216 26.1027)">
<stop stop-color="#22D55D"/>
<stop offset="0.17" stop-color="#1DCA58"/>
<stop offset="0.47" stop-color="#11AB4A"/>
<stop offset="0.8" stop-color="#018237"/>
</radialGradient>
<radialGradient id="paint19_radial_4405_10330" cx="0" cy="0" r="1" gradientUnits="userSpaceOnUse" gradientTransform="translate(27.9623 1.61624) rotate(-1.13442) scale(35.5418 26.0442)">
<stop stop-color="#24D65E"/>
<stop offset="0.16" stop-color="#1FCB59"/>
<stop offset="0.45" stop-color="#13AC4B"/>
<stop offset="0.8" stop-color="#017F36"/>
</radialGradient>
<radialGradient id="paint20_radial_4405_10330" cx="0" cy="0" r="1" gradientUnits="userSpaceOnUse" gradientTransform="translate(27.9217 1.65209) rotate(-1.13442) scale(35.4646 25.9877)">
<stop stop-color="#25D85E"/>
<stop offset="0.15" stop-color="#20CD59"/>
<stop offset="0.43" stop-color="#14AE4B"/>
<stop offset="0.79" stop-color="#017D36"/>
<stop offset="0.8" stop-color="#007C35"/>
</radialGradient>
<radialGradient id="paint21_radial_4405_10330" cx="0" cy="0" r="1" gradientUnits="userSpaceOnUse" gradientTransform="translate(28.692 1.69293) rotate(-1.13442) scale(35.3874 25.9241)">
<stop stop-color="#27D95F"/>
<stop offset="0.15" stop-color="#22CE5A"/>
<stop offset="0.42" stop-color="#16AF4C"/>
<stop offset="0.77" stop-color="#027E36"/>
<stop offset="0.8" stop-color="#007934"/>
</radialGradient>
<radialGradient id="paint22_radial_4405_10330" cx="0" cy="0" r="1" gradientUnits="userSpaceOnUse" gradientTransform="translate(28.4298 1.73258) rotate(-1.1233) scale(35.657 25.8657)">
<stop stop-color="#29DB60"/>
<stop offset="0.14" stop-color="#24D05B"/>
<stop offset="0.4" stop-color="#18B14D"/>
<stop offset="0.74" stop-color="#048037"/>
<stop offset="0.8" stop-color="#007632"/>
</radialGradient>
<radialGradient id="paint23_radial_4405_10330" cx="0" cy="0" r="1" gradientUnits="userSpaceOnUse" gradientTransform="translate(28.3995 1.77905) rotate(-1.1233) scale(35.579 25.8092)">
<stop stop-color="#2BDC61"/>
<stop offset="0.14" stop-color="#26D15C"/>
<stop offset="0.39" stop-color="#1AB24E"/>
<stop offset="0.71" stop-color="#068138"/>
<stop offset="0.8" stop-color="#007331"/>
</radialGradient>
<radialGradient id="paint24_radial_4405_10330" cx="0" cy="0" r="1" gradientUnits="userSpaceOnUse" gradientTransform="translate(28.366 1.83001) rotate(-1.1233) scale(35.4985 25.7507)">
<stop stop-color="#2CDE61"/>
<stop offset="0.13" stop-color="#27D35C"/>
<stop offset="0.37" stop-color="#1BB44E"/>
<stop offset="0.69" stop-color="#088339"/>
<stop offset="0.8" stop-color="#007030"/>
</radialGradient>
<radialGradient id="paint25_radial_4405_10330" cx="0" cy="0" r="1" gradientUnits="userSpaceOnUse" gradientTransform="translate(28.3328 1.57443) rotate(-0.561705) scale(35.4154 25.6944)">
<stop stop-color="#2EDF62"/>
<stop offset="0.13" stop-color="#29D45D"/>
<stop offset="0.37" stop-color="#1DB54F"/>
<stop offset="0.67" stop-color="#098439"/>
<stop offset="0.8" stop-color="#006E2F"/>
</radialGradient>
<radialGradient id="paint26_radial_4405_10330" cx="0" cy="0" r="1" gradientUnits="userSpaceOnUse" gradientTransform="translate(28.2938 1.61402) rotate(-0.561705) scale(35.3375 25.6379)">
<stop stop-color="#30E163"/>
<stop offset="0.13" stop-color="#2BD65E"/>
<stop offset="0.35" stop-color="#1FB750"/>
<stop offset="0.65" stop-color="#0B8639"/>
<stop offset="0.8" stop-color="#006B2D"/>
</radialGradient>
<radialGradient id="paint27_radial_4405_10330" cx="0" cy="0" r="1" gradientUnits="userSpaceOnUse" gradientTransform="translate(28.2554 1.65765) rotate(-0.561706) scale(35.2568 25.5794)">
<stop stop-color="#31E263"/>
<stop offset="0.12" stop-color="#2CD75E"/>
<stop offset="0.34" stop-color="#20B850"/>
<stop offset="0.63" stop-color="#0D873A"/>
<stop offset="0.8" stop-color="#00682C"/>
</radialGradient>
<radialGradient id="paint28_radial_4405_10330" cx="0" cy="0" r="1" gradientUnits="userSpaceOnUse" gradientTransform="translate(28.2105 1.70447) rotate(-0.561705) scale(35.1789 25.5229)">
<stop stop-color="#33E364"/>
<stop offset="0.12" stop-color="#2ED85F"/>
<stop offset="0.34" stop-color="#22B951"/>
<stop offset="0.62" stop-color="#0E883B"/>
<stop offset="0.8" stop-color="#00652B"/>
</radialGradient>
<radialGradient id="paint29_radial_4405_10330" cx="0" cy="0" r="1" gradientUnits="userSpaceOnUse" gradientTransform="translate(28.1627 1.75549) rotate(-0.561705) scale(35.0984 25.4644)">
<stop stop-color="#35E565"/>
<stop offset="0.12" stop-color="#30DA60"/>
<stop offset="0.33" stop-color="#24BB52"/>
<stop offset="0.6" stop-color="#108A3C"/>
<stop offset="0.8" stop-color="#00622A"/>
</radialGradient>
<radialGradient id="paint30_radial_4405_10330" cx="0" cy="0" r="1" gradientUnits="userSpaceOnUse" gradientTransform="translate(28.1188 1.80765) rotate(-0.561705) scale(35.0204 25.4079)">
<stop stop-color="#37E666"/>
<stop offset="0.11" stop-color="#32DB61"/>
<stop offset="0.32" stop-color="#26BC53"/>
<stop offset="0.59" stop-color="#128B3C"/>
<stop offset="0.8" stop-color="#005F28"/>
</radialGradient>
<radialGradient id="paint31_radial_4405_10330" cx="0" cy="0" r="1" gradientUnits="userSpaceOnUse" gradientTransform="translate(28.0664 1.8635) rotate(-0.561705) scale(34.9398 25.3494)">
<stop stop-color="#38E866"/>
<stop offset="0.11" stop-color="#33DD61"/>
<stop offset="0.31" stop-color="#27BE53"/>
<stop offset="0.57" stop-color="#148D3D"/>
<stop offset="0.8" stop-color="#005C27"/>
</radialGradient>
<radialGradient id="paint32_radial_4405_10330" cx="0" cy="0" r="1" gradientUnits="userSpaceOnUse" gradientTransform="translate(28.0119 1.92421) rotate(-0.561706) scale(34.8619 25.2929)">
<stop stop-color="#3AE967"/>
<stop offset="0.11" stop-color="#35DE62"/>
<stop offset="0.3" stop-color="#29BF54"/>
<stop offset="0.56" stop-color="#158E3E"/>
<stop offset="0.8" stop-color="#005926"/>
</radialGradient>
<radialGradient id="paint33_radial_4405_10330" cx="0" cy="0" r="1" gradientUnits="userSpaceOnUse" gradientTransform="translate(27.9561 1.98638) rotate(-0.561705) scale(34.7839 25.2363)">
<stop stop-color="#3CEB68"/>
<stop offset="0.11" stop-color="#37E063"/>
<stop offset="0.29" stop-color="#2BC155"/>
<stop offset="0.54" stop-color="#17903F"/>
<stop offset="0.8" stop-color="#005625"/>
</radialGradient>
<radialGradient id="paint34_radial_4405_10330" cx="0" cy="0" r="1" gradientUnits="userSpaceOnUse" gradientTransform="translate(27.8954 2.05176) rotate(-0.561705) scale(34.7033 25.1778)">
<stop stop-color="#3EEC69"/>
<stop offset="0.1" stop-color="#39E164"/>
<stop offset="0.29" stop-color="#2DC256"/>
<stop offset="0.53" stop-color="#19913F"/>
<stop offset="0.8" stop-color="#005323"/>
</radialGradient>
<radialGradient id="paint35_radial_4405_10330" cx="0" cy="0" r="1" gradientUnits="userSpaceOnUse" gradientTransform="translate(27.8316 1.65581) scale(34.6237 25.1192)">
<stop stop-color="#3FEE69"/>
<stop offset="0.1" stop-color="#3AE364"/>
<stop offset="0.28" stop-color="#2EC456"/>
<stop offset="0.52" stop-color="#1A9340"/>
<stop offset="0.8" stop-color="#005122"/>
</radialGradient>
<radialGradient id="paint36_radial_4405_10330" cx="0" cy="0" r="1" gradientUnits="userSpaceOnUse" gradientTransform="translate(28.6471 1.71199) scale(34.8818 25.0607)">
<stop stop-color="#41EF6A"/>
<stop offset="0.1" stop-color="#3CE465"/>
<stop offset="0.28" stop-color="#30C557"/>
<stop offset="0.51" stop-color="#1C9441"/>
<stop offset="0.79" stop-color="#015022"/>
<stop offset="0.8" stop-color="#004E21"/>
</radialGradient>
<radialGradient id="paint37_radial_4405_10330" cx="0" cy="0" r="1" gradientUnits="userSpaceOnUse" gradientTransform="translate(28.5992 1.77299) scale(34.8057 25.0061)">
<stop stop-color="#43F16B"/>
<stop offset="0.1" stop-color="#3EE666"/>
<stop offset="0.27" stop-color="#32C758"/>
<stop offset="0.5" stop-color="#1E9642"/>
<stop offset="0.77" stop-color="#035223"/>
<stop offset="0.8" stop-color="#004B20"/>
</radialGradient>
<radialGradient id="paint38_radial_4405_10330" cx="0" cy="0" r="1" gradientUnits="userSpaceOnUse" gradientTransform="translate(28.5505 1.83623) scale(34.727 24.9495)">
<stop stop-color="#45F26C"/>
<stop offset="0.1" stop-color="#40E767"/>
<stop offset="0.27" stop-color="#34C859"/>
<stop offset="0.49" stop-color="#209742"/>
<stop offset="0.76" stop-color="#055323"/>
<stop offset="0.8" stop-color="#00481E"/>
</radialGradient>
<radialGradient id="paint39_radial_4405_10330" cx="0" cy="0" r="1" gradientUnits="userSpaceOnUse" gradientTransform="translate(28.5015 1.90406) scale(34.6457 24.891)">
<stop stop-color="#46F46C"/>
<stop offset="0.09" stop-color="#41E967"/>
<stop offset="0.26" stop-color="#35CA59"/>
<stop offset="0.48" stop-color="#229943"/>
<stop offset="0.74" stop-color="#065524"/>
<stop offset="0.8" stop-color="#00451D"/>
</radialGradient>
<radialGradient id="paint40_radial_4405_10330" cx="0" cy="0" r="1" gradientUnits="userSpaceOnUse" gradientTransform="translate(28.4536 1.97651) scale(34.5643 24.8326)">
<stop stop-color="#48F56D"/>
<stop offset="0.09" stop-color="#43EA68"/>
<stop offset="0.25" stop-color="#37CB5A"/>
<stop offset="0.47" stop-color="#239A44"/>
<stop offset="0.73" stop-color="#085625"/>
<stop offset="0.8" stop-color="#00421C"/>
</radialGradient>
<linearGradient id="paint41_linear_4405_10330" x1="29.0127" y1="19.8323" x2="26.032" y2="-1.54242" gradientUnits="userSpaceOnUse">
<stop offset="0.1" stop-color="#FF8475"/>
<stop offset="0.37" stop-color="#E84E43"/>
<stop offset="0.6" stop-color="#D6261F"/>
<stop offset="0.79" stop-color="#CC0E08"/>
<stop offset="0.9" stop-color="#C80500"/>
</linearGradient>
<clipPath id="clip0_4405_10330">
<rect width="16" height="16" fill="white" transform="translate(18 0.5)"/>
</clipPath>
<clipPath id="clip1_4405_10330">
<rect y="0.5" width="16" height="16" rx="8" fill="white"/>
</clipPath>
</defs>
</svg>
