<svg width="77" height="17" viewBox="0 0 77 17" fill="none" xmlns="http://www.w3.org/2000/svg">
<g clip-path="url(#clip0_4403_4975)">
<path d="M26.0247 8.53725L31.6448 14.2924L31.5301 14.3968L31.4817 14.4427C29.908 15.8464 27.846 16.5759 25.7397 16.4741C23.6334 16.3724 21.6513 15.4474 20.2203 13.8985C18.7893 12.3496 18.0238 10.3006 18.0888 8.19283C18.1537 6.08506 19.0439 4.08711 20.5676 2.62926C22.1342 1.19564 24.2025 0.436952 26.3245 0.517541C28.4465 0.598129 30.4513 1.51151 31.9046 3.05981L26.0247 8.53725Z" fill="#01B94F"/>
<path d="M20.5727 2.62661C22.139 1.19425 24.2066 0.436551 26.3275 0.517613C28.4485 0.598675 30.4522 1.51197 31.9046 3.05971C31.9046 3.05971 27.2297 7.43656 27.1354 7.51299C27.1354 7.51299 26.0883 8.49893 26.096 8.51422C26.1036 8.5295 31.6346 14.2694 31.6346 14.2694L31.5225 14.3764L31.4741 14.4222C28.1723 17.3265 23.1127 17.194 20.1243 13.9636C18.6892 12.3966 17.9311 10.3261 18.0151 8.20283C18.0991 6.07958 19.0183 4.07543 20.5727 2.62661Z" fill="url(#paint0_radial_4403_4975)"/>
<path d="M20.5754 2.6222C22.143 1.19173 24.2106 0.435755 26.3312 0.517756C28.4518 0.599757 30.4549 1.51314 31.9073 3.0604C31.9073 3.0604 27.3572 7.34044 27.1713 7.49075C27.1713 7.49075 26.1522 8.46395 26.17 8.49452C26.2083 8.58624 31.6271 14.2446 31.6271 14.2446L31.515 14.3516L31.4666 14.3974C28.1725 17.2966 23.1103 17.154 20.1321 13.9337C18.6992 12.371 17.9417 10.3054 18.0247 8.1867C18.1078 6.06805 19.0245 4.06801 20.5754 2.6222Z" fill="url(#paint1_radial_4403_4975)"/>
<path d="M20.5807 2.61852C22.1484 1.18993 24.2151 0.435365 26.3345 0.517832C28.4538 0.600299 30.4557 1.51318 31.9076 3.05927C31.9076 3.05927 27.4874 7.23995 27.2021 7.46669C27.2021 7.46669 26.2187 8.42461 26.2365 8.47046C26.2951 8.60804 31.6171 14.2205 31.6171 14.2205L31.5025 14.3275L31.4541 14.3708C28.1702 17.2624 23.1105 17.1146 20.1374 13.902C18.7068 12.3437 17.9505 10.2828 18.0335 8.16892C18.1166 6.05507 19.0322 4.05984 20.5807 2.61852Z" fill="url(#paint2_radial_4403_4975)"/>
<path d="M20.5832 2.6161C22.1511 1.1886 24.2175 0.434967 26.3362 0.517906C28.4549 0.600844 30.4561 1.5137 31.9075 3.05939C31.9075 3.05939 27.6147 7.13562 27.2351 7.44389C27.2351 7.44389 26.2823 8.38907 26.3078 8.45021C26.3842 8.63364 31.6069 14.1977 31.6069 14.1977L31.4948 14.3022C31.4948 14.3022 31.4464 14.3455 31.4464 14.348C28.1701 17.2294 23.1105 17.0714 20.145 13.8716C18.7167 12.318 17.9611 10.2623 18.0432 8.15349C18.1253 6.04465 19.0384 4.05396 20.5832 2.6161Z" fill="url(#paint3_radial_4403_4975)"/>
<path d="M20.5883 2.61125C22.1566 1.18595 24.2222 0.434174 26.3397 0.518054C28.4572 0.601935 30.4569 1.51475 31.9075 3.05964C31.9075 3.05964 27.7447 7.04415 27.2682 7.4212C27.2682 7.4212 26.346 8.35109 26.3766 8.42752C26.4734 8.65681 31.5992 14.1725 31.5967 14.175L31.4846 14.2795L31.4362 14.3253C28.1676 17.194 23.1105 17.0335 20.1527 13.8413C18.7268 12.2916 17.9722 10.2406 18.0538 8.13639C18.1355 6.03215 19.0467 4.04575 20.5883 2.61125Z" fill="url(#paint4_radial_4403_4975)"/>
<path d="M20.5903 2.60883C22.1587 1.18463 24.224 0.433777 26.3409 0.518129C28.4578 0.602481 30.4567 1.51528 31.9069 3.05976C31.9069 3.05976 27.8714 6.94747 27.3007 7.39076C27.3007 7.39076 26.4091 8.30536 26.4473 8.39708C26.5619 8.67222 31.5884 14.1395 31.5884 14.1395L31.4763 14.2694L31.4279 14.3127C28.1644 17.161 23.1099 16.9954 20.1572 13.8108C18.7339 12.2656 17.9804 10.2197 18.0616 8.12043C18.1428 6.0212 19.0519 4.03953 20.5903 2.60883Z" fill="url(#paint5_radial_4403_4975)"/>
<path d="M20.5952 2.60641C22.1638 1.18331 24.2287 0.433382 26.345 0.518205C28.4613 0.603027 30.4596 1.51581 31.9093 3.05989C31.9093 3.05989 28.0012 6.85078 27.3363 7.39088C27.3363 7.39088 26.4726 8.2902 26.5159 8.3972C26.6611 8.70547 31.5806 14.1269 31.5781 14.1269L31.466 14.2313L31.4176 14.2772C28.1642 17.128 23.1097 16.9547 20.1646 13.7804C18.7434 12.2399 17.9906 10.1989 18.0713 8.10443C18.152 6.01001 19.0596 4.03296 20.5952 2.60641Z" fill="url(#paint6_radial_4403_4975)"/>
<path d="M20.5986 2.60282C22.1677 1.18114 24.2325 0.432583 26.3481 0.518354C28.4638 0.604124 30.4612 1.51736 31.9101 3.06139C31.9101 3.06139 28.1294 6.75293 27.3702 7.35672C27.3702 7.35672 26.5371 8.2433 26.5881 8.37578C26.7409 8.74264 31.5713 14.1156 31.5687 14.1156C31.5662 14.1156 31.4643 14.215 31.4566 14.2201L31.4082 14.2634C28.1625 17.0964 23.108 16.918 20.1706 13.7615C18.748 12.2248 17.9939 10.1861 18.0742 8.09354C18.1544 6.001 19.0625 4.026 20.5986 2.60282Z" fill="url(#paint7_radial_4403_4975)"/>
<path d="M20.6034 2.59915C22.1726 1.17935 24.2364 0.432198 26.3509 0.518434C28.4653 0.60467 30.4614 1.5174 31.9098 3.06028C31.9098 3.06028 28.259 6.655 27.403 7.33267C27.403 7.33267 26.6005 8.20397 26.6591 8.35173C26.8298 8.76445 31.5608 14.089 31.5608 14.0916L31.4487 14.196L31.4003 14.2393C28.1622 17.0723 23.1077 16.8863 20.1906 13.7298C18.7697 12.1989 18.0149 10.1663 18.0923 8.07902C18.1697 5.99173 19.0729 4.02063 20.6034 2.59915Z" fill="url(#paint8_radial_4403_4975)"/>
<path d="M20.6054 2.59674C22.1748 1.17803 24.2383 0.431804 26.3521 0.518511C28.466 0.605218 30.4614 1.51793 31.9093 3.06041C31.9093 3.06041 28.3859 6.55578 27.4255 7.30988C27.4255 7.30988 26.6612 8.16844 26.7172 8.32894C26.9159 8.77987 31.5526 14.056 31.5501 14.0586L31.438 14.1605C31.438 14.1605 31.3947 14.2013 31.3896 14.2064C28.1592 17.0291 23.1072 16.8355 20.18 13.6968C19.479 12.9401 18.934 12.0526 18.576 11.0852C18.2181 10.1178 18.0541 9.08941 18.0937 8.05866C18.1332 7.02791 18.3753 6.01504 18.8063 5.07787C19.2373 4.14071 19.8486 3.29762 20.6054 2.59674Z" fill="url(#paint9_radial_4403_4975)"/>
<path d="M20.6105 2.59191C22.1803 1.17539 24.243 0.431019 26.3557 0.518667C28.4683 0.606316 30.4622 1.51899 31.9093 3.06068C31.9093 3.06068 28.5159 6.45923 27.4688 7.28722C27.4688 7.28722 26.7274 8.13304 26.7987 8.30628C27.0076 8.81581 31.5425 14.041 31.5425 14.0436L31.4304 14.1455L31.382 14.1888C28.1566 16.9963 23.1072 16.7976 20.1902 13.6614C18.7782 12.1376 18.0294 10.1155 18.1082 8.03962C18.187 5.96377 19.0871 4.00422 20.6105 2.59191Z" fill="url(#paint10_radial_4403_4975)"/>
<path d="M20.6136 2.58972C22.184 1.17415 24.2468 0.430628 26.3592 0.518745C28.4717 0.606862 30.4654 1.51959 31.9124 3.06104C31.9124 3.06104 28.6438 6.37298 27.5025 7.2672C27.5025 7.2672 26.7942 8.09519 26.8681 8.28626C27.0974 8.82891 31.5354 14.0159 31.5328 14.0159L31.4207 14.1204L31.3723 14.1637C28.1572 16.9661 23.1078 16.7623 20.1984 13.6363C19.4996 12.8841 18.956 12.0014 18.5987 11.0389C18.2414 10.0764 18.0773 9.05291 18.1159 8.02693C18.1544 7.00095 18.3949 5.99265 18.8235 5.05968C19.2521 4.12671 19.8604 3.28739 20.6136 2.58972Z" fill="url(#paint11_radial_4403_4975)"/>
<path d="M20.6186 2.58607C22.1891 1.17236 24.251 0.430246 26.3622 0.518827C28.4733 0.607409 30.4658 1.51964 31.9123 3.05993C31.9123 3.05993 28.7736 6.26232 27.5355 7.24317C27.5355 7.24317 26.8578 8.05841 26.9393 8.26223C27.1941 8.85837 31.5251 13.9919 31.5251 13.9944L31.413 14.0989C31.413 14.0989 31.3697 14.1371 31.3671 14.1422C28.1571 16.9446 23.1102 16.723 20.2059 13.6072C17.3016 10.4914 17.4468 5.46236 20.6186 2.58607Z" fill="url(#paint12_radial_4403_4975)"/>
<path d="M20.6212 2.58249C22.1922 1.1702 24.2539 0.429456 26.3645 0.518984C28.4751 0.608513 30.4666 1.52119 31.9124 3.06145C31.9124 3.06145 28.901 6.16193 27.5814 7.21666C27.5814 7.21666 26.9317 8.01662 27.0209 8.23572C27.2884 8.87772 31.5251 13.9628 31.5251 13.9654L31.413 14.0673L31.3646 14.1106C28.152 16.8952 23.095 16.6786 20.211 13.5705C17.3271 10.4624 17.457 5.45114 20.6212 2.58249Z" fill="url(#paint13_radial_4403_4975)"/>
<path d="M20.6262 2.57885C22.1972 1.16842 24.258 0.429075 26.3674 0.519068C28.4767 0.609061 30.467 1.52124 31.9122 3.06035C31.9122 3.06035 29.0309 6.06657 27.6042 7.19772C27.6042 7.19772 26.9851 7.98495 27.0794 8.21678C27.3672 8.9021 31.5021 13.9388 31.5021 13.9413L31.39 14.0432L31.3416 14.0866C28.1519 16.8609 23.0948 16.6367 20.216 13.5388C17.3372 10.4409 17.4671 5.4373 20.6262 2.57885Z" fill="url(#paint14_radial_4403_4975)"/>
<path d="M20.6284 2.57644C22.1997 1.16711 24.2601 0.428686 26.3688 0.519149C28.4776 0.609613 30.4672 1.52178 31.9119 3.06049C31.9119 3.06049 29.1579 5.9699 27.637 7.17494C27.637 7.17494 27.0485 7.93923 27.1504 8.19399C27.4561 8.92007 31.5018 13.916 31.5018 13.9185L31.3922 14.0205L31.3438 14.0638C28.1491 16.8178 23.0945 16.5987 20.2233 13.5058C17.3521 10.413 17.4744 5.42725 20.6284 2.57644Z" fill="url(#paint15_radial_4403_4975)"/>
<path d="M20.6341 2.57085C22.2064 1.16417 24.2664 0.427921 26.3741 0.519315C28.4819 0.610708 30.4704 1.5225 31.9151 3.06C31.9151 3.06 29.2884 5.86241 27.6809 7.15152C27.6809 7.15152 27.1229 7.91581 27.2299 8.17058C27.5459 8.95016 31.5023 13.89 31.4871 13.8926L31.375 13.9945C31.36 14.0102 31.3439 14.0247 31.3266 14.0378C28.1496 16.7944 23.0951 16.5625 20.2316 13.4773C17.368 10.3921 17.4903 5.41403 20.6341 2.57085Z" fill="url(#paint16_radial_4403_4975)"/>
<path d="M20.6365 2.57016C22.2108 1.16558 24.272 0.432556 26.3795 0.527771C28.4871 0.622985 30.4738 1.53889 31.915 3.07968C31.915 3.07968 29.4157 5.77509 27.7037 7.13808C27.7037 7.13808 27.1763 7.88199 27.291 8.15714C27.6349 8.98512 31.4793 13.8791 31.4768 13.8817C31.4742 13.8842 31.3825 13.9709 31.3647 13.9836L31.3188 14.0269C28.147 16.7631 23.095 16.5185 20.2366 13.4486C17.3781 10.3787 17.4902 5.40314 20.6365 2.57016Z" fill="url(#paint17_radial_4403_4975)"/>
<path d="M20.6412 2.56478C22.2148 1.16114 24.2751 0.428658 26.3816 0.523869C28.4882 0.61908 30.4739 1.53443 31.9145 3.07431C31.9145 3.07431 29.5452 5.68055 27.7364 7.11487C27.7364 7.11487 27.2396 7.8435 27.3593 8.13393C27.7236 9.00777 31.4712 13.8534 31.4661 13.8559L31.3566 13.9578L31.3082 14.0012C28.144 16.7271 23.0946 16.4775 20.2438 13.4152C17.3929 10.3529 17.5025 5.38757 20.6412 2.56478Z" fill="url(#paint18_radial_4403_4975)"/>
<path d="M20.6439 2.55082C22.2177 1.14856 24.2772 0.416961 26.383 0.512157C28.4887 0.607353 30.4738 1.5218 31.9147 3.06035C31.9147 3.06035 29.6727 5.56978 27.7722 7.07798C27.7722 7.07798 27.3034 7.79133 27.4308 8.09704C27.813 9.01674 31.4612 13.8165 31.4586 13.8191L31.3465 13.921L31.2981 13.9617C28.1442 16.6953 23.0947 16.438 20.249 13.3885C17.4033 10.339 17.5128 5.37616 20.6439 2.55082Z" fill="url(#paint19_radial_4403_4975)"/>
<path d="M20.6494 2.55326C22.2226 1.15193 24.2812 0.420876 26.3859 0.516068C28.4906 0.61126 30.4748 1.52516 31.9151 3.06279C30.6485 4.49892 29.2748 5.83688 27.8057 7.06514C27.8057 7.06514 27.3675 7.76574 27.5026 8.0842C27.9025 9.04975 31.4514 13.7986 31.4489 13.8037L31.3393 13.903L31.2909 13.9463C28.142 16.6647 23.0951 16.4023 20.2571 13.3604C17.419 10.3185 17.5209 5.35567 20.6494 2.55326Z" fill="url(#paint20_radial_4403_4975)"/>
<path d="M20.6521 2.55225C22.2256 1.15154 24.2841 0.420887 26.3886 0.51607C28.4931 0.611254 30.4771 1.52474 31.9178 3.06178C30.6689 4.49399 29.3057 5.8223 27.8416 7.03356C27.8416 7.03356 27.4365 7.71887 27.5868 8.05261C28.0071 9.07167 31.4592 13.767 31.4541 13.7695L31.3446 13.8714L31.2962 13.9147C28.1422 16.628 23.0953 16.3605 20.2623 13.3288C17.4293 10.2971 17.5312 5.35466 20.6521 2.55225Z" fill="url(#paint21_radial_4403_4975)"/>
<path d="M20.6566 2.55268C22.2302 1.15412 24.2873 0.424825 26.3904 0.519987C28.4935 0.615149 30.4764 1.52726 31.9172 3.06221C30.688 4.49545 29.3341 5.81691 27.8716 7.01106C27.8716 7.01106 27.497 7.68364 27.6423 8.03012C28.0805 9.09759 31.4332 13.7623 31.4306 13.7623C31.4281 13.7623 31.3414 13.8464 31.3185 13.8642L31.2727 13.905C28.1391 16.5953 23.0947 16.31 20.2694 13.2987C17.444 10.2873 17.5383 5.35509 20.6566 2.55268Z" fill="url(#paint22_radial_4403_4975)"/>
<path d="M20.6589 2.55145C22.2323 1.15366 24.289 0.424835 26.3914 0.51999C28.4939 0.615146 30.4763 1.52677 31.917 3.06097C30.7076 4.49682 29.364 5.81398 27.9044 6.99454C27.9044 6.99454 27.5605 7.65183 27.7108 8.0136C28.1719 9.11673 31.4253 13.7254 31.4202 13.728L31.3106 13.8273L31.2622 13.8706C28.1363 16.5635 23.0945 16.2807 20.2768 13.2668C17.4591 10.253 17.5483 5.32838 20.6589 2.55145Z" fill="url(#paint23_radial_4403_4975)"/>
<path d="M20.6621 2.55021C22.2353 1.15319 24.2914 0.424845 26.3933 0.519994C28.4951 0.615143 30.477 1.52629 31.9176 3.05974C30.7289 4.49811 29.3944 5.8095 27.9356 6.97292C27.9356 6.97292 27.6222 7.61493 27.7802 7.99198C28.2591 9.14097 31.4131 13.6987 31.4106 13.7038L31.2985 13.8032L31.2501 13.8465C28.1369 16.5266 23.0951 16.2387 20.2927 13.235C17.4902 10.2314 17.559 5.31441 20.6621 2.55021Z" fill="url(#paint24_radial_4403_4975)"/>
<path d="M20.6668 2.55165C22.2397 1.15617 24.2947 0.428771 26.3953 0.523908C28.496 0.619044 30.4768 1.52922 31.9172 3.06118C30.7508 4.50004 29.4281 5.8048 27.9734 6.95143C27.9734 6.95143 27.6881 7.5807 27.8537 7.97049C28.3632 9.16534 31.4204 13.6772 31.4025 13.6823L31.293 13.7817L31.2446 13.8224C28.1339 16.4949 23.0947 16.1994 20.2923 13.2059C17.4898 10.2124 17.5663 5.30311 20.6668 2.55165Z" fill="url(#paint25_radial_4403_4975)"/>
<path d="M20.6693 2.55333C22.2424 1.15922 24.2967 0.432699 26.3965 0.527821C28.4963 0.622942 30.4765 1.53223 31.9171 3.06286C30.7742 4.50483 29.4611 5.80336 28.0065 6.93018C28.0065 6.93018 27.7517 7.54417 27.9224 7.94924C28.4319 9.18995 31.3974 13.6534 31.3923 13.656C31.3872 13.6585 31.3082 13.7349 31.2828 13.7553L31.2344 13.7986C28.1339 16.4635 23.0946 16.1629 20.2922 13.177C17.4898 10.1912 17.5764 5.29205 20.6693 2.55333Z" fill="url(#paint26_radial_4403_4975)"/>
<path d="M20.675 2.53734C22.2499 1.14594 24.3047 0.422545 26.404 0.520516C28.5032 0.618486 30.4818 1.53012 31.9203 3.06216C31.9203 3.06216 30.7025 4.79456 28.0402 6.90655C28.0402 6.90655 27.816 7.5078 27.9943 7.92561C28.5293 9.19943 31.3878 13.6298 31.3852 13.6323L31.2732 13.7317L31.2273 13.775C28.1319 16.4296 23.0952 16.1214 20.2928 13.1457C17.4904 10.1701 17.5847 5.27861 20.675 2.53734Z" fill="url(#paint27_radial_4403_4975)"/>
<path d="M20.6767 2.53281C22.2524 1.14342 24.307 0.421787 26.4054 0.520694C28.5039 0.619601 30.4814 1.53128 31.9195 3.06272C31.9195 3.06272 30.8316 4.68812 28.0725 6.88419C27.9697 7.21609 27.9697 7.57134 28.0725 7.90324C28.6279 9.23566 31.3845 13.6023 31.3845 13.6074L31.2749 13.7068L31.2265 13.7475C28.1286 16.3971 23.0944 16.0837 20.3099 13.1183C17.5253 10.1528 17.5941 5.26898 20.6767 2.53281Z" fill="url(#paint28_radial_4403_4975)"/>
<path d="M20.6827 2.52728C22.2578 1.13853 24.3118 0.417489 26.4094 0.516877C28.507 0.616264 30.4835 1.52828 31.9203 3.05974C31.9203 3.05974 30.9599 4.58833 28.0989 6.84809C28.0088 7.18327 28.0186 7.53742 28.1269 7.86715C28.7001 9.26326 31.37 13.5841 31.3649 13.5892L31.2554 13.6885L31.2095 13.7293C28.1294 16.361 23.0953 16.0527 20.3158 13.0847C17.5363 10.1167 17.6051 5.25326 20.6827 2.52728Z" fill="url(#paint29_radial_4403_4975)"/>
<path d="M20.6852 2.5249C22.2605 1.13724 24.3141 0.417111 26.4111 0.516968C28.5081 0.616825 30.4839 1.52883 31.9203 3.0599C31.9203 3.0599 31.0897 4.49932 28.1396 6.83806C28.0686 7.17728 28.0906 7.52937 28.2033 7.85712C28.7969 9.28125 31.3623 13.5536 31.3572 13.5587L31.2477 13.6556L31.1993 13.6989C28.1268 16.328 23.0952 15.9994 20.3234 13.0543C17.5083 10.0685 17.6127 5.24069 20.6852 2.5249Z" fill="url(#paint30_radial_4403_4975)"/>
<path d="M20.6899 2.51915C22.2659 1.13427 24.3186 0.416368 26.4142 0.517154C28.5098 0.61794 30.4841 1.52952 31.92 3.05925C31.92 3.05925 31.2168 4.39167 28.1724 6.80429C28.1198 7.14713 28.1549 7.49769 28.2743 7.82334C28.8857 9.29333 31.3518 13.5199 31.3467 13.5224L31.2372 13.6218L31.1888 13.6625C28.1316 16.2739 23.1 15.9554 20.3282 13.0053C17.5563 10.0551 17.6226 5.22729 20.6899 2.51915Z" fill="url(#paint31_radial_4403_4975)"/>
<path d="M20.6925 2.517C22.2691 1.13305 24.3218 0.415992 26.4172 0.517245C28.5126 0.618498 30.4867 1.53014 31.9225 3.05965C31.9225 3.05965 31.3467 4.29271 28.208 6.78176C28.1736 7.12753 28.2207 7.47654 28.3456 7.80082C28.9748 9.33705 31.3416 13.505 31.3365 13.5177L31.227 13.6171L31.1811 13.6579C28.1239 16.259 23.0949 15.9202 20.3358 12.9955C17.5334 10.0249 17.6327 5.21496 20.6925 2.517Z" fill="url(#paint32_radial_4403_4975)"/>
<path d="M20.6974 2.51439C22.2737 1.13169 24.3257 0.415615 26.4201 0.517339C28.5144 0.619064 30.4873 1.53063 31.9223 3.05959C31.9223 3.05959 31.4739 4.20603 28.2409 6.76896C28.2265 7.11704 28.2855 7.46426 28.4142 7.78802C29.0638 9.35992 31.3338 13.4896 31.3287 13.5049L31.2191 13.6017L31.1707 13.6425C28.1212 16.2258 23.0947 15.8819 20.3407 12.9623C17.5459 10.0019 17.6402 5.20216 20.6974 2.51439Z" fill="url(#paint33_radial_4403_4975)"/>
<path d="M20.6997 2.50988C22.2768 1.12919 24.3285 0.414866 26.4221 0.517525C28.5157 0.620185 30.4876 1.5318 31.9221 3.06017C31.9221 3.06017 31.6036 4.10725 28.2738 6.74661C28.2793 7.10072 28.3511 7.45068 28.4853 7.7784C29.1553 9.38597 31.3234 13.4673 31.3183 13.4724L31.2087 13.5692L31.1629 13.61C28.121 16.1933 23.0945 15.8417 20.3481 12.9323C17.5585 9.98211 17.6502 5.19 20.6997 2.50988Z" fill="url(#paint34_radial_4403_4975)"/>
<path d="M20.7052 2.50974C22.2832 1.13448 24.3331 0.424718 26.4236 0.529721C28.5142 0.634724 30.4826 1.54631 31.9149 3.07277C31.9149 3.07277 31.7238 4.01285 28.2997 6.72609C28.3293 7.08137 28.4153 7.42967 28.5545 7.75789C29.2449 9.41386 31.3162 13.4468 31.3111 13.4519L31.2015 13.5487C31.1843 13.5609 31.1681 13.5745 31.1531 13.5894C28.1189 16.1626 23.0949 15.8008 20.3562 12.9041C17.5716 9.9616 17.6582 5.18222 20.7052 2.50974Z" fill="url(#paint35_radial_4403_4975)"/>
<path d="M20.7079 2.50568C22.286 1.13013 24.3361 0.420415 26.4269 0.525904C28.5177 0.631392 30.486 1.54386 31.9176 3.07126C31.9176 3.07126 31.8564 3.91453 28.3356 6.70165C28.3856 7.05732 28.4815 7.40499 28.6209 7.736C29.3342 9.43018 31.3061 13.4198 31.301 13.4249L31.1915 13.5217C31.1762 13.5217 31.1584 13.5523 31.1431 13.5625C28.1165 16.1279 23.0951 15.7636 20.3614 12.872C17.5845 9.93971 17.6686 5.16797 20.7079 2.50568Z" fill="url(#paint36_radial_4403_4975)"/>
<path d="M20.7125 2.50142C22.2918 1.12772 24.342 0.419676 26.4324 0.526096C28.5228 0.632516 30.4906 1.54511 31.9222 3.07209C31.9222 3.07209 31.9884 3.82619 28.3733 6.6821C28.4473 7.03604 28.5566 7.38169 28.6994 7.7139C29.4255 9.46158 31.3005 13.3977 31.2929 13.4028C31.2853 13.4079 31.219 13.4716 31.1833 13.4996L31.1375 13.5404C28.1185 16.1007 23.0946 15.7237 20.3686 12.8423C17.5942 9.91761 17.6783 5.15606 20.7125 2.50142Z" fill="url(#paint37_radial_4403_4975)"/>
<path d="M20.7152 2.49621C22.2948 1.12254 24.3456 0.414993 26.4362 0.522374C28.5268 0.629754 30.4942 1.5437 31.9248 3.07198C31.9248 3.07198 32.1184 3.71653 28.4091 6.65652C28.5043 7.009 28.6235 7.35459 28.7657 7.69086C29.5122 9.47421 31.2879 13.3721 31.2828 13.3772L31.1732 13.474L31.1248 13.5148C28.1161 16.0522 23.0947 15.6803 20.3738 12.8116C17.607 9.89203 17.686 5.14067 20.7152 2.49621Z" fill="url(#paint38_radial_4403_4975)"/>
<path d="M20.7208 2.49506C22.3007 1.12172 24.3517 0.414612 26.4423 0.522468C28.5329 0.630324 30.5002 1.54474 31.9304 3.07338C31.9304 3.07338 32.2463 3.61858 28.4452 6.62734C28.4452 6.62734 28.5853 7.05535 28.8401 7.66169C29.6044 9.50109 31.2808 13.3429 31.2757 13.348L31.1661 13.4448L31.1202 13.4831C28.114 16.0282 23.0952 15.6435 20.3819 12.7825C17.6203 9.87049 17.6967 5.12933 20.7208 2.49506Z" fill="url(#paint39_radial_4403_4975)"/>
<path d="M31.263 13.333C28.2874 16.0081 23.1437 15.6539 20.3871 12.742C17.6306 9.83003 17.7045 5.09905 20.7234 2.48008C22.3043 1.10798 24.3555 0.402145 26.4459 0.510942C28.5363 0.61974 30.5032 1.53469 31.933 3.06349C31.933 3.06349 32.384 3.51187 28.4835 6.60217C28.4759 6.61236 31.2732 13.3254 31.263 13.333Z" fill="url(#paint40_radial_4403_4975)"/>
<path d="M28.3635 6.69922C27.1432 7.70044 25.6426 8.88 23.8975 10.2022C25.1939 11.6042 26.7016 12.7948 28.366 13.7307C29.7953 14.495 30.9137 14.6377 31.4614 14.1536C32.0092 13.6696 31.9429 12.5537 31.306 11.0965C30.5519 9.49105 29.5599 8.00862 28.3635 6.69922Z" fill="url(#paint41_linear_4403_4975)"/>
<path d="M28.4731 6.59766L27.8616 7.10719C28.9812 8.33787 29.9119 9.72789 30.6233 11.2318C31.2475 12.6687 31.2322 13.3897 31.0309 13.5706C30.8296 13.7514 29.9609 13.7973 28.5724 13.061C27.0344 12.1888 25.6433 11.0797 24.4503 9.77457L23.7676 10.2841L23.9281 10.4395C26.8197 13.4279 29.9482 15.1297 31.3239 14.5106C31.3647 14.4903 31.4054 14.4699 31.4436 14.447H31.4589C31.5121 14.4139 31.5624 14.3764 31.6092 14.3349C31.6588 14.29 31.704 14.2405 31.7443 14.1871C32.6436 13.0075 31.278 9.83062 28.5571 6.7174L28.4731 6.59766Z" fill="#84EEB1"/>
</g>
<path d="M40.784 14.6746C39.3049 14.6746 38.1378 14.1373 37.2827 13.0626C36.4276 11.9764 36 10.4511 36 8.48661C36 6.56838 36.4218 5.05459 37.2653 3.94526C38.1205 2.83592 39.3453 2.28125 40.94 2.28125C41.4947 2.28125 41.9916 2.36214 42.4307 2.52392C42.8698 2.67414 43.228 2.84747 43.5054 3.04392V4.72526C43.1934 4.52881 42.8236 4.34393 42.396 4.17059C41.9685 3.99726 41.5178 3.91059 41.044 3.91059C40.0271 3.91059 39.2876 4.28615 38.8253 5.03726C38.3631 5.78838 38.132 6.93816 38.132 8.48661C38.132 9.98884 38.3631 11.1271 38.8253 11.9013C39.2876 12.664 39.9925 13.0453 40.94 13.0453C41.4947 13.0453 41.9742 12.9644 42.3787 12.8026C42.7831 12.6293 43.1587 12.4155 43.5054 12.1613V13.8426C43.2396 14.0275 42.8814 14.2124 42.4307 14.3973C41.98 14.5822 41.4311 14.6746 40.784 14.6746Z" fill="black"/>
<path d="M44.8102 5.7826H51.6049V14.5013H49.5423V7.41194H46.8729V14.5013H44.8102V5.7826Z" fill="black"/>
<path d="M52.6482 12.716C52.6482 12.716 52.6886 12.7448 52.7695 12.8026C52.8504 12.8488 52.966 12.872 53.1162 12.872C53.4513 12.872 53.6709 12.6986 53.7749 12.352C53.8789 12.0053 53.9482 11.3697 53.9829 10.4453L54.1562 5.7826H60.0669V14.5013H58.0042V7.41194H55.9069L55.7855 10.5319C55.7393 11.9764 55.5602 13.028 55.2482 13.6866C54.9362 14.3453 54.3411 14.6746 53.4629 14.6746C53.2202 14.6746 53.0238 14.6457 52.8735 14.588C52.7233 14.5302 52.6482 14.5013 52.6482 14.5013V12.716Z" fill="black"/>
<path d="M61.8051 5.7826H63.8158V11.1733L67.0051 5.7826H68.7905V14.5013H66.7798V9.11061L63.5905 14.5013H61.8051V5.7826Z" fill="black"/>
<path d="M76.9186 7.41194H74.4919V14.5013H72.4293V7.41194H70.0026V5.7826H76.9186V7.41194Z" fill="black"/>
<g clip-path="url(#clip1_4403_4975)">
<path fill-rule="evenodd" clip-rule="evenodd" d="M16 0.5H0V16.5H16V0.5ZM10.7988 13.308H9.12744V5.00643H8.38154C7.01405 5.00643 6.29578 5.69707 6.29578 6.71923C6.29578 7.87952 6.79305 8.41822 7.81521 9.10887L8.6578 9.6752L6.22672 13.308H4.41722L6.59967 10.062C5.34269 9.16412 4.63823 8.29391 4.63823 6.81592C4.63823 4.96499 5.92283 3.70801 8.36772 3.70801H10.7988V13.308Z" fill="black"/>
</g>
<defs>
<radialGradient id="paint0_radial_4403_4975" cx="0" cy="0" r="1" gradientUnits="userSpaceOnUse" gradientTransform="translate(28.0548 1.40517) rotate(-2.29061) scale(36.6772 27.1417)">
<stop stop-color="#03BA50"/>
<stop offset="0.8" stop-color="#01B64E"/>
</radialGradient>
<radialGradient id="paint1_radial_4403_4975" cx="0" cy="0" r="1" gradientUnits="userSpaceOnUse" gradientTransform="translate(28.0512 1.4029) rotate(-2.29061) scale(36.6007 27.0851)">
<stop stop-color="#04BC50"/>
<stop offset="0.8" stop-color="#01B34D"/>
</radialGradient>
<radialGradient id="paint2_radial_4403_4975" cx="0" cy="0" r="1" gradientUnits="userSpaceOnUse" gradientTransform="translate(28.0427 1.40865) rotate(-2.29061) scale(36.5242 27.0285)">
<stop stop-color="#06BD51"/>
<stop offset="0.72" stop-color="#02B24C"/>
<stop offset="0.8" stop-color="#01B04B"/>
</radialGradient>
<radialGradient id="paint3_radial_4403_4975" cx="0" cy="0" r="1" gradientUnits="userSpaceOnUse" gradientTransform="translate(28.0289 1.42028) rotate(-2.29061) scale(36.4477 26.9719)">
<stop stop-color="#08BF52"/>
<stop offset="0.56" stop-color="#04B44D"/>
<stop offset="0.8" stop-color="#01AD4A"/>
</radialGradient>
<radialGradient id="paint4_radial_4403_4975" cx="0" cy="0" r="1" gradientUnits="userSpaceOnUse" gradientTransform="translate(28.0152 1.43159) rotate(-2.29061) scale(36.3712 26.9153)">
<stop stop-color="#0AC053"/>
<stop offset="0.48" stop-color="#05B54E"/>
<stop offset="0.8" stop-color="#01AA49"/>
</radialGradient>
<radialGradient id="paint5_radial_4403_4975" cx="0" cy="0" r="1" gradientUnits="userSpaceOnUse" gradientTransform="translate(27.9985 1.45925) rotate(-1.71836) scale(36.2795 26.8553)">
<stop stop-color="#0BC253"/>
<stop offset="0.42" stop-color="#07B74E"/>
<stop offset="0.8" stop-color="#01A848"/>
</radialGradient>
<radialGradient id="paint6_radial_4403_4975" cx="0" cy="0" r="1" gradientUnits="userSpaceOnUse" gradientTransform="translate(27.9773 1.46634) rotate(-1.71836) scale(36.203 26.7987)">
<stop stop-color="#0DC354"/>
<stop offset="0.37" stop-color="#08B84F"/>
<stop offset="0.8" stop-color="#01A546"/>
</radialGradient>
<radialGradient id="paint7_radial_4403_4975" cx="0" cy="0" r="1" gradientUnits="userSpaceOnUse" gradientTransform="translate(28.2472 1.47495) rotate(-1.71836) scale(36.1265 26.7313)">
<stop stop-color="#0FC555"/>
<stop offset="0.33" stop-color="#0ABA50"/>
<stop offset="0.8" stop-color="#01A245"/>
</radialGradient>
<radialGradient id="paint8_radial_4403_4975" cx="0" cy="0" r="1" gradientUnits="userSpaceOnUse" gradientTransform="translate(28.22 1.48675) rotate(-1.70136) scale(36.4103 26.6747)">
<stop stop-color="#11C656"/>
<stop offset="0.3" stop-color="#0CBB51"/>
<stop offset="0.8" stop-color="#019F44"/>
</radialGradient>
<radialGradient id="paint9_radial_4403_4975" cx="0" cy="0" r="1" gradientUnits="userSpaceOnUse" gradientTransform="translate(28.2106 1.49995) rotate(-1.70135) scale(36.333 26.6181)">
<stop stop-color="#12C856"/>
<stop offset="0.28" stop-color="#0EBD51"/>
<stop offset="0.77" stop-color="#029E44"/>
<stop offset="0.8" stop-color="#019C43"/>
</radialGradient>
<radialGradient id="paint10_radial_4403_4975" cx="0" cy="0" r="1" gradientUnits="userSpaceOnUse" gradientTransform="translate(28.2016 1.51787) rotate(-1.70135) scale(36.2532 26.5597)">
<stop stop-color="#14C957"/>
<stop offset="0.26" stop-color="#0FBE52"/>
<stop offset="0.72" stop-color="#049F44"/>
<stop offset="0.8" stop-color="#019941"/>
</radialGradient>
<radialGradient id="paint11_radial_4403_4975" cx="0" cy="0" r="1" gradientUnits="userSpaceOnUse" gradientTransform="translate(28.1856 1.53989) rotate(-1.70136) scale(36.176 26.5031)">
<stop stop-color="#16CB58"/>
<stop offset="0.24" stop-color="#11C053"/>
<stop offset="0.66" stop-color="#06A145"/>
<stop offset="0.8" stop-color="#019640"/>
</radialGradient>
<radialGradient id="paint12_radial_4403_4975" cx="0" cy="0" r="1" gradientUnits="userSpaceOnUse" gradientTransform="translate(28.1665 1.5624) rotate(-1.70135) scale(36.0988 26.4465)">
<stop stop-color="#18CC59"/>
<stop offset="0.23" stop-color="#13C154"/>
<stop offset="0.62" stop-color="#07A246"/>
<stop offset="0.8" stop-color="#01933F"/>
</radialGradient>
<radialGradient id="paint13_radial_4403_4975" cx="0" cy="0" r="1" gradientUnits="userSpaceOnUse" gradientTransform="translate(28.1474 1.59212) rotate(-1.70136) scale(36.019 26.388)">
<stop stop-color="#19CD59"/>
<stop offset="0.21" stop-color="#15C254"/>
<stop offset="0.59" stop-color="#09A347"/>
<stop offset="0.8" stop-color="#01903E"/>
</radialGradient>
<radialGradient id="paint14_radial_4403_4975" cx="0" cy="0" r="1" gradientUnits="userSpaceOnUse" gradientTransform="translate(28.1231 1.62126) rotate(-1.70135) scale(35.9418 26.3315)">
<stop stop-color="#1BCF5A"/>
<stop offset="0.2" stop-color="#17C455"/>
<stop offset="0.56" stop-color="#0BA547"/>
<stop offset="0.8" stop-color="#018D3C"/>
</radialGradient>
<radialGradient id="paint15_radial_4403_4975" cx="0" cy="0" r="1" gradientUnits="userSpaceOnUse" gradientTransform="translate(28.0961 1.51071) rotate(-1.13442) scale(35.8558 26.2743)">
<stop stop-color="#1DD05B"/>
<stop offset="0.19" stop-color="#18C556"/>
<stop offset="0.54" stop-color="#0CA648"/>
<stop offset="0.8" stop-color="#018B3B"/>
</radialGradient>
<radialGradient id="paint16_radial_4403_4975" cx="0" cy="0" r="1" gradientUnits="userSpaceOnUse" gradientTransform="translate(28.0675 1.5332) rotate(-1.13442) scale(35.7759 26.2159)">
<stop stop-color="#1ED25B"/>
<stop offset="0.18" stop-color="#1AC756"/>
<stop offset="0.51" stop-color="#0EA848"/>
<stop offset="0.8" stop-color="#01883A"/>
</radialGradient>
<radialGradient id="paint17_radial_4403_4975" cx="0" cy="0" r="1" gradientUnits="userSpaceOnUse" gradientTransform="translate(28.0382 1.55742) rotate(-1.13442) scale(35.6987 26.1593)">
<stop stop-color="#20D35C"/>
<stop offset="0.18" stop-color="#1BC857"/>
<stop offset="0.49" stop-color="#0FA949"/>
<stop offset="0.8" stop-color="#018539"/>
</radialGradient>
<radialGradient id="paint18_radial_4403_4975" cx="0" cy="0" r="1" gradientUnits="userSpaceOnUse" gradientTransform="translate(28.0035 1.58598) rotate(-1.13442) scale(35.6216 26.1027)">
<stop stop-color="#22D55D"/>
<stop offset="0.17" stop-color="#1DCA58"/>
<stop offset="0.47" stop-color="#11AB4A"/>
<stop offset="0.8" stop-color="#018237"/>
</radialGradient>
<radialGradient id="paint19_radial_4403_4975" cx="0" cy="0" r="1" gradientUnits="userSpaceOnUse" gradientTransform="translate(27.9642 1.61624) rotate(-1.13442) scale(35.5418 26.0442)">
<stop stop-color="#24D65E"/>
<stop offset="0.16" stop-color="#1FCB59"/>
<stop offset="0.45" stop-color="#13AC4B"/>
<stop offset="0.8" stop-color="#017F36"/>
</radialGradient>
<radialGradient id="paint20_radial_4403_4975" cx="0" cy="0" r="1" gradientUnits="userSpaceOnUse" gradientTransform="translate(27.9227 1.65404) rotate(-1.13442) scale(35.4646 25.9877)">
<stop stop-color="#25D85E"/>
<stop offset="0.15" stop-color="#20CD59"/>
<stop offset="0.43" stop-color="#14AE4B"/>
<stop offset="0.79" stop-color="#017D36"/>
<stop offset="0.8" stop-color="#007C35"/>
</radialGradient>
<radialGradient id="paint21_radial_4403_4975" cx="0" cy="0" r="1" gradientUnits="userSpaceOnUse" gradientTransform="translate(28.694 1.69293) rotate(-1.13442) scale(35.3874 25.9241)">
<stop stop-color="#27D95F"/>
<stop offset="0.15" stop-color="#22CE5A"/>
<stop offset="0.42" stop-color="#16AF4C"/>
<stop offset="0.77" stop-color="#027E36"/>
<stop offset="0.8" stop-color="#007934"/>
</radialGradient>
<radialGradient id="paint22_radial_4403_4975" cx="0" cy="0" r="1" gradientUnits="userSpaceOnUse" gradientTransform="translate(28.4298 1.73453) rotate(-1.1233) scale(35.657 25.8657)">
<stop stop-color="#29DB60"/>
<stop offset="0.14" stop-color="#24D05B"/>
<stop offset="0.4" stop-color="#18B14D"/>
<stop offset="0.74" stop-color="#048037"/>
<stop offset="0.8" stop-color="#007632"/>
</radialGradient>
<radialGradient id="paint23_radial_4403_4975" cx="0" cy="0" r="1" gradientUnits="userSpaceOnUse" gradientTransform="translate(28.3985 1.77905) rotate(-1.1233) scale(35.579 25.8092)">
<stop stop-color="#2BDC61"/>
<stop offset="0.14" stop-color="#26D15C"/>
<stop offset="0.39" stop-color="#1AB24E"/>
<stop offset="0.71" stop-color="#068138"/>
<stop offset="0.8" stop-color="#007331"/>
</radialGradient>
<radialGradient id="paint24_radial_4403_4975" cx="0" cy="0" r="1" gradientUnits="userSpaceOnUse" gradientTransform="translate(28.368 1.82806) rotate(-1.1233) scale(35.4985 25.7507)">
<stop stop-color="#2CDE61"/>
<stop offset="0.13" stop-color="#27D35C"/>
<stop offset="0.37" stop-color="#1BB44E"/>
<stop offset="0.69" stop-color="#088339"/>
<stop offset="0.8" stop-color="#007030"/>
</radialGradient>
<radialGradient id="paint25_radial_4403_4975" cx="0" cy="0" r="1" gradientUnits="userSpaceOnUse" gradientTransform="translate(28.3338 1.57443) rotate(-0.561705) scale(35.4154 25.6944)">
<stop stop-color="#2EDF62"/>
<stop offset="0.13" stop-color="#29D45D"/>
<stop offset="0.37" stop-color="#1DB54F"/>
<stop offset="0.67" stop-color="#098439"/>
<stop offset="0.8" stop-color="#006E2F"/>
</radialGradient>
<radialGradient id="paint26_radial_4403_4975" cx="0" cy="0" r="1" gradientUnits="userSpaceOnUse" gradientTransform="translate(28.2948 1.61597) rotate(-0.561705) scale(35.3375 25.6379)">
<stop stop-color="#30E163"/>
<stop offset="0.13" stop-color="#2BD65E"/>
<stop offset="0.35" stop-color="#1FB750"/>
<stop offset="0.65" stop-color="#0B8639"/>
<stop offset="0.8" stop-color="#006B2D"/>
</radialGradient>
<radialGradient id="paint27_radial_4403_4975" cx="0" cy="0" r="1" gradientUnits="userSpaceOnUse" gradientTransform="translate(28.2564 1.6596) rotate(-0.561706) scale(35.2568 25.5794)">
<stop stop-color="#31E263"/>
<stop offset="0.12" stop-color="#2CD75E"/>
<stop offset="0.34" stop-color="#20B850"/>
<stop offset="0.63" stop-color="#0D873A"/>
<stop offset="0.8" stop-color="#00682C"/>
</radialGradient>
<radialGradient id="paint28_radial_4403_4975" cx="0" cy="0" r="1" gradientUnits="userSpaceOnUse" gradientTransform="translate(28.2115 1.70643) rotate(-0.561705) scale(35.1789 25.5229)">
<stop stop-color="#33E364"/>
<stop offset="0.12" stop-color="#2ED85F"/>
<stop offset="0.34" stop-color="#22B951"/>
<stop offset="0.62" stop-color="#0E883B"/>
<stop offset="0.8" stop-color="#00652B"/>
</radialGradient>
<radialGradient id="paint29_radial_4403_4975" cx="0" cy="0" r="1" gradientUnits="userSpaceOnUse" gradientTransform="translate(28.1656 1.75354) rotate(-0.561705) scale(35.0984 25.4644)">
<stop stop-color="#35E565"/>
<stop offset="0.12" stop-color="#30DA60"/>
<stop offset="0.33" stop-color="#24BB52"/>
<stop offset="0.6" stop-color="#108A3C"/>
<stop offset="0.8" stop-color="#00622A"/>
</radialGradient>
<radialGradient id="paint30_radial_4403_4975" cx="0" cy="0" r="1" gradientUnits="userSpaceOnUse" gradientTransform="translate(28.1188 1.8057) rotate(-0.561705) scale(35.0204 25.4079)">
<stop stop-color="#37E666"/>
<stop offset="0.11" stop-color="#32DB61"/>
<stop offset="0.32" stop-color="#26BC53"/>
<stop offset="0.59" stop-color="#128B3C"/>
<stop offset="0.8" stop-color="#005F28"/>
</radialGradient>
<radialGradient id="paint31_radial_4403_4975" cx="0" cy="0" r="1" gradientUnits="userSpaceOnUse" gradientTransform="translate(28.0664 1.86155) rotate(-0.561705) scale(34.9398 25.3494)">
<stop stop-color="#38E866"/>
<stop offset="0.11" stop-color="#33DD61"/>
<stop offset="0.31" stop-color="#27BE53"/>
<stop offset="0.57" stop-color="#148D3D"/>
<stop offset="0.8" stop-color="#005C27"/>
</radialGradient>
<radialGradient id="paint32_radial_4403_4975" cx="0" cy="0" r="1" gradientUnits="userSpaceOnUse" gradientTransform="translate(28.0119 1.92225) rotate(-0.561706) scale(34.8619 25.2929)">
<stop stop-color="#3AE967"/>
<stop offset="0.11" stop-color="#35DE62"/>
<stop offset="0.3" stop-color="#29BF54"/>
<stop offset="0.56" stop-color="#158E3E"/>
<stop offset="0.8" stop-color="#005926"/>
</radialGradient>
<radialGradient id="paint33_radial_4403_4975" cx="0" cy="0" r="1" gradientUnits="userSpaceOnUse" gradientTransform="translate(27.9571 1.98443) rotate(-0.561705) scale(34.7839 25.2363)">
<stop stop-color="#3CEB68"/>
<stop offset="0.11" stop-color="#37E063"/>
<stop offset="0.29" stop-color="#2BC155"/>
<stop offset="0.54" stop-color="#17903F"/>
<stop offset="0.8" stop-color="#005625"/>
</radialGradient>
<radialGradient id="paint34_radial_4403_4975" cx="0" cy="0" r="1" gradientUnits="userSpaceOnUse" gradientTransform="translate(27.8944 2.05176) rotate(-0.561705) scale(34.7033 25.1778)">
<stop stop-color="#3EEC69"/>
<stop offset="0.1" stop-color="#39E164"/>
<stop offset="0.29" stop-color="#2DC256"/>
<stop offset="0.53" stop-color="#19913F"/>
<stop offset="0.8" stop-color="#005323"/>
</radialGradient>
<radialGradient id="paint35_radial_4403_4975" cx="0" cy="0" r="1" gradientUnits="userSpaceOnUse" gradientTransform="translate(27.8325 1.65776) scale(34.6237 25.1192)">
<stop stop-color="#3FEE69"/>
<stop offset="0.1" stop-color="#3AE364"/>
<stop offset="0.28" stop-color="#2EC456"/>
<stop offset="0.52" stop-color="#1A9340"/>
<stop offset="0.8" stop-color="#005122"/>
</radialGradient>
<radialGradient id="paint36_radial_4403_4975" cx="0" cy="0" r="1" gradientUnits="userSpaceOnUse" gradientTransform="translate(28.6501 1.71199) scale(34.8818 25.0607)">
<stop stop-color="#41EF6A"/>
<stop offset="0.1" stop-color="#3CE465"/>
<stop offset="0.28" stop-color="#30C557"/>
<stop offset="0.51" stop-color="#1C9441"/>
<stop offset="0.79" stop-color="#015022"/>
<stop offset="0.8" stop-color="#004E21"/>
</radialGradient>
<radialGradient id="paint37_radial_4403_4975" cx="0" cy="0" r="1" gradientUnits="userSpaceOnUse" gradientTransform="translate(28.5992 1.77299) scale(34.8057 25.0061)">
<stop stop-color="#43F16B"/>
<stop offset="0.1" stop-color="#3EE666"/>
<stop offset="0.27" stop-color="#32C758"/>
<stop offset="0.5" stop-color="#1E9642"/>
<stop offset="0.77" stop-color="#035223"/>
<stop offset="0.8" stop-color="#004B20"/>
</radialGradient>
<radialGradient id="paint38_radial_4403_4975" cx="0" cy="0" r="1" gradientUnits="userSpaceOnUse" gradientTransform="translate(28.5515 1.83428) scale(34.727 24.9495)">
<stop stop-color="#45F26C"/>
<stop offset="0.1" stop-color="#40E767"/>
<stop offset="0.27" stop-color="#34C859"/>
<stop offset="0.49" stop-color="#209742"/>
<stop offset="0.76" stop-color="#055323"/>
<stop offset="0.8" stop-color="#00481E"/>
</radialGradient>
<radialGradient id="paint39_radial_4403_4975" cx="0" cy="0" r="1" gradientUnits="userSpaceOnUse" gradientTransform="translate(28.5015 1.90406) scale(34.6457 24.891)">
<stop stop-color="#46F46C"/>
<stop offset="0.09" stop-color="#41E967"/>
<stop offset="0.26" stop-color="#35CA59"/>
<stop offset="0.48" stop-color="#229943"/>
<stop offset="0.74" stop-color="#065524"/>
<stop offset="0.8" stop-color="#00451D"/>
</radialGradient>
<radialGradient id="paint40_radial_4403_4975" cx="0" cy="0" r="1" gradientUnits="userSpaceOnUse" gradientTransform="translate(28.4536 1.97651) scale(34.5643 24.8326)">
<stop stop-color="#48F56D"/>
<stop offset="0.09" stop-color="#43EA68"/>
<stop offset="0.25" stop-color="#37CB5A"/>
<stop offset="0.47" stop-color="#239A44"/>
<stop offset="0.73" stop-color="#085625"/>
<stop offset="0.8" stop-color="#00421C"/>
</radialGradient>
<linearGradient id="paint41_linear_4403_4975" x1="29.0157" y1="19.8323" x2="26.0349" y2="-1.54242" gradientUnits="userSpaceOnUse">
<stop offset="0.1" stop-color="#FF8475"/>
<stop offset="0.37" stop-color="#E84E43"/>
<stop offset="0.6" stop-color="#D6261F"/>
<stop offset="0.79" stop-color="#CC0E08"/>
<stop offset="0.9" stop-color="#C80500"/>
</linearGradient>
<clipPath id="clip0_4403_4975">
<rect width="16" height="16" fill="white" transform="translate(18 0.5)"/>
</clipPath>
<clipPath id="clip1_4403_4975">
<rect y="0.5" width="16" height="16" rx="8" fill="white"/>
</clipPath>
</defs>
</svg>
