<svg width="106" height="30" viewBox="0 0 106 30" fill="none" xmlns="http://www.w3.org/2000/svg">
<rect width="105.5" height="30" rx="15" fill="#102938"/>
<g clip-path="url(#clip0_3025_22432)">
<path d="M39.2779 15.0424L45.6005 21.5169L45.4715 21.6344L45.4171 21.686C43.6467 23.2652 41.3269 24.0859 38.9573 23.9714C36.5877 23.8569 34.3578 22.8163 32.7479 21.0738C31.138 19.3313 30.2769 17.0262 30.35 14.6549C30.4231 12.2837 31.4245 10.036 33.1387 8.39591C34.9011 6.78309 37.2279 5.92956 39.6152 6.02022C42.0024 6.11088 44.2578 7.13844 45.8928 8.88028L39.2779 15.0424Z" fill="#01B94F"/>
<path d="M33.1442 8.39292C34.9063 6.78152 37.2323 5.92911 39.6184 6.0203C42.0044 6.1115 44.2586 7.13895 45.8926 8.88016C45.8926 8.88016 40.6333 13.8041 40.5272 13.8901C40.5272 13.8901 39.3493 14.9993 39.3579 15.0165C39.3665 15.0337 45.5888 21.491 45.5888 21.491L45.4626 21.6114L45.4082 21.663C41.6937 24.9303 36.0017 24.7813 32.6397 21.1471C31.0252 19.3841 30.1724 17.0548 30.2669 14.6662C30.3613 12.2775 31.3955 10.0229 33.1442 8.39292Z" fill="url(#paint0_radial_3025_22432)"/>
<path d="M33.148 8.38796C34.9115 6.77868 37.2376 5.92821 39.6232 6.02046C42.0089 6.11272 44.2624 7.14027 45.8964 8.88093C45.8964 8.88093 40.7775 13.696 40.5683 13.8651C40.5683 13.8651 39.4218 14.9599 39.4419 14.9943C39.4849 15.0975 45.5811 21.4631 45.5811 21.4631L45.455 21.5835L45.4005 21.6351C41.6947 24.8967 35.9997 24.7362 32.6493 21.1135C31.0372 19.3554 30.185 17.0315 30.2784 14.648C30.3718 12.2645 31.4032 10.0145 33.148 8.38796Z" fill="url(#paint1_radial_3025_22432)"/>
<path d="M33.1519 8.38578C34.9155 6.77861 37.2405 5.92973 39.6248 6.0225C42.0091 6.11528 44.2611 7.14226 45.8945 8.88161C45.8945 8.88161 40.9219 13.5849 40.6009 13.84C40.6009 13.84 39.4945 14.9176 39.5146 14.9692C39.5805 15.124 45.5678 21.438 45.5678 21.438L45.4388 21.5584L45.3844 21.6071C41.69 24.8601 35.9979 24.6939 32.6532 21.0797C31.0437 19.3266 30.1928 17.0081 30.2863 14.63C30.3797 12.2519 31.4098 10.0073 33.1519 8.38578Z" fill="url(#paint2_radial_3025_22432)"/>
<path d="M33.1554 8.38305C34.9193 6.77712 37.2439 5.92928 39.6275 6.02259C42.0111 6.11589 44.2623 7.14286 45.8952 8.88175C45.8952 8.88175 41.0659 13.4675 40.6388 13.8143C40.6388 13.8143 39.5669 14.8776 39.5955 14.9464C39.6815 15.1528 45.557 21.4124 45.557 21.4124L45.4309 21.5299C45.4309 21.5299 45.3765 21.5786 45.3765 21.5815C41.6907 24.823 35.9986 24.6453 32.6624 21.0455C31.0555 19.2977 30.2055 16.9851 30.2978 14.6126C30.3902 12.2402 31.4175 10.0007 33.1554 8.38305Z" fill="url(#paint3_radial_3025_22432)"/>
<path d="M33.1608 8.3776C34.925 6.77414 37.2489 5.92839 39.6311 6.02275C42.0133 6.11712 44.2629 7.14404 45.8948 8.88203C45.8948 8.88203 41.2116 13.3646 40.6757 13.7888C40.6757 13.7888 39.6382 14.8349 39.6725 14.9209C39.7815 15.1789 45.548 21.384 45.5452 21.3868L45.4191 21.5043L45.3646 21.5559C41.6874 24.7832 35.9982 24.6026 32.6707 21.0114C31.0665 19.268 30.2176 16.9606 30.3095 14.5934C30.4013 12.2261 31.4264 9.99141 33.1608 8.3776Z" fill="url(#paint4_radial_3025_22432)"/>
<path d="M33.1639 8.37292C34.9284 6.7707 37.2518 5.92599 39.6334 6.02088C42.0149 6.11578 44.2637 7.14268 45.8951 8.88022C45.8951 8.88022 41.3552 13.2539 40.7132 13.7526C40.7132 13.7526 39.7101 14.7815 39.7531 14.8847C39.8821 15.1942 45.5369 21.3449 45.5369 21.3449L45.4108 21.4911L45.3563 21.5398C41.6848 24.7441 35.9985 24.5578 32.6767 20.9752C31.0755 19.2368 30.2279 16.9351 30.3192 14.5735C30.4105 12.2118 31.4333 9.98246 33.1639 8.37292Z" fill="url(#paint5_radial_3025_22432)"/>
<path d="M33.1702 8.3702C34.9349 6.76921 37.2579 5.92554 39.6388 6.02097C42.0196 6.11639 44.2676 7.14327 45.8985 8.88036C45.8985 8.88036 41.502 13.1451 40.7539 13.7527C40.7539 13.7527 39.7823 14.7645 39.831 14.8848C39.9944 15.2316 45.5288 21.3307 45.526 21.3307L45.3998 21.4482L45.3454 21.4998C41.6854 24.707 35.999 24.5121 32.6858 20.9409C31.0869 19.2079 30.24 16.9117 30.3308 14.5555C30.4216 12.1992 31.4426 9.97506 33.1702 8.3702Z" fill="url(#paint6_radial_3025_22432)"/>
<path d="M33.1727 8.36616C34.938 6.76677 37.2608 5.92464 39.6409 6.02114C42.0211 6.11763 44.2681 7.14502 45.8981 8.88205C45.8981 8.88205 41.6449 13.035 40.7908 13.7143C40.7908 13.7143 39.8535 14.7117 39.9109 14.8607C40.0828 15.2735 45.517 21.3181 45.5141 21.3181C45.5112 21.3181 45.3966 21.4298 45.388 21.4356L45.3335 21.4843C41.6821 24.6714 35.9958 24.4708 32.6912 20.9197C31.0907 19.1909 30.2424 16.8973 30.3327 14.5432C30.423 12.1891 31.4445 9.96724 33.1727 8.36616Z" fill="url(#paint7_radial_3025_22432)"/>
<path d="M33.1787 8.36203C34.944 6.76475 37.2658 5.92421 39.6446 6.02123C42.0233 6.11824 44.269 7.14506 45.8984 8.8808C45.8984 8.8808 41.7913 12.9249 40.8283 13.6872C40.8283 13.6872 39.9255 14.6675 39.9914 14.8337C40.1834 15.298 45.5058 21.2881 45.5058 21.291L45.3796 21.4085L45.3252 21.4572C41.6824 24.6443 35.996 24.4351 32.7144 20.884C31.1158 19.1618 30.2667 16.8751 30.3537 14.5269C30.4408 12.1787 31.4569 9.96119 33.1787 8.36203Z" fill="url(#paint8_radial_3025_22432)"/>
<path d="M33.1818 8.35932C34.9474 6.76327 37.2688 5.92377 39.6469 6.02131C42.0249 6.11886 44.2698 7.14566 45.8987 8.88095C45.8987 8.88095 41.9349 12.8132 40.8544 13.6616C40.8544 13.6616 39.9945 14.6275 40.0576 14.808C40.2812 15.3153 45.4975 21.251 45.4946 21.2539L45.3685 21.3685C45.3685 21.3685 45.3198 21.4144 45.314 21.4201C41.6798 24.5958 35.9963 24.378 32.7032 20.8469C31.9146 19.9956 31.3015 18.9972 30.8988 17.9089C30.496 16.8206 30.3116 15.6636 30.3561 14.504C30.4005 13.3444 30.673 12.2049 31.1578 11.1506C31.6426 10.0963 32.3304 9.14781 33.1818 8.35932Z" fill="url(#paint9_radial_3025_22432)"/>
<path d="M33.1867 8.35389C34.9527 6.7603 37.2733 5.92288 39.65 6.02149C42.0267 6.12009 44.2699 7.14686 45.8979 8.88125C45.8979 8.88125 42.0802 12.7046 40.9022 13.6361C40.9022 13.6361 40.0682 14.5877 40.1485 14.7826C40.3835 15.3558 45.4851 21.2341 45.4851 21.237L45.359 21.3517L45.3046 21.4004C41.6761 24.5588 35.9955 24.3353 32.7138 20.8071C31.1254 19.0928 30.2829 16.8179 30.3716 14.4826C30.4603 12.1472 31.4729 9.94274 33.1867 8.35389Z" fill="url(#paint10_radial_3025_22432)"/>
<path d="M33.1892 8.35143C34.9559 6.7589 37.2766 5.92245 39.653 6.02158C42.0295 6.12071 44.2724 7.14753 45.9004 8.88166C45.9004 8.88166 42.2232 12.6076 40.9392 13.6136C40.9392 13.6136 40.1424 14.5451 40.2255 14.76C40.4835 15.3705 45.4762 21.2059 45.4733 21.2059L45.3472 21.3234L45.2928 21.3721C41.6757 24.5248 35.9951 24.2955 32.7221 20.7788C31.936 19.9326 31.3244 18.9396 30.9224 17.8568C30.5204 16.774 30.3359 15.6225 30.3792 14.4683C30.4226 13.3141 30.6932 12.1797 31.1753 11.1301C31.6575 10.0805 32.3418 9.1363 33.1892 8.35143Z" fill="url(#paint11_radial_3025_22432)"/>
<path d="M33.1955 8.34732C34.9622 6.7569 37.2818 5.92202 39.6569 6.02167C42.032 6.12132 44.2735 7.14758 45.9009 8.88041C45.9009 8.88041 42.3698 12.4831 40.9769 13.5866C40.9769 13.5866 40.2145 14.5037 40.3063 14.733C40.5929 15.4037 45.4652 21.1789 45.4652 21.1817L45.3391 21.2992C45.3391 21.2992 45.2904 21.3422 45.2875 21.348C41.6763 24.5007 35.9985 24.2513 32.7311 20.7461C29.4638 17.2408 29.6272 11.5831 33.1955 8.34732Z" fill="url(#paint12_radial_3025_22432)"/>
<path d="M33.1995 8.34134C34.9668 6.75252 37.2862 5.91917 39.6606 6.01989C42.035 6.12061 44.2755 7.14738 45.902 8.88017C45.902 8.88017 42.5143 12.3682 41.0296 13.5548C41.0296 13.5548 40.2988 14.4547 40.3991 14.7012C40.7 15.4235 45.4664 21.1442 45.4664 21.1471L45.3403 21.2617L45.2858 21.3104C41.6716 24.4431 35.9824 24.1995 32.738 20.7028C29.4936 17.2062 29.6398 11.5686 33.1995 8.34134Z" fill="url(#paint13_radial_3025_22432)"/>
<path d="M33.2049 8.33919C34.9724 6.75247 37.2907 5.9207 39.6638 6.02194C42.0368 6.12318 44.2759 7.14939 45.9018 8.88088C45.9018 8.88088 42.6602 12.2629 41.0552 13.5354C41.0552 13.5354 40.3587 14.4211 40.4648 14.6819C40.7886 15.4528 45.4403 21.1191 45.4403 21.122L45.3142 21.2366L45.2598 21.2854C41.6714 24.4065 35.9822 24.1543 32.7435 20.6692C29.5048 17.184 29.651 11.555 33.2049 8.33919Z" fill="url(#paint14_radial_3025_22432)"/>
<path d="M33.2062 8.33648C34.9739 6.75099 37.2918 5.92026 39.6642 6.02203C42.0365 6.1238 44.2748 7.14999 45.9002 8.88104C45.9002 8.88104 42.8019 12.1541 41.0909 13.5098C41.0909 13.5098 40.4288 14.3696 40.5435 14.6562C40.8874 15.4731 45.4388 21.0935 45.4388 21.0964L45.3155 21.211L45.2611 21.2597C41.667 24.358 35.9806 24.1115 32.7505 20.632C29.5204 17.1526 29.658 11.5436 33.2062 8.33648Z" fill="url(#paint15_radial_3025_22432)"/>
<path d="M33.2129 8.3302C34.9817 6.74768 37.2992 5.9194 39.6704 6.02222C42.0416 6.12503 44.2787 7.1508 45.9039 8.88049C45.9039 8.88049 42.949 12.0332 41.1405 13.4834C41.1405 13.4834 40.5128 14.3433 40.6332 14.6299C40.9886 15.5069 45.4396 21.0643 45.4224 21.0672L45.2963 21.1818C45.2796 21.1995 45.2613 21.2158 45.2419 21.2305C41.6679 24.3316 35.9815 24.0708 32.76 20.6C29.5385 17.1291 29.6761 11.5288 33.2129 8.3302Z" fill="url(#paint16_radial_3025_22432)"/>
<path d="M33.216 8.32844C34.987 6.74829 37.3058 5.92364 39.6769 6.03075C42.0479 6.13787 44.2829 7.16826 45.9042 8.90166C45.9042 8.90166 43.0926 11.934 41.1666 13.4674C41.1666 13.4674 40.5733 14.3043 40.7022 14.6138C41.0892 15.5453 45.4141 21.0511 45.4112 21.0539C45.4084 21.0568 45.3052 21.1542 45.2851 21.1686L45.2335 21.2173C41.6653 24.2955 35.9818 24.0203 32.766 20.5667C29.5503 17.113 29.6764 11.5155 33.216 8.32844Z" fill="url(#paint17_radial_3025_22432)"/>
<path d="M33.2217 8.32483C34.9921 6.74574 37.3098 5.92169 39.6797 6.02881C42.0495 6.13592 44.2835 7.16569 45.9042 8.89805C45.9042 8.89805 43.2387 11.8301 41.2038 13.4437C41.2038 13.4437 40.6449 14.2634 40.7796 14.5901C41.1895 15.5732 45.4055 21.0245 45.3998 21.0274L45.2765 21.142L45.2221 21.1908C41.6624 24.2575 35.9818 23.9766 32.7746 20.5315C29.5674 17.0865 29.6907 11.5005 33.2217 8.32483Z" fill="url(#paint18_radial_3025_22432)"/>
<path d="M33.2246 8.30863C34.9951 6.7311 37.3121 5.90805 39.6811 6.01514C42.05 6.12224 44.2833 7.151 45.9042 8.88185C45.9042 8.88185 43.3821 11.705 41.244 13.4017C41.244 13.4017 40.7166 14.2042 40.8599 14.5481C41.2898 15.5828 45.3941 20.9825 45.3912 20.9854L45.2651 21.1L45.2107 21.1459C41.6624 24.2212 35.9818 23.9318 32.7804 20.501C29.5789 17.0703 29.7022 11.4871 33.2246 8.30863Z" fill="url(#paint19_radial_3025_22432)"/>
<path d="M33.2304 8.30698C35.0003 6.73049 37.3162 5.90806 39.684 6.01515C42.0518 6.12224 44.284 7.15038 45.9043 8.8802C44.4794 10.4959 42.934 12.0011 41.2813 13.3828C41.2813 13.3828 40.7883 14.171 40.9403 14.5293C41.3902 15.6155 45.3827 20.958 45.3798 20.9637L45.2566 21.0755L45.2021 21.1242C41.6596 24.1823 35.9819 23.8871 32.7891 20.465C29.5962 17.0429 29.7109 11.4597 33.2304 8.30698Z" fill="url(#paint20_radial_3025_22432)"/>
<path d="M33.2334 8.3078C35.0036 6.732 37.3193 5.91002 39.6869 6.0171C42.0544 6.12418 44.2865 7.15185 45.9073 8.88102C44.5023 10.4923 42.9687 11.9866 41.3215 13.3493C41.3215 13.3493 40.8658 14.1203 41.0349 14.4957C41.5078 15.6422 45.3914 20.9244 45.3856 20.9272L45.2624 21.0419L45.2079 21.0906C41.6597 24.143 35.982 23.8421 32.7949 20.4314C29.6077 17.0207 29.7224 11.4605 33.2334 8.3078Z" fill="url(#paint21_radial_3025_22432)"/>
<path d="M33.2392 8.3078C35.0094 6.73442 37.3238 5.91396 39.6897 6.02102C42.0557 6.12808 44.2865 7.1542 45.9074 8.88102C44.5245 10.4934 43.0014 11.9801 41.356 13.3235C41.356 13.3235 40.9347 14.0801 41.098 14.4699C41.591 15.6708 45.3628 20.9187 45.3599 20.9187C45.3571 20.9187 45.2596 21.0132 45.2338 21.0333L45.1822 21.0792C41.6569 24.1058 35.982 23.7848 32.8035 20.397C29.625 17.0093 29.7311 11.4605 33.2392 8.3078Z" fill="url(#paint22_radial_3025_22432)"/>
<path d="M33.2414 8.30836C35.0115 6.73585 37.3252 5.91593 39.6905 6.02298C42.0557 6.13003 44.2859 7.15561 45.9067 8.88159C44.5462 10.4969 43.0347 11.9787 41.3926 13.3068C41.3926 13.3068 41.0057 14.0463 41.1748 14.4533C41.6936 15.6943 45.3536 20.8791 45.3478 20.882L45.2246 20.9937L45.1701 21.0425C41.6534 24.0719 35.9814 23.7538 32.8115 20.3632C29.6416 16.9726 29.7419 11.4324 33.2414 8.30836Z" fill="url(#paint23_radial_3025_22432)"/>
<path d="M33.2436 8.30698C35.0135 6.73533 37.3266 5.91594 39.6912 6.02298C42.0558 6.13002 44.2854 7.15506 45.906 8.8802C44.5688 10.4984 43.0675 11.9737 41.4263 13.2825C41.4263 13.2825 41.0738 14.0048 41.2515 14.429C41.7903 15.7216 45.3385 20.849 45.3357 20.8548L45.2096 20.9665L45.1551 21.0153C41.6527 24.0304 35.9807 23.7065 32.828 20.3274C29.6753 16.9483 29.7527 11.4167 33.2436 8.30698Z" fill="url(#paint24_radial_3025_22432)"/>
<path d="M33.2495 8.30811C35.0191 6.73819 37.331 5.91987 39.6941 6.0269C42.0573 6.13393 44.2858 7.15788 45.9062 8.88133C44.594 10.5 43.106 11.9679 41.4695 13.2579C41.4695 13.2579 41.1485 13.9658 41.3348 14.4043C41.908 15.7485 45.3473 20.8244 45.3273 20.8301L45.204 20.9419L45.1496 20.9877C41.65 23.9943 35.9809 23.6618 32.8282 20.2941C29.6755 16.9265 29.7615 11.4035 33.2495 8.30811Z" fill="url(#paint25_radial_3025_22432)"/>
<path d="M33.2538 8.30755C35.0235 6.73919 37.3346 5.92184 39.6969 6.02886C42.0592 6.13587 44.2869 7.15882 45.9076 8.88077C44.6218 10.503 43.1446 11.9638 41.5082 13.2315C41.5082 13.2315 41.2215 13.9222 41.4136 14.378C41.9868 15.7737 45.3229 20.7952 45.3172 20.798C45.3115 20.8009 45.2226 20.8869 45.194 20.9098L45.1395 20.9585C41.6515 23.9565 35.9823 23.6183 32.8296 20.2592C29.6769 16.9001 29.7743 11.3886 33.2538 8.30755Z" fill="url(#paint26_radial_3025_22432)"/>
<path d="M33.2597 8.29055C35.0315 6.72521 37.3432 5.9114 39.7048 6.02162C42.0665 6.13183 44.2924 7.15742 45.9106 8.88096C45.9106 8.88096 44.5407 10.8299 41.5456 13.2059C41.5456 13.2059 41.2934 13.8823 41.494 14.3523C42.0959 15.7854 45.3116 20.7695 45.3088 20.7724L45.1827 20.8842L45.1311 20.9329C41.6488 23.9194 35.9825 23.5726 32.8298 20.225C29.6771 16.8774 29.7831 11.3745 33.2597 8.29055Z" fill="url(#paint27_radial_3025_22432)"/>
<path d="M33.2612 8.28544C35.0338 6.72238 37.3452 5.91055 39.706 6.02182C42.0667 6.13309 44.2915 7.15873 45.9093 8.88159C45.9093 8.88159 44.6855 10.7102 41.5815 13.1807C41.4658 13.5541 41.4658 13.9538 41.5815 14.3272C42.2063 15.8262 45.3074 20.7387 45.3074 20.7444L45.1842 20.8562L45.1297 20.902C41.6445 23.8828 35.9811 23.5302 32.8485 20.1941C29.7158 16.858 29.7932 11.3636 33.2612 8.28544Z" fill="url(#paint28_radial_3025_22432)"/>
<path d="M33.2667 8.28167C35.0387 6.71933 37.3494 5.90815 39.7092 6.01996C42.069 6.13177 44.2926 7.15779 45.909 8.88068C45.909 8.88068 44.8285 10.6003 41.6099 13.1426C41.5086 13.5197 41.5196 13.9181 41.6414 14.289C42.2863 15.8596 45.2899 20.7205 45.2842 20.7263L45.161 20.8381L45.1094 20.8839C41.6443 23.8446 35.9809 23.4978 32.8539 20.1588C29.727 16.8198 29.8044 11.3484 33.2667 8.28167Z" fill="url(#paint29_radial_3025_22432)"/>
<path d="M33.2713 8.27899C35.0436 6.71787 37.3538 5.90773 39.7129 6.02007C42.0721 6.1324 44.2949 7.15841 45.9108 8.88087C45.9108 8.88087 44.9764 10.5002 41.6575 13.1313C41.5777 13.5129 41.6024 13.909 41.7292 14.2777C42.397 15.8799 45.2831 20.6863 45.2774 20.6921L45.1541 20.801L45.0997 20.8497C41.6432 23.8075 35.9826 23.4378 32.8643 20.1246C29.6973 16.7655 29.8148 11.3342 33.2713 8.27899Z" fill="url(#paint30_radial_3025_22432)"/>
<path d="M33.2757 8.27447C35.0487 6.71648 37.358 5.90884 39.7155 6.02223C42.073 6.13561 44.2942 7.16114 45.9095 8.88208C45.9095 8.88208 45.1184 10.3811 41.6934 13.0952C41.6343 13.4809 41.6738 13.8753 41.8081 14.2417C42.4959 15.8954 45.2703 20.6503 45.2646 20.6532L45.1413 20.7649L45.0869 20.8108C41.6476 23.7485 35.987 23.3903 32.8687 20.0713C29.7504 16.7524 29.8249 11.3211 33.2757 8.27447Z" fill="url(#paint31_radial_3025_22432)"/>
<path d="M33.279 8.2701C35.0527 6.71316 37.362 5.90647 39.7194 6.02038C42.0767 6.13429 44.2975 7.15988 45.9128 8.88058C45.9128 8.88058 45.265 10.2678 41.734 13.068C41.6953 13.4569 41.7483 13.8496 41.8888 14.2144C42.5967 15.9427 45.2593 20.6316 45.2536 20.6459L45.1303 20.7577L45.0787 20.8036C41.6394 23.7299 35.9817 23.3487 32.8778 20.0584C29.7251 16.7165 29.8368 11.3053 33.279 8.2701Z" fill="url(#paint32_radial_3025_22432)"/>
<path d="M33.2844 8.26717C35.0578 6.71163 37.3663 5.90604 39.7224 6.02048C42.0786 6.13492 44.2981 7.16043 45.9124 8.88051C45.9124 8.88051 45.408 10.1703 41.7709 13.0536C41.7547 13.4451 41.8211 13.8358 41.9658 14.2C42.6967 15.9684 45.2504 20.6143 45.2446 20.6315L45.1214 20.7404L45.0669 20.7863C41.6362 23.6925 35.9814 23.3056 32.8832 20.021C29.739 16.6906 29.8451 11.2909 33.2844 8.26717Z" fill="url(#paint33_radial_3025_22432)"/>
<path d="M33.2878 8.26209C35.062 6.70881 37.3702 5.9052 39.7254 6.02069C42.0807 6.13618 44.2991 7.16175 45.9129 8.88116C45.9129 8.88116 45.5547 10.0591 41.8087 13.0284C41.8149 13.4268 41.8955 13.8205 42.0466 14.1892C42.8004 15.9977 45.2394 20.5892 45.2337 20.5949L45.1104 20.7038L45.0588 20.7497C41.6367 23.6559 35.9819 23.2604 32.8922 19.9873C29.7539 16.6684 29.857 11.2772 33.2878 8.26209Z" fill="url(#paint34_radial_3025_22432)"/>
<path d="M33.2928 8.25852C35.068 6.71135 37.3741 5.91287 39.726 6.03099C42.0779 6.14912 44.2923 7.17466 45.9036 8.89193C45.9036 8.89193 45.6886 9.94952 41.8366 13.0019C41.8699 13.4016 41.9666 13.7934 42.1232 14.1627C42.8999 16.0256 45.2301 20.5627 45.2243 20.5684L45.1011 20.6773C45.0817 20.691 45.0635 20.7064 45.0466 20.7232C41.6331 23.6179 35.9812 23.211 32.9001 19.9522C29.7675 16.6419 29.8649 11.2651 33.2928 8.25852Z" fill="url(#paint35_radial_3025_22432)"/>
<path d="M33.2965 8.25639C35.0718 6.7089 37.3783 5.91047 39.7304 6.02914C42.0825 6.14782 44.2968 7.17434 45.9074 8.89266C45.9074 8.89266 45.8386 9.84134 41.8776 12.9769C41.9339 13.377 42.0418 13.7681 42.1986 14.1405C43.0011 16.0465 45.2195 20.5348 45.2138 20.5405L45.0905 20.6494C45.0733 20.6494 45.0533 20.6838 45.0361 20.6953C41.6312 23.5814 35.9821 23.1716 32.9067 19.9186C29.7827 16.6197 29.8773 11.2515 33.2965 8.25639Z" fill="url(#paint36_radial_3025_22432)"/>
<path d="M33.3016 8.24964C35.0783 6.70423 37.3848 5.90768 39.7365 6.0274C42.0882 6.14713 44.3019 7.1738 45.9124 8.89165C45.9124 8.89165 45.987 9.74001 41.92 12.9529C42.0032 13.3511 42.1261 13.74 42.2868 14.1137C43.1037 16.0798 45.2131 20.5079 45.2045 20.5137C45.1959 20.5194 45.1214 20.5911 45.0813 20.6226L45.0297 20.6685C41.6334 23.5489 35.9814 23.1247 32.9147 19.8831C29.7935 16.5929 29.8881 11.2361 33.3016 8.24964Z" fill="url(#paint37_radial_3025_22432)"/>
<path d="M33.3044 8.24818C35.0815 6.7028 37.3886 5.90681 39.7406 6.02761C42.0925 6.14842 44.3059 7.1766 45.9153 8.89592C45.9153 8.89592 46.1331 9.62104 41.9601 12.9285C42.0672 13.3251 42.2013 13.7139 42.3613 14.0922C43.2011 16.0984 45.1988 20.4836 45.193 20.4893L45.0698 20.5982L45.0153 20.6441C41.6305 23.4987 35.9814 23.0803 32.9204 19.853C29.8078 16.5685 29.8967 11.2232 33.3044 8.24818Z" fill="url(#paint38_radial_3025_22432)"/>
<path d="M33.3104 8.24494C35.0878 6.69992 37.3951 5.90443 39.7471 6.02576C42.099 6.1471 44.3122 7.17582 45.9212 8.89554C45.9212 8.89554 46.2766 9.50889 42.0004 12.8937C42.0004 12.8937 42.158 13.3753 42.4446 14.0574C43.3045 16.1267 45.1904 20.4488 45.1846 20.4545L45.0614 20.5634L45.0098 20.6064C41.6278 23.4697 35.9816 23.0369 32.9292 19.8182C29.8223 16.5423 29.9083 11.2085 33.3104 8.24494Z" fill="url(#paint39_radial_3025_22432)"/>
<path d="M45.1694 20.4372C41.8218 23.4466 36.0352 23.0482 32.934 19.7722C29.8329 16.4963 29.916 11.1739 33.3124 8.22759C35.0908 6.68397 37.3984 5.88991 39.7502 6.01231C42.1019 6.13471 44.3146 7.16403 45.9232 8.88392C45.9232 8.88392 46.4305 9.38836 42.0425 12.8649C42.0339 12.8764 45.1809 20.4286 45.1694 20.4372Z" fill="url(#paint40_radial_3025_22432)"/>
<path d="M41.909 12.9727C40.5362 14.099 38.848 15.426 36.8848 16.9135C38.3432 18.4908 40.0395 19.8301 41.9119 20.8831C43.5198 21.7429 44.778 21.9034 45.3942 21.3589C46.0104 20.8143 45.9359 19.559 45.2194 17.9195C44.371 16.1135 43.255 14.4457 41.909 12.9727Z" fill="url(#paint41_linear_3025_22432)"/>
<path d="M42.032 12.8613L41.3441 13.4345C42.6036 14.8191 43.6506 16.3828 44.451 18.0748C45.1532 19.6912 45.136 20.5024 44.9095 20.7058C44.6831 20.9093 43.7058 20.9609 42.1437 20.1326C40.4134 19.1513 38.8485 17.9036 37.5064 16.4354L36.7383 17.0086L36.9188 17.1834C40.1719 20.5453 43.6914 22.4599 45.2391 21.7634C45.285 21.7405 45.3308 21.7176 45.3738 21.6918H45.391C45.4509 21.6546 45.5075 21.6125 45.5601 21.5657C45.6159 21.5152 45.6668 21.4595 45.712 21.3994C46.7238 20.0724 45.1875 16.4984 42.1265 12.996L42.032 12.8613Z" fill="#84EEB1"/>
</g>
<path d="M55.882 21.9445C54.218 21.9445 52.905 21.34 51.943 20.131C50.981 18.909 50.5 17.193 50.5 14.983C50.5 12.825 50.9745 11.122 51.9235 9.87396C52.8855 8.62596 54.2635 8.00195 56.0575 8.00195C56.6815 8.00195 57.2405 8.09295 57.7345 8.27495C58.2285 8.44396 58.6315 8.63896 58.9435 8.85996V10.7515C58.5925 10.5305 58.1765 10.3225 57.6955 10.1275C57.2145 9.93246 56.7075 9.83496 56.1745 9.83496C55.0305 9.83496 54.1985 10.2575 53.6785 11.1025C53.1585 11.9475 52.8985 13.241 52.8985 14.983C52.8985 16.673 53.1585 17.9535 53.6785 18.8245C54.1985 19.6825 54.9915 20.1115 56.0575 20.1115C56.6815 20.1115 57.221 20.0205 57.676 19.8385C58.131 19.6435 58.5535 19.403 58.9435 19.117V21.0085C58.6445 21.2165 58.2415 21.4245 57.7345 21.6325C57.2275 21.8405 56.61 21.9445 55.882 21.9445Z" fill="white"/>
<path d="M60.4115 11.941H68.0556V21.7495H65.7351V13.774H62.732V21.7495H60.4115V11.941Z" fill="white"/>
<path d="M69.2292 19.741C69.2292 19.741 69.2747 19.7735 69.3657 19.8385C69.4567 19.8905 69.5867 19.9165 69.7557 19.9165C70.1327 19.9165 70.3797 19.7215 70.4967 19.3315C70.6137 18.9415 70.6917 18.2265 70.7307 17.1865L70.9257 11.941H77.5753V21.7495H75.2547V13.774H72.8952L72.7587 17.284C72.7067 18.909 72.5052 20.092 72.1542 20.833C71.8032 21.574 71.1337 21.9445 70.1457 21.9445C69.8727 21.9445 69.6517 21.912 69.4827 21.847C69.3137 21.782 69.2292 21.7495 69.2292 21.7495V19.741Z" fill="white"/>
<path d="M79.5308 11.941H81.7928V18.0055L85.3808 11.941H87.3893V21.7495H85.1273V15.685L81.5393 21.7495H79.5308V11.941Z" fill="white"/>
<path d="M96.5335 13.774H93.8034V21.7495H91.4829V13.774H88.7529V11.941H96.5335V13.774Z" fill="white"/>
<g clip-path="url(#clip1_3025_22432)">
<path fill-rule="evenodd" clip-rule="evenodd" d="M28 6H10V24H28V6ZM22.1487 20.409H20.2684V11.0697H19.4292C17.8908 11.0697 17.0828 11.8467 17.0828 12.9966C17.0828 14.302 17.6422 14.908 18.7921 15.685L19.74 16.3221L17.0051 20.409H14.9694L17.4246 16.7572C16.0105 15.7471 15.218 14.7681 15.218 13.1054C15.218 11.0231 16.6632 9.60901 19.4137 9.60901H22.1487V20.409Z" fill="white"/>
</g>
<defs>
<radialGradient id="paint0_radial_3025_22432" cx="0" cy="0" r="1" gradientUnits="userSpaceOnUse" gradientTransform="translate(41.5615 7.0188) rotate(-2.29061) scale(41.2618 30.5344)">
<stop stop-color="#03BA50"/>
<stop offset="0.8" stop-color="#01B64E"/>
</radialGradient>
<radialGradient id="paint1_radial_3025_22432" cx="0" cy="0" r="1" gradientUnits="userSpaceOnUse" gradientTransform="translate(41.5582 7.01625) rotate(-2.29061) scale(41.1757 30.4707)">
<stop stop-color="#04BC50"/>
<stop offset="0.8" stop-color="#01B34D"/>
</radialGradient>
<radialGradient id="paint2_radial_3025_22432" cx="0" cy="0" r="1" gradientUnits="userSpaceOnUse" gradientTransform="translate(41.5466 7.02467) rotate(-2.29061) scale(41.0897 30.4071)">
<stop stop-color="#06BD51"/>
<stop offset="0.72" stop-color="#02B24C"/>
<stop offset="0.8" stop-color="#01B04B"/>
</radialGradient>
<radialGradient id="paint3_radial_3025_22432" cx="0" cy="0" r="1" gradientUnits="userSpaceOnUse" gradientTransform="translate(41.5318 7.03776) rotate(-2.29061) scale(41.0037 30.3434)">
<stop stop-color="#08BF52"/>
<stop offset="0.56" stop-color="#04B44D"/>
<stop offset="0.8" stop-color="#01AD4A"/>
</radialGradient>
<radialGradient id="paint4_radial_3025_22432" cx="0" cy="0" r="1" gradientUnits="userSpaceOnUse" gradientTransform="translate(41.516 7.05048) rotate(-2.29061) scale(40.9176 30.2797)">
<stop stop-color="#0AC053"/>
<stop offset="0.48" stop-color="#05B54E"/>
<stop offset="0.8" stop-color="#01AA49"/>
</radialGradient>
<radialGradient id="paint5_radial_3025_22432" cx="0" cy="0" r="1" gradientUnits="userSpaceOnUse" gradientTransform="translate(41.4982 7.07965) rotate(-1.71836) scale(40.8144 30.2122)">
<stop stop-color="#0BC253"/>
<stop offset="0.42" stop-color="#07B74E"/>
<stop offset="0.8" stop-color="#01A848"/>
</radialGradient>
<radialGradient id="paint6_radial_3025_22432" cx="0" cy="0" r="1" gradientUnits="userSpaceOnUse" gradientTransform="translate(41.475 7.08762) rotate(-1.71836) scale(40.7284 30.1485)">
<stop stop-color="#0DC354"/>
<stop offset="0.37" stop-color="#08B84F"/>
<stop offset="0.8" stop-color="#01A546"/>
</radialGradient>
<radialGradient id="paint7_radial_3025_22432" cx="0" cy="0" r="1" gradientUnits="userSpaceOnUse" gradientTransform="translate(41.7773 7.09731) rotate(-1.71836) scale(40.6423 30.0727)">
<stop stop-color="#0FC555"/>
<stop offset="0.33" stop-color="#0ABA50"/>
<stop offset="0.8" stop-color="#01A245"/>
</radialGradient>
<radialGradient id="paint8_radial_3025_22432" cx="0" cy="0" r="1" gradientUnits="userSpaceOnUse" gradientTransform="translate(41.7474 7.11058) rotate(-1.70136) scale(40.9615 30.0091)">
<stop stop-color="#11C656"/>
<stop offset="0.3" stop-color="#0CBB51"/>
<stop offset="0.8" stop-color="#019F44"/>
</radialGradient>
<radialGradient id="paint9_radial_3025_22432" cx="0" cy="0" r="1" gradientUnits="userSpaceOnUse" gradientTransform="translate(41.7376 7.12543) rotate(-1.70135) scale(40.8747 29.9454)">
<stop stop-color="#12C856"/>
<stop offset="0.28" stop-color="#0EBD51"/>
<stop offset="0.77" stop-color="#029E44"/>
<stop offset="0.8" stop-color="#019C43"/>
</radialGradient>
<radialGradient id="paint10_radial_3025_22432" cx="0" cy="0" r="1" gradientUnits="userSpaceOnUse" gradientTransform="translate(41.7267 7.1456) rotate(-1.70136) scale(40.7849 29.8796)">
<stop stop-color="#14C957"/>
<stop offset="0.26" stop-color="#0FBE52"/>
<stop offset="0.72" stop-color="#049F44"/>
<stop offset="0.8" stop-color="#019941"/>
</radialGradient>
<radialGradient id="paint11_radial_3025_22432" cx="0" cy="0" r="1" gradientUnits="userSpaceOnUse" gradientTransform="translate(41.7077 7.17036) rotate(-1.70136) scale(40.698 29.816)">
<stop stop-color="#16CB58"/>
<stop offset="0.24" stop-color="#11C053"/>
<stop offset="0.66" stop-color="#06A145"/>
<stop offset="0.8" stop-color="#019640"/>
</radialGradient>
<radialGradient id="paint12_radial_3025_22432" cx="0" cy="0" r="1" gradientUnits="userSpaceOnUse" gradientTransform="translate(41.6868 7.19569) rotate(-1.70135) scale(40.6112 29.7523)">
<stop stop-color="#18CC59"/>
<stop offset="0.23" stop-color="#13C154"/>
<stop offset="0.62" stop-color="#07A246"/>
<stop offset="0.8" stop-color="#01933F"/>
</radialGradient>
<radialGradient id="paint13_radial_3025_22432" cx="0" cy="0" r="1" gradientUnits="userSpaceOnUse" gradientTransform="translate(41.6664 7.22717) rotate(-1.70136) scale(40.5213 29.6866)">
<stop stop-color="#19CD59"/>
<stop offset="0.21" stop-color="#15C254"/>
<stop offset="0.59" stop-color="#09A347"/>
<stop offset="0.8" stop-color="#01903E"/>
</radialGradient>
<radialGradient id="paint14_radial_3025_22432" cx="0" cy="0" r="1" gradientUnits="userSpaceOnUse" gradientTransform="translate(41.639 7.26191) rotate(-1.70135) scale(40.4345 29.6229)">
<stop stop-color="#1BCF5A"/>
<stop offset="0.2" stop-color="#17C455"/>
<stop offset="0.56" stop-color="#0BA547"/>
<stop offset="0.8" stop-color="#018D3C"/>
</radialGradient>
<radialGradient id="paint15_radial_3025_22432" cx="0" cy="0" r="1" gradientUnits="userSpaceOnUse" gradientTransform="translate(41.6074 7.13754) rotate(-1.13442) scale(40.3377 29.5586)">
<stop stop-color="#1DD05B"/>
<stop offset="0.19" stop-color="#18C556"/>
<stop offset="0.54" stop-color="#0CA648"/>
<stop offset="0.8" stop-color="#018B3B"/>
</radialGradient>
<radialGradient id="paint16_radial_3025_22432" cx="0" cy="0" r="1" gradientUnits="userSpaceOnUse" gradientTransform="translate(41.5754 7.16284) rotate(-1.13442) scale(40.2479 29.4928)">
<stop stop-color="#1ED25B"/>
<stop offset="0.18" stop-color="#1AC756"/>
<stop offset="0.51" stop-color="#0EA848"/>
<stop offset="0.8" stop-color="#01883A"/>
</radialGradient>
<radialGradient id="paint17_radial_3025_22432" cx="0" cy="0" r="1" gradientUnits="userSpaceOnUse" gradientTransform="translate(41.5428 7.18911) rotate(-1.13442) scale(40.1611 29.4292)">
<stop stop-color="#20D35C"/>
<stop offset="0.18" stop-color="#1BC857"/>
<stop offset="0.49" stop-color="#0FA949"/>
<stop offset="0.8" stop-color="#018539"/>
</radialGradient>
<radialGradient id="paint18_radial_3025_22432" cx="0" cy="0" r="1" gradientUnits="userSpaceOnUse" gradientTransform="translate(41.5043 7.22368) rotate(-1.13442) scale(40.0742 29.3655)">
<stop stop-color="#22D55D"/>
<stop offset="0.17" stop-color="#1DCA58"/>
<stop offset="0.47" stop-color="#11AB4A"/>
<stop offset="0.8" stop-color="#018237"/>
</radialGradient>
<radialGradient id="paint19_radial_3025_22432" cx="0" cy="0" r="1" gradientUnits="userSpaceOnUse" gradientTransform="translate(41.46 7.25723) rotate(-1.13442) scale(39.9845 29.2998)">
<stop stop-color="#24D65E"/>
<stop offset="0.16" stop-color="#1FCB59"/>
<stop offset="0.45" stop-color="#13AC4B"/>
<stop offset="0.8" stop-color="#017F36"/>
</radialGradient>
<radialGradient id="paint20_radial_3025_22432" cx="0" cy="0" r="1" gradientUnits="userSpaceOnUse" gradientTransform="translate(41.4129 7.29536) rotate(-1.13442) scale(39.8976 29.2361)">
<stop stop-color="#25D85E"/>
<stop offset="0.15" stop-color="#20CD59"/>
<stop offset="0.43" stop-color="#14AE4B"/>
<stop offset="0.79" stop-color="#017D36"/>
<stop offset="0.8" stop-color="#007C35"/>
</radialGradient>
<radialGradient id="paint21_radial_3025_22432" cx="0" cy="0" r="1" gradientUnits="userSpaceOnUse" gradientTransform="translate(42.2805 7.34107) rotate(-1.13442) scale(39.8108 29.1647)">
<stop stop-color="#27D95F"/>
<stop offset="0.15" stop-color="#22CE5A"/>
<stop offset="0.42" stop-color="#16AF4C"/>
<stop offset="0.77" stop-color="#027E36"/>
<stop offset="0.8" stop-color="#007934"/>
</radialGradient>
<radialGradient id="paint22_radial_3025_22432" cx="0" cy="0" r="1" gradientUnits="userSpaceOnUse" gradientTransform="translate(41.9841 7.38738) rotate(-1.1233) scale(40.1142 29.099)">
<stop stop-color="#29DB60"/>
<stop offset="0.14" stop-color="#24D05B"/>
<stop offset="0.4" stop-color="#18B14D"/>
<stop offset="0.74" stop-color="#048037"/>
<stop offset="0.8" stop-color="#007632"/>
</radialGradient>
<radialGradient id="paint23_radial_3025_22432" cx="0" cy="0" r="1" gradientUnits="userSpaceOnUse" gradientTransform="translate(41.9484 7.43942) rotate(-1.1233) scale(40.0264 29.0353)">
<stop stop-color="#2BDC61"/>
<stop offset="0.14" stop-color="#26D15C"/>
<stop offset="0.39" stop-color="#1AB24E"/>
<stop offset="0.71" stop-color="#068138"/>
<stop offset="0.8" stop-color="#007331"/>
</radialGradient>
<radialGradient id="paint24_radial_3025_22432" cx="0" cy="0" r="1" gradientUnits="userSpaceOnUse" gradientTransform="translate(41.9127 7.49455) rotate(-1.1233) scale(39.9358 28.9696)">
<stop stop-color="#2CDE61"/>
<stop offset="0.13" stop-color="#27D35C"/>
<stop offset="0.37" stop-color="#1BB44E"/>
<stop offset="0.69" stop-color="#088339"/>
<stop offset="0.8" stop-color="#007030"/>
</radialGradient>
<radialGradient id="paint25_radial_3025_22432" cx="0" cy="0" r="1" gradientUnits="userSpaceOnUse" gradientTransform="translate(41.8749 7.20873) rotate(-0.561705) scale(39.8423 28.9063)">
<stop stop-color="#2EDF62"/>
<stop offset="0.13" stop-color="#29D45D"/>
<stop offset="0.37" stop-color="#1DB54F"/>
<stop offset="0.67" stop-color="#098439"/>
<stop offset="0.8" stop-color="#006E2F"/>
</radialGradient>
<radialGradient id="paint26_radial_3025_22432" cx="0" cy="0" r="1" gradientUnits="userSpaceOnUse" gradientTransform="translate(41.8325 7.25303) rotate(-0.561705) scale(39.7546 28.8426)">
<stop stop-color="#30E163"/>
<stop offset="0.13" stop-color="#2BD65E"/>
<stop offset="0.35" stop-color="#1FB750"/>
<stop offset="0.65" stop-color="#0B8639"/>
<stop offset="0.8" stop-color="#006B2D"/>
</radialGradient>
<radialGradient id="paint27_radial_3025_22432" cx="0" cy="0" r="1" gradientUnits="userSpaceOnUse" gradientTransform="translate(41.7888 7.30309) rotate(-0.561706) scale(39.6639 28.7769)">
<stop stop-color="#31E263"/>
<stop offset="0.12" stop-color="#2CD75E"/>
<stop offset="0.34" stop-color="#20B850"/>
<stop offset="0.63" stop-color="#0D873A"/>
<stop offset="0.8" stop-color="#00682C"/>
</radialGradient>
<radialGradient id="paint28_radial_3025_22432" cx="0" cy="0" r="1" gradientUnits="userSpaceOnUse" gradientTransform="translate(41.7378 7.35577) rotate(-0.561706) scale(39.5763 28.7132)">
<stop stop-color="#33E364"/>
<stop offset="0.12" stop-color="#2ED85F"/>
<stop offset="0.34" stop-color="#22B951"/>
<stop offset="0.62" stop-color="#0E883B"/>
<stop offset="0.8" stop-color="#00652B"/>
</radialGradient>
<radialGradient id="paint29_radial_3025_22432" cx="0" cy="0" r="1" gradientUnits="userSpaceOnUse" gradientTransform="translate(41.6849 7.41121) rotate(-0.561705) scale(39.4856 28.6475)">
<stop stop-color="#35E565"/>
<stop offset="0.12" stop-color="#30DA60"/>
<stop offset="0.33" stop-color="#24BB52"/>
<stop offset="0.6" stop-color="#108A3C"/>
<stop offset="0.8" stop-color="#00622A"/>
</radialGradient>
<radialGradient id="paint30_radial_3025_22432" cx="0" cy="0" r="1" gradientUnits="userSpaceOnUse" gradientTransform="translate(41.6341 7.46989) rotate(-0.561705) scale(39.3979 28.5838)">
<stop stop-color="#37E666"/>
<stop offset="0.11" stop-color="#32DB61"/>
<stop offset="0.32" stop-color="#26BC53"/>
<stop offset="0.59" stop-color="#128B3C"/>
<stop offset="0.8" stop-color="#005F28"/>
</radialGradient>
<radialGradient id="paint31_radial_3025_22432" cx="0" cy="0" r="1" gradientUnits="userSpaceOnUse" gradientTransform="translate(41.5743 7.53467) rotate(-0.561705) scale(39.3073 28.5181)">
<stop stop-color="#38E866"/>
<stop offset="0.11" stop-color="#33DD61"/>
<stop offset="0.31" stop-color="#27BE53"/>
<stop offset="0.57" stop-color="#148D3D"/>
<stop offset="0.8" stop-color="#005C27"/>
</radialGradient>
<radialGradient id="paint32_radial_3025_22432" cx="0" cy="0" r="1" gradientUnits="userSpaceOnUse" gradientTransform="translate(41.5133 7.60101) rotate(-0.561706) scale(39.2196 28.4545)">
<stop stop-color="#3AE967"/>
<stop offset="0.11" stop-color="#35DE62"/>
<stop offset="0.3" stop-color="#29BF54"/>
<stop offset="0.56" stop-color="#158E3E"/>
<stop offset="0.8" stop-color="#005926"/>
</radialGradient>
<radialGradient id="paint33_radial_3025_22432" cx="0" cy="0" r="1" gradientUnits="userSpaceOnUse" gradientTransform="translate(41.4516 7.67096) rotate(-0.561705) scale(39.1319 28.3908)">
<stop stop-color="#3CEB68"/>
<stop offset="0.11" stop-color="#37E063"/>
<stop offset="0.29" stop-color="#2BC155"/>
<stop offset="0.54" stop-color="#17903F"/>
<stop offset="0.8" stop-color="#005625"/>
</radialGradient>
<radialGradient id="paint34_radial_3025_22432" cx="0" cy="0" r="1" gradientUnits="userSpaceOnUse" gradientTransform="translate(41.3819 7.7467) rotate(-0.561705) scale(39.0413 28.3251)">
<stop stop-color="#3EEC69"/>
<stop offset="0.1" stop-color="#39E164"/>
<stop offset="0.29" stop-color="#2DC256"/>
<stop offset="0.53" stop-color="#19913F"/>
<stop offset="0.8" stop-color="#005323"/>
</radialGradient>
<radialGradient id="paint35_radial_3025_22432" cx="0" cy="0" r="1" gradientUnits="userSpaceOnUse" gradientTransform="translate(41.311 7.30004) scale(38.9517 28.259)">
<stop stop-color="#3FEE69"/>
<stop offset="0.1" stop-color="#3AE364"/>
<stop offset="0.28" stop-color="#2EC456"/>
<stop offset="0.52" stop-color="#1A9340"/>
<stop offset="0.8" stop-color="#005122"/>
</radialGradient>
<radialGradient id="paint36_radial_3025_22432" cx="0" cy="0" r="1" gradientUnits="userSpaceOnUse" gradientTransform="translate(42.2315 7.36348) scale(39.2421 28.1933)">
<stop stop-color="#41EF6A"/>
<stop offset="0.1" stop-color="#3CE465"/>
<stop offset="0.28" stop-color="#30C557"/>
<stop offset="0.51" stop-color="#1C9441"/>
<stop offset="0.79" stop-color="#015022"/>
<stop offset="0.8" stop-color="#004E21"/>
</radialGradient>
<radialGradient id="paint37_radial_3025_22432" cx="0" cy="0" r="1" gradientUnits="userSpaceOnUse" gradientTransform="translate(42.1741 7.43016) scale(39.1564 28.1318)">
<stop stop-color="#43F16B"/>
<stop offset="0.1" stop-color="#3EE666"/>
<stop offset="0.27" stop-color="#32C758"/>
<stop offset="0.5" stop-color="#1E9642"/>
<stop offset="0.77" stop-color="#035223"/>
<stop offset="0.8" stop-color="#004B20"/>
</radialGradient>
<radialGradient id="paint38_radial_3025_22432" cx="0" cy="0" r="1" gradientUnits="userSpaceOnUse" gradientTransform="translate(42.1203 7.5035) scale(39.0678 28.0682)">
<stop stop-color="#45F26C"/>
<stop offset="0.1" stop-color="#40E767"/>
<stop offset="0.27" stop-color="#34C859"/>
<stop offset="0.49" stop-color="#209742"/>
<stop offset="0.76" stop-color="#055323"/>
<stop offset="0.8" stop-color="#00481E"/>
</radialGradient>
<radialGradient id="paint39_radial_3025_22432" cx="0" cy="0" r="1" gradientUnits="userSpaceOnUse" gradientTransform="translate(42.0637 7.58006) scale(38.9764 28.0024)">
<stop stop-color="#46F46C"/>
<stop offset="0.09" stop-color="#41E967"/>
<stop offset="0.26" stop-color="#35CA59"/>
<stop offset="0.48" stop-color="#229943"/>
<stop offset="0.74" stop-color="#065524"/>
<stop offset="0.8" stop-color="#00451D"/>
</radialGradient>
<radialGradient id="paint40_radial_3025_22432" cx="0" cy="0" r="1" gradientUnits="userSpaceOnUse" gradientTransform="translate(42.0088 7.66107) scale(38.8848 27.9367)">
<stop stop-color="#48F56D"/>
<stop offset="0.09" stop-color="#43EA68"/>
<stop offset="0.25" stop-color="#37CB5A"/>
<stop offset="0.47" stop-color="#239A44"/>
<stop offset="0.73" stop-color="#085625"/>
<stop offset="0.8" stop-color="#00421C"/>
</radialGradient>
<linearGradient id="paint41_linear_3025_22432" x1="42.6428" y1="27.7474" x2="39.2894" y2="3.70082" gradientUnits="userSpaceOnUse">
<stop offset="0.1" stop-color="#FF8475"/>
<stop offset="0.37" stop-color="#E84E43"/>
<stop offset="0.6" stop-color="#D6261F"/>
<stop offset="0.79" stop-color="#CC0E08"/>
<stop offset="0.9" stop-color="#C80500"/>
</linearGradient>
<clipPath id="clip0_3025_22432">
<rect width="18" height="18" fill="white" transform="translate(30.25 6)"/>
</clipPath>
<clipPath id="clip1_3025_22432">
<rect x="10" y="6" width="18" height="18" rx="9" fill="white"/>
</clipPath>
</defs>
</svg>
