<svg width="106" height="30" viewBox="0 0 106 30" fill="none" xmlns="http://www.w3.org/2000/svg">
<rect width="105.5" height="30" rx="15" fill="#102938"/>
<g clip-path="url(#clip0_3097_10444)">
<path d="M39.2798 15.0443L45.6024 21.5189L45.4735 21.6364L45.419 21.688C43.6486 23.2672 41.3288 24.0879 38.9592 23.9734C36.5896 23.8589 34.3598 22.8183 32.7499 21.0757C31.14 19.3332 30.2789 17.0281 30.352 14.6569C30.425 12.2856 31.4265 10.0379 33.1406 8.39786C34.903 6.78504 37.2299 5.93151 39.6171 6.02217C42.0044 6.11284 44.2598 7.14039 45.8948 8.88223L39.2798 15.0443Z" fill="#01B94F"/>
<path d="M33.1461 8.39488C34.9082 6.78347 37.2342 5.93106 39.6203 6.02226C42.0064 6.11345 44.2605 7.14091 45.8945 8.88211C45.8945 8.88211 40.6352 13.8061 40.5292 13.8921C40.5292 13.8921 39.3512 15.0012 39.3598 15.0184C39.3684 15.0356 45.5907 21.493 45.5907 21.493L45.4646 21.6133L45.4101 21.6649C41.6957 24.9323 36.0036 24.7832 32.6417 21.149C31.0272 19.3861 30.1743 17.0568 30.2688 14.6681C30.3633 12.2795 31.3974 10.0248 33.1461 8.39488Z" fill="url(#paint0_radial_3097_10444)"/>
<path d="M33.1499 8.38992C34.9134 6.78064 37.2395 5.93017 39.6252 6.02242C42.0108 6.11467 44.2643 7.14223 45.8983 8.88289C45.8983 8.88289 40.7795 13.6979 40.5702 13.867C40.5702 13.867 39.4238 14.9619 39.4439 14.9963C39.4869 15.0995 45.583 21.4651 45.583 21.4651L45.4569 21.5854L45.4025 21.637C41.6966 24.8987 36.0017 24.7382 32.6512 21.1154C31.0391 19.3573 30.187 17.0335 30.2804 14.65C30.3738 12.2665 31.4052 10.0165 33.1499 8.38992Z" fill="url(#paint1_radial_3097_10444)"/>
<path d="M33.1538 8.38578C34.9174 6.77861 37.2425 5.92973 39.6268 6.0225C42.011 6.11528 44.2631 7.14226 45.8965 8.88161C45.8965 8.88161 40.9238 13.5849 40.6028 13.84C40.6028 13.84 39.4965 14.9176 39.5166 14.9692C39.5825 15.124 45.5698 21.438 45.5698 21.438L45.4408 21.5584L45.3863 21.6071C41.6919 24.8601 35.9999 24.6939 32.6551 21.0797C31.0456 19.3266 30.1948 17.0081 30.2882 14.63C30.3816 12.2519 31.4117 10.0073 33.1538 8.38578Z" fill="url(#paint2_radial_3097_10444)"/>
<path d="M33.1574 8.38305C34.9212 6.77712 37.2459 5.92928 39.6294 6.02259C42.013 6.11589 44.2643 7.14286 45.8972 8.88175C45.8972 8.88175 41.0678 13.4675 40.6408 13.8143C40.6408 13.8143 39.5688 14.8776 39.5975 14.9464C39.6835 15.1528 45.559 21.4124 45.559 21.4124L45.4329 21.5299C45.4329 21.5299 45.3784 21.5786 45.3784 21.5815C41.6926 24.823 36.0005 24.6453 32.6644 21.0455C31.0575 19.2977 30.2074 16.9851 30.2998 14.6126C30.3921 12.2402 31.4194 10.0007 33.1574 8.38305Z" fill="url(#paint3_radial_3097_10444)"/>
<path d="M33.1627 8.3776C34.927 6.77414 37.2508 5.92839 39.633 6.02275C42.0152 6.11712 44.2649 7.14404 45.8968 8.88203C45.8968 8.88203 41.2136 13.3646 40.6776 13.7888C40.6776 13.7888 39.6401 14.8349 39.6745 14.9209C39.7834 15.1789 45.55 21.384 45.5471 21.3868L45.421 21.5043L45.3666 21.5559C41.6894 24.7832 36.0002 24.6026 32.6726 21.0114C31.0685 19.268 30.2196 16.9606 30.3114 14.5934C30.4033 12.2261 31.4284 9.99141 33.1627 8.3776Z" fill="url(#paint4_radial_3097_10444)"/>
<path d="M33.1678 8.37487C34.9323 6.77265 37.2558 5.92794 39.6373 6.02284C42.0188 6.11773 44.2676 7.14463 45.899 8.88217C45.899 8.88217 41.3591 13.2558 40.7171 13.7545C40.7171 13.7545 39.714 14.7835 39.757 14.8867C39.886 15.1962 45.5408 21.3468 45.5408 21.3468L45.4147 21.493L45.3602 21.5417C41.6887 24.746 36.0024 24.5597 32.6806 20.9771C31.0794 19.2388 30.2318 16.9371 30.3231 14.5754C30.4144 12.2138 31.4372 9.98442 33.1678 8.37487Z" fill="url(#paint5_radial_3097_10444)"/>
<path d="M33.1702 8.37215C34.9349 6.77116 37.2579 5.9275 39.6388 6.02292C42.0196 6.11835 44.2676 7.14523 45.8985 8.88231C45.8985 8.88231 41.502 13.1471 40.7539 13.7547C40.7539 13.7547 39.7823 14.7664 39.831 14.8868C39.9944 15.2336 45.5288 21.3326 45.526 21.3326L45.3998 21.4502L45.3454 21.5017C41.6854 24.7089 35.999 24.514 32.6858 20.9429C31.0869 19.2098 30.24 16.9137 30.3308 14.5574C30.4216 12.2012 31.4426 9.97702 33.1702 8.37215Z" fill="url(#paint6_radial_3097_10444)"/>
<path d="M33.1746 8.3642C34.9399 6.76481 37.2628 5.92269 39.6429 6.01918C42.023 6.11568 44.2701 7.14306 45.9001 8.8801C45.9001 8.8801 41.6468 13.0331 40.7927 13.7123C40.7927 13.7123 39.8555 14.7097 39.9128 14.8588C40.0848 15.2715 45.5189 21.3161 45.516 21.3161C45.5132 21.3161 45.3985 21.4279 45.3899 21.4336L45.3355 21.4823C41.6841 24.6694 35.9977 24.4688 32.6931 20.9177C31.0927 19.189 30.2444 16.8954 30.3347 14.5413C30.425 12.1872 31.4465 9.96529 33.1746 8.3642Z" fill="url(#paint7_radial_3097_10444)"/>
<path d="M33.1787 8.36399C34.944 6.76671 37.2658 5.92616 39.6446 6.02318C42.0233 6.12019 44.269 7.14701 45.8984 8.88275C45.8984 8.88275 41.7913 12.9268 40.8283 13.6892C40.8283 13.6892 39.9255 14.6694 39.9914 14.8356C40.1834 15.2999 45.5058 21.2901 45.5058 21.293L45.3796 21.4105L45.3252 21.4592C41.6824 24.6463 35.996 24.4371 32.7144 20.886C31.1158 19.1637 30.2667 16.8771 30.3537 14.5288C30.4408 12.1806 31.4569 9.96315 33.1787 8.36399Z" fill="url(#paint8_radial_3097_10444)"/>
<path d="M33.1838 8.36127C34.9494 6.76522 37.2708 5.92572 39.6488 6.02327C42.0269 6.12081 44.2717 7.14761 45.9007 8.8829C45.9007 8.8829 41.9369 12.8152 40.8563 13.6636C40.8563 13.6636 39.9965 14.6294 40.0596 14.81C40.2831 15.3173 45.4994 21.253 45.4965 21.2559L45.3704 21.3705C45.3704 21.3705 45.3217 21.4164 45.316 21.4221C41.6818 24.5977 35.9983 24.3799 32.7051 20.8489C31.9166 19.9975 31.3034 18.9992 30.9007 17.9108C30.498 16.8225 30.3136 15.6655 30.358 14.5059C30.4025 13.3463 30.6749 12.2069 31.1598 11.1526C31.6446 10.0982 32.3324 9.14976 33.1838 8.36127Z" fill="url(#paint9_radial_3097_10444)"/>
<path d="M33.1887 8.35193C34.9547 6.75835 37.2753 5.92093 39.6519 6.01954C42.0286 6.11814 44.2719 7.1449 45.8998 8.8793C45.8998 8.8793 42.0822 12.7027 40.9042 13.6342C40.9042 13.6342 40.0702 14.5857 40.1504 14.7806C40.3854 15.3538 45.4871 21.2322 45.4871 21.2351L45.361 21.3497L45.3065 21.3984C41.678 24.5569 35.9974 24.3333 32.7157 20.8051C31.1274 19.0909 30.2849 16.8159 30.3735 14.4806C30.4622 12.1453 31.4748 9.94078 33.1887 8.35193Z" fill="url(#paint10_radial_3097_10444)"/>
<path d="M33.1912 8.34948C34.9579 6.75695 37.2785 5.92049 39.655 6.01962C42.0315 6.11875 44.2744 7.14558 45.9023 8.8797C45.9023 8.8797 42.2251 12.6056 40.9411 13.6116C40.9411 13.6116 40.1443 14.5431 40.2275 14.7581C40.4854 15.3686 45.4782 21.2039 45.4753 21.2039L45.3492 21.3214L45.2947 21.3702C41.6777 24.5229 35.9971 24.2936 32.724 20.7769C31.9379 19.9306 31.3264 18.9377 30.9244 17.8548C30.5224 16.772 30.3378 15.6206 30.3812 14.4663C30.4246 13.3121 30.6951 12.1778 31.1773 11.1282C31.6594 10.0786 32.3438 9.13435 33.1912 8.34948Z" fill="url(#paint11_radial_3097_10444)"/>
<path d="M33.1994 8.34927C34.9662 6.75885 37.2858 5.92397 39.6608 6.02362C42.0359 6.12328 44.2774 7.14953 45.9048 8.88237C45.9048 8.88237 42.3738 12.4851 40.9808 13.5885C40.9808 13.5885 40.2184 14.5057 40.3102 14.7349C40.5968 15.4056 45.4691 21.1808 45.4691 21.1837L45.343 21.3012C45.343 21.3012 45.2943 21.3442 45.2914 21.3499C41.6802 24.5026 36.0024 24.2533 32.7351 20.748C29.4677 17.2428 29.6311 11.5851 33.1994 8.34927Z" fill="url(#paint12_radial_3097_10444)"/>
<path d="M33.2014 8.34134C34.9688 6.75252 37.2882 5.91917 39.6626 6.01989C42.037 6.12061 44.2775 7.14738 45.904 8.88017C45.904 8.88017 42.5162 12.3682 41.0316 13.5548C41.0316 13.5548 40.3007 14.4547 40.4011 14.7012C40.702 15.4235 45.4683 21.1442 45.4683 21.1471L45.3422 21.2617L45.2878 21.3104C41.6736 24.4431 35.9844 24.1995 32.74 20.7028C29.4955 17.2062 29.6417 11.5686 33.2014 8.34134Z" fill="url(#paint13_radial_3097_10444)"/>
<path d="M33.2049 8.34114C34.9724 6.75442 37.2907 5.92265 39.6638 6.02389C42.0368 6.12514 44.2759 7.15134 45.9018 8.88284C45.9018 8.88284 42.6602 12.2648 41.0552 13.5374C41.0552 13.5374 40.3587 14.423 40.4648 14.6838C40.7886 15.4548 45.4403 21.1211 45.4403 21.1239L45.3142 21.2386L45.2598 21.2873C41.6714 24.4085 35.9822 24.1563 32.7435 20.6711C29.5048 17.1859 29.651 11.5569 33.2049 8.34114Z" fill="url(#paint14_radial_3097_10444)"/>
<path d="M33.2082 8.33844C34.9758 6.75294 37.2938 5.92221 39.6661 6.02398C42.0385 6.12576 44.2768 7.15194 45.9021 8.883C45.9021 8.883 42.8039 12.1561 41.0928 13.5117C41.0928 13.5117 40.4308 14.3716 40.5454 14.6582C40.8893 15.475 45.4407 21.0954 45.4407 21.0983L45.3175 21.213L45.263 21.2617C41.6689 24.3599 35.9826 24.1134 32.7525 20.634C29.5224 17.1546 29.66 11.5456 33.2082 8.33844Z" fill="url(#paint15_radial_3097_10444)"/>
<path d="M33.2148 8.33215C34.9837 6.74963 37.3011 5.92135 39.6724 6.02417C42.0436 6.12699 44.2807 7.15275 45.9059 8.88244C45.9059 8.88244 42.951 12.0352 41.1424 13.4854C41.1424 13.4854 40.5148 14.3452 40.6351 14.6318C40.9905 15.5089 45.4416 21.0662 45.4244 21.0691L45.2983 21.1838C45.2815 21.2015 45.2633 21.2178 45.2438 21.2325C41.6698 24.3336 35.9835 24.0728 32.762 20.6019C29.5405 17.1311 29.6781 11.5307 33.2148 8.33215Z" fill="url(#paint16_radial_3097_10444)"/>
<path d="M33.216 8.32648C34.987 6.74634 37.3058 5.92168 39.6769 6.0288C42.0479 6.13592 44.2829 7.16631 45.9042 8.8997C45.9042 8.8997 43.0926 11.932 41.1666 13.4654C41.1666 13.4654 40.5733 14.3023 40.7022 14.6118C41.0892 15.5433 45.4141 21.0491 45.4112 21.052C45.4084 21.0548 45.3052 21.1523 45.2851 21.1666L45.2335 21.2153C41.6653 24.2935 35.9818 24.0184 32.766 20.5647C29.5503 17.1111 29.6764 11.5136 33.216 8.32648Z" fill="url(#paint17_radial_3097_10444)"/>
<path d="M33.2237 8.32483C34.994 6.74574 37.3118 5.92169 39.6816 6.02881C42.0515 6.13592 44.2855 7.16569 45.9062 8.89805C45.9062 8.89805 43.2407 11.8301 41.2057 13.4437C41.2057 13.4437 40.6469 14.2634 40.7816 14.5901C41.1914 15.5732 45.4075 21.0245 45.4017 21.0274L45.2785 21.142L45.224 21.1908C41.6643 24.2575 35.9837 23.9766 32.7765 20.5315C29.5694 17.0865 29.6926 11.5005 33.2237 8.32483Z" fill="url(#paint18_radial_3097_10444)"/>
<path d="M33.2246 8.30668C34.9951 6.72914 37.3121 5.90609 39.6811 6.01319C42.05 6.12028 44.2833 7.14904 45.9042 8.8799C45.9042 8.8799 43.3821 11.703 41.244 13.3997C41.244 13.3997 40.7166 14.2023 40.8599 14.5462C41.2898 15.5808 45.3941 20.9806 45.3912 20.9834L45.2651 21.0981L45.2107 21.144C41.6624 24.2193 35.9818 23.9298 32.7804 20.4991C29.5789 17.0684 29.7022 11.4852 33.2246 8.30668Z" fill="url(#paint19_radial_3097_10444)"/>
<path d="M33.2304 8.30894C35.0003 6.73244 37.3162 5.91001 39.684 6.0171C42.0518 6.12419 44.284 7.15233 45.9043 8.88216C44.4794 10.4978 42.934 12.003 41.2813 13.3848C41.2813 13.3848 40.7883 14.173 40.9403 14.5312C41.3902 15.6175 45.3827 20.9599 45.3798 20.9656L45.2566 21.0774L45.2021 21.1261C41.6596 24.1843 35.9819 23.8891 32.7891 20.4669C29.5962 17.0448 29.7109 11.4616 33.2304 8.30894Z" fill="url(#paint20_radial_3097_10444)"/>
<path d="M33.2353 8.3078C35.0055 6.732 37.3213 5.91002 39.6888 6.0171C42.0564 6.12418 44.2885 7.15185 45.9092 8.88102C44.5043 10.4923 42.9706 11.9866 41.3235 13.3493C41.3235 13.3493 40.8677 14.1203 41.0368 14.4957C41.5098 15.6422 45.3933 20.9244 45.3876 20.9272L45.2643 21.0419L45.2099 21.0906C41.6617 24.143 35.9839 23.8421 32.7968 20.4314C29.6097 17.0207 29.7243 11.4605 33.2353 8.3078Z" fill="url(#paint21_radial_3097_10444)"/>
<path d="M33.2411 8.3078C35.0114 6.73442 37.3257 5.91396 39.6917 6.02102C42.0576 6.12808 44.2884 7.1542 45.9093 8.88102C44.5264 10.4934 43.0033 11.9801 41.3579 13.3235C41.3579 13.3235 40.9366 14.0801 41.1 14.4699C41.593 15.6708 45.3647 20.9187 45.3619 20.9187C45.359 20.9187 45.2616 21.0132 45.2358 21.0333L45.1842 21.0792C41.6589 24.1058 35.984 23.7848 32.8055 20.397C29.627 17.0093 29.733 11.4605 33.2411 8.3078Z" fill="url(#paint22_radial_3097_10444)"/>
<path d="M33.2434 8.30641C35.0135 6.7339 37.3272 5.91397 39.6924 6.02102C42.0577 6.12807 44.2879 7.15365 45.9087 8.87963C44.5482 10.495 43.0366 11.9768 41.3946 13.3049C41.3946 13.3049 41.0076 14.0443 41.1767 14.4513C41.6955 15.6924 45.3555 20.8771 45.3498 20.88L45.2265 20.9918L45.1721 21.0405C41.6554 24.07 35.9834 23.7518 32.8135 20.3612C29.6436 16.9706 29.7439 11.4305 33.2434 8.30641Z" fill="url(#paint23_radial_3097_10444)"/>
<path d="M33.2456 8.30893C35.0155 6.73728 37.3286 5.91789 39.6931 6.02493C42.0577 6.13198 44.2873 7.15701 45.908 8.88215C44.5707 10.5003 43.0695 11.9756 41.4283 13.2845C41.4283 13.2845 41.0757 14.0067 41.2534 14.4309C41.7923 15.7235 45.3405 20.851 45.3376 20.8567L45.2115 20.9685L45.1571 21.0172C41.6547 24.0324 35.9827 23.7085 32.83 20.3294C29.6773 16.9502 29.7546 11.4186 33.2456 8.30893Z" fill="url(#paint24_radial_3097_10444)"/>
<path d="M33.2515 8.30615C35.0211 6.73624 37.3329 5.91791 39.6961 6.02494C42.0593 6.13197 44.2877 7.15592 45.9082 8.87937C44.596 10.4981 43.1079 11.9659 41.4714 13.2559C41.4714 13.2559 41.1504 13.9638 41.3367 14.4023C41.9099 15.7465 45.3493 20.8224 45.3292 20.8281L45.206 20.9399L45.1515 20.9858C41.652 23.9923 35.9828 23.6598 32.8301 20.2922C29.6774 16.9245 29.7634 11.4015 33.2515 8.30615Z" fill="url(#paint25_radial_3097_10444)"/>
<path d="M33.2538 8.30755C35.0235 6.73919 37.3346 5.92184 39.6969 6.02886C42.0592 6.13587 44.2869 7.15882 45.9076 8.88077C44.6218 10.503 43.1446 11.9638 41.5082 13.2315C41.5082 13.2315 41.2215 13.9222 41.4136 14.378C41.9868 15.7737 45.3229 20.7952 45.3172 20.798C45.3115 20.8009 45.2226 20.8869 45.194 20.9098L45.1395 20.9585C41.6515 23.9565 35.9823 23.6183 32.8296 20.2592C29.6769 16.9001 29.7743 11.3886 33.2538 8.30755Z" fill="url(#paint26_radial_3097_10444)"/>
<path d="M33.2597 8.29055C35.0315 6.72521 37.3432 5.9114 39.7048 6.02162C42.0665 6.13183 44.2924 7.15742 45.9106 8.88096C45.9106 8.88096 44.5407 10.8299 41.5456 13.2059C41.5456 13.2059 41.2934 13.8823 41.494 14.3523C42.0959 15.7854 45.3116 20.7695 45.3088 20.7724L45.1827 20.8842L45.1311 20.9329C41.6488 23.9194 35.9825 23.5726 32.8298 20.225C29.6771 16.8774 29.7831 11.3745 33.2597 8.29055Z" fill="url(#paint27_radial_3097_10444)"/>
<path d="M33.2631 8.28544C35.0358 6.72238 37.3472 5.91055 39.7079 6.02182C42.0687 6.13309 44.2934 7.15873 45.9112 8.88159C45.9112 8.88159 44.6874 10.7102 41.5834 13.1807C41.4678 13.5541 41.4678 13.9538 41.5834 14.3272C42.2082 15.8262 45.3094 20.7387 45.3094 20.7444L45.1861 20.8562L45.1317 20.902C41.6465 23.8828 35.9831 23.5302 32.8504 20.1941C29.7178 16.858 29.7952 11.3636 33.2631 8.28544Z" fill="url(#paint28_radial_3097_10444)"/>
<path d="M33.2706 8.28362C35.0426 6.72128 37.3533 5.9101 39.7131 6.02192C42.0729 6.13373 44.2965 7.15974 45.9129 8.88264C45.9129 8.88264 44.8324 10.6023 41.6138 13.1445C41.5125 13.5216 41.5235 13.92 41.6453 14.291C42.2902 15.8616 45.2939 20.7225 45.2881 20.7282L45.1649 20.84L45.1133 20.8859C41.6482 23.8466 35.9848 23.4998 32.8578 20.1607C29.7309 16.8217 29.8083 11.3504 33.2706 8.28362Z" fill="url(#paint29_radial_3097_10444)"/>
<path d="M33.2733 8.28094C35.0455 6.71982 37.3558 5.90968 39.7149 6.02202C42.074 6.13436 44.2968 7.16036 45.9127 8.88282C45.9127 8.88282 44.9784 10.5022 41.6595 13.1332C41.5796 13.5149 41.6044 13.911 41.7311 14.2797C42.3989 15.8818 45.2851 20.6883 45.2793 20.694L45.1561 20.8029L45.1016 20.8516C41.6451 23.8095 35.9846 23.4397 32.8663 20.1265C29.6992 16.7675 29.8167 11.3362 33.2733 8.28094Z" fill="url(#paint30_radial_3097_10444)"/>
<path d="M33.2796 8.27447C35.0526 6.71648 37.3619 5.90884 39.7194 6.02223C42.077 6.13561 44.2981 7.16114 45.9134 8.88208C45.9134 8.88208 45.1223 10.3811 41.6973 13.0952C41.6382 13.4809 41.6777 13.8753 41.812 14.2417C42.4998 15.8954 45.2742 20.6503 45.2685 20.6532L45.1453 20.7649L45.0908 20.8108C41.6515 23.7485 35.9909 23.3903 32.8726 20.0713C29.7543 16.7524 29.8288 11.3211 33.2796 8.27447Z" fill="url(#paint31_radial_3097_10444)"/>
<path d="M33.279 8.27206C35.0527 6.71511 37.362 5.90842 39.7194 6.02233C42.0767 6.13624 44.2975 7.16183 45.9128 8.88254C45.9128 8.88254 45.265 10.2697 41.734 13.0699C41.6953 13.4589 41.7483 13.8515 41.8888 14.2163C42.5967 15.9446 45.2593 20.6335 45.2536 20.6479L45.1303 20.7597L45.0787 20.8055C41.6394 23.7318 35.9817 23.3506 32.8778 20.0603C29.7251 16.7185 29.8368 11.3073 33.279 8.27206Z" fill="url(#paint32_radial_3097_10444)"/>
<path d="M33.2864 8.26912C35.0598 6.71358 37.3682 5.908 39.7244 6.02244C42.0806 6.13688 44.3001 7.16238 45.9144 8.88247C45.9144 8.88247 45.41 10.1722 41.7729 13.0555C41.7567 13.4471 41.8231 13.8377 41.9678 14.202C42.6986 15.9703 45.2523 20.6163 45.2466 20.6335L45.1234 20.7424L45.0689 20.7883C41.6382 23.6945 35.9834 23.3076 32.8851 20.023C29.741 16.6926 29.847 11.2929 33.2864 8.26912Z" fill="url(#paint33_radial_3097_10444)"/>
<path d="M33.2897 8.26013C35.064 6.70686 37.3721 5.90325 39.7274 6.01874C42.0827 6.13423 44.3011 7.1598 45.9149 8.87921C45.9149 8.87921 45.5566 10.0572 41.8106 13.0265C41.8168 13.4248 41.8975 13.8185 42.0485 14.1872C42.8023 15.9957 45.2414 20.5872 45.2356 20.593L45.1124 20.7019L45.0608 20.7477C41.6387 23.654 35.9839 23.2584 32.8942 19.9853C29.7558 16.6664 29.859 11.2753 33.2897 8.26013Z" fill="url(#paint34_radial_3097_10444)"/>
<path d="M33.2967 8.25852C35.0719 6.71135 37.378 5.91287 39.7299 6.03099C42.0818 6.14912 44.2962 7.17466 45.9075 8.89193C45.9075 8.89193 45.6925 9.94952 41.8405 13.0019C41.8738 13.4016 41.9705 13.7934 42.1271 14.1627C42.9038 16.0256 45.234 20.5627 45.2282 20.5684L45.105 20.6773C45.0856 20.691 45.0674 20.7064 45.0505 20.7232C41.637 23.6179 35.9851 23.211 32.904 19.9522C29.7714 16.6419 29.8688 11.2651 33.2967 8.25852Z" fill="url(#paint35_radial_3097_10444)"/>
<path d="M33.2965 8.25444C35.0718 6.70694 37.3783 5.90851 39.7304 6.02719C42.0825 6.14586 44.2968 7.17239 45.9074 8.89071C45.9074 8.89071 45.8386 9.83939 41.8776 12.9749C41.9339 13.375 42.0418 13.7662 42.1986 14.1385C43.0011 16.0445 45.2195 20.5328 45.2138 20.5385L45.0905 20.6475C45.0733 20.6475 45.0533 20.6819 45.0361 20.6933C41.6312 23.5795 35.9821 23.1696 32.9067 19.9166C29.7827 16.6177 29.8773 11.2495 33.2965 8.25444Z" fill="url(#paint36_radial_3097_10444)"/>
<path d="M33.3036 8.24964C35.0802 6.70423 37.3868 5.90768 39.7384 6.0274C42.0901 6.14713 44.3039 7.1738 45.9144 8.89165C45.9144 8.89165 45.9889 9.74001 41.9219 12.9529C42.0052 13.3511 42.1281 13.74 42.2888 14.1137C43.1056 16.0798 45.2151 20.5079 45.2065 20.5137C45.1979 20.5194 45.1233 20.5911 45.0832 20.6226L45.0316 20.6685C41.6353 23.5489 35.9834 23.1247 32.9166 19.8831C29.7954 16.5929 29.89 11.2361 33.3036 8.24964Z" fill="url(#paint37_radial_3097_10444)"/>
<path d="M33.3084 8.24818C35.0854 6.7028 37.3925 5.90681 39.7445 6.02761C42.0964 6.14842 44.3098 7.1766 45.9192 8.89592C45.9192 8.89592 46.137 9.62104 41.964 12.9285C42.0711 13.3251 42.2052 13.7139 42.3652 14.0922C43.205 16.0984 45.2027 20.4836 45.1969 20.4893L45.0737 20.5982L45.0192 20.6441C41.6344 23.4987 35.9853 23.0803 32.9243 19.853C29.8117 16.5685 29.9006 11.2232 33.3084 8.24818Z" fill="url(#paint38_radial_3097_10444)"/>
<path d="M33.3143 8.24298C35.0917 6.69797 37.399 5.90247 39.751 6.02381C42.1029 6.14515 44.3161 7.17387 45.9251 8.89359C45.9251 8.89359 46.2805 9.50693 42.0043 12.8918C42.0043 12.8918 42.1619 13.3733 42.4485 14.0554C43.3084 16.1248 45.1943 20.4468 45.1885 20.4526L45.0653 20.5615L45.0137 20.6045C41.6317 23.4677 35.9855 23.0349 32.9331 19.8163C29.8262 16.5403 29.9122 11.2065 33.3143 8.24298Z" fill="url(#paint39_radial_3097_10444)"/>
<path d="M45.1733 20.4372C41.8257 23.4466 36.0391 23.0482 32.938 19.7722C29.8368 16.4963 29.92 11.1739 33.3163 8.22759C35.0947 6.68397 37.4023 5.88991 39.7541 6.01231C42.1058 6.13471 44.3185 7.16403 45.9271 8.88392C45.9271 8.88392 46.4344 9.38836 42.0464 12.8649C42.0378 12.8764 45.1848 20.4286 45.1733 20.4372Z" fill="url(#paint40_radial_3097_10444)"/>
<path d="M41.911 12.9727C40.5381 14.099 38.85 15.426 36.8867 16.9135C38.3452 18.4908 40.0414 19.8301 41.9139 20.8831C43.5217 21.7429 44.78 21.9034 45.3962 21.3589C46.0124 20.8143 45.9379 19.559 45.2213 17.9195C44.373 16.1135 43.257 14.4457 41.911 12.9727Z" fill="url(#paint41_linear_3097_10444)"/>
<path d="M42.032 12.8633L41.3441 13.4365C42.6036 14.821 43.6506 16.3848 44.451 18.0767C45.1532 19.6932 45.136 20.5043 44.9095 20.7078C44.6831 20.9113 43.7058 20.9629 42.1437 20.1346C40.4134 19.1533 38.8485 17.9056 37.5064 16.4373L36.7383 17.0105L36.9188 17.1854C40.1719 20.5473 43.6914 22.4619 45.2391 21.7654C45.285 21.7425 45.3308 21.7195 45.3738 21.6937H45.391C45.4509 21.6566 45.5075 21.6144 45.5601 21.5676C45.6159 21.5172 45.6668 21.4615 45.712 21.4014C46.7238 20.0744 45.1875 16.5004 42.1265 12.998L42.032 12.8633Z" fill="#84EEB1"/>
</g>
<path d="M55.882 21.9465C54.218 21.9465 52.905 21.342 51.943 20.133C50.981 18.911 50.5 17.1949 50.5 14.9849C50.5 12.8269 50.9745 11.1239 51.9235 9.87591C52.8855 8.62791 54.2635 8.00391 56.0575 8.00391C56.6815 8.00391 57.2405 8.09491 57.7345 8.27691C58.2285 8.44591 58.6315 8.64091 58.9435 8.86191V10.7534C58.5925 10.5324 58.1765 10.3244 57.6955 10.1294C57.2145 9.93441 56.7075 9.83691 56.1745 9.83691C55.0305 9.83691 54.1985 10.2594 53.6785 11.1044C53.1585 11.9494 52.8985 13.2429 52.8985 14.9849C52.8985 16.6749 53.1585 17.9554 53.6785 18.8265C54.1985 19.6845 54.9915 20.1135 56.0575 20.1135C56.6815 20.1135 57.221 20.0225 57.676 19.8405C58.131 19.6455 58.5535 19.405 58.9435 19.119V21.0105C58.6445 21.2185 58.2415 21.4265 57.7345 21.6345C57.2275 21.8425 56.61 21.9465 55.882 21.9465Z" fill="white"/>
<path d="M60.4115 11.9429H68.0556V21.7515H65.7351V13.7759H62.732V21.7515H60.4115V11.9429Z" fill="white"/>
<path d="M69.2292 19.743C69.2292 19.743 69.2747 19.7755 69.3657 19.8405C69.4567 19.8925 69.5867 19.9185 69.7557 19.9185C70.1327 19.9185 70.3797 19.7235 70.4967 19.3335C70.6137 18.9435 70.6917 18.2284 70.7307 17.1884L70.9257 11.9429H77.5753V21.7515H75.2547V13.7759H72.8952L72.7587 17.2859C72.7067 18.911 72.5052 20.094 72.1542 20.835C71.8032 21.576 71.1337 21.9465 70.1457 21.9465C69.8727 21.9465 69.6517 21.914 69.4827 21.849C69.3137 21.784 69.2292 21.7515 69.2292 21.7515V19.743Z" fill="white"/>
<path d="M79.5308 11.9429H81.7928V18.0074L85.3808 11.9429H87.3893V21.7515H85.1273V15.6869L81.5393 21.7515H79.5308V11.9429Z" fill="white"/>
<path d="M96.5335 13.7759H93.8034V21.7515H91.4829V13.7759H88.7529V11.9429H96.5335V13.7759Z" fill="white"/>
<g clip-path="url(#clip1_3097_10444)">
<path fill-rule="evenodd" clip-rule="evenodd" d="M28 6H10V24H28V6ZM22.1487 20.409H20.2684V11.0697H19.4292C17.8908 11.0697 17.0828 11.8467 17.0828 12.9966C17.0828 14.302 17.6422 14.908 18.7921 15.685L19.74 16.3221L17.0051 20.409H14.9694L17.4246 16.7572C16.0105 15.7471 15.218 14.7681 15.218 13.1054C15.218 11.0231 16.6632 9.60901 19.4137 9.60901H22.1487V20.409Z" fill="white"/>
</g>
<defs>
<radialGradient id="paint0_radial_3097_10444" cx="0" cy="0" r="1" gradientUnits="userSpaceOnUse" gradientTransform="translate(41.5634 7.02075) rotate(-2.29061) scale(41.2618 30.5344)">
<stop stop-color="#03BA50"/>
<stop offset="0.8" stop-color="#01B64E"/>
</radialGradient>
<radialGradient id="paint1_radial_3097_10444" cx="0" cy="0" r="1" gradientUnits="userSpaceOnUse" gradientTransform="translate(41.5602 7.0182) rotate(-2.29061) scale(41.1757 30.4707)">
<stop stop-color="#04BC50"/>
<stop offset="0.8" stop-color="#01B34D"/>
</radialGradient>
<radialGradient id="paint2_radial_3097_10444" cx="0" cy="0" r="1" gradientUnits="userSpaceOnUse" gradientTransform="translate(41.5485 7.02467) rotate(-2.29061) scale(41.0897 30.4071)">
<stop stop-color="#06BD51"/>
<stop offset="0.72" stop-color="#02B24C"/>
<stop offset="0.8" stop-color="#01B04B"/>
</radialGradient>
<radialGradient id="paint3_radial_3097_10444" cx="0" cy="0" r="1" gradientUnits="userSpaceOnUse" gradientTransform="translate(41.5338 7.03776) rotate(-2.29061) scale(41.0037 30.3434)">
<stop stop-color="#08BF52"/>
<stop offset="0.56" stop-color="#04B44D"/>
<stop offset="0.8" stop-color="#01AD4A"/>
</radialGradient>
<radialGradient id="paint4_radial_3097_10444" cx="0" cy="0" r="1" gradientUnits="userSpaceOnUse" gradientTransform="translate(41.518 7.05048) rotate(-2.29061) scale(40.9176 30.2797)">
<stop stop-color="#0AC053"/>
<stop offset="0.48" stop-color="#05B54E"/>
<stop offset="0.8" stop-color="#01AA49"/>
</radialGradient>
<radialGradient id="paint5_radial_3097_10444" cx="0" cy="0" r="1" gradientUnits="userSpaceOnUse" gradientTransform="translate(41.5021 7.0816) rotate(-1.71836) scale(40.8144 30.2122)">
<stop stop-color="#0BC253"/>
<stop offset="0.42" stop-color="#07B74E"/>
<stop offset="0.8" stop-color="#01A848"/>
</radialGradient>
<radialGradient id="paint6_radial_3097_10444" cx="0" cy="0" r="1" gradientUnits="userSpaceOnUse" gradientTransform="translate(41.475 7.08957) rotate(-1.71836) scale(40.7284 30.1485)">
<stop stop-color="#0DC354"/>
<stop offset="0.37" stop-color="#08B84F"/>
<stop offset="0.8" stop-color="#01A546"/>
</radialGradient>
<radialGradient id="paint7_radial_3097_10444" cx="0" cy="0" r="1" gradientUnits="userSpaceOnUse" gradientTransform="translate(41.7793 7.09535) rotate(-1.71836) scale(40.6423 30.0727)">
<stop stop-color="#0FC555"/>
<stop offset="0.33" stop-color="#0ABA50"/>
<stop offset="0.8" stop-color="#01A245"/>
</radialGradient>
<radialGradient id="paint8_radial_3097_10444" cx="0" cy="0" r="1" gradientUnits="userSpaceOnUse" gradientTransform="translate(41.7474 7.11253) rotate(-1.70136) scale(40.9615 30.0091)">
<stop stop-color="#11C656"/>
<stop offset="0.3" stop-color="#0CBB51"/>
<stop offset="0.8" stop-color="#019F44"/>
</radialGradient>
<radialGradient id="paint9_radial_3097_10444" cx="0" cy="0" r="1" gradientUnits="userSpaceOnUse" gradientTransform="translate(41.7396 7.12738) rotate(-1.70135) scale(40.8747 29.9454)">
<stop stop-color="#12C856"/>
<stop offset="0.28" stop-color="#0EBD51"/>
<stop offset="0.77" stop-color="#029E44"/>
<stop offset="0.8" stop-color="#019C43"/>
</radialGradient>
<radialGradient id="paint10_radial_3097_10444" cx="0" cy="0" r="1" gradientUnits="userSpaceOnUse" gradientTransform="translate(41.7287 7.14364) rotate(-1.70136) scale(40.7849 29.8796)">
<stop stop-color="#14C957"/>
<stop offset="0.26" stop-color="#0FBE52"/>
<stop offset="0.72" stop-color="#049F44"/>
<stop offset="0.8" stop-color="#019941"/>
</radialGradient>
<radialGradient id="paint11_radial_3097_10444" cx="0" cy="0" r="1" gradientUnits="userSpaceOnUse" gradientTransform="translate(41.7097 7.16841) rotate(-1.70136) scale(40.698 29.816)">
<stop stop-color="#16CB58"/>
<stop offset="0.24" stop-color="#11C053"/>
<stop offset="0.66" stop-color="#06A145"/>
<stop offset="0.8" stop-color="#019640"/>
</radialGradient>
<radialGradient id="paint12_radial_3097_10444" cx="0" cy="0" r="1" gradientUnits="userSpaceOnUse" gradientTransform="translate(41.6907 7.19764) rotate(-1.70135) scale(40.6112 29.7523)">
<stop stop-color="#18CC59"/>
<stop offset="0.23" stop-color="#13C154"/>
<stop offset="0.62" stop-color="#07A246"/>
<stop offset="0.8" stop-color="#01933F"/>
</radialGradient>
<radialGradient id="paint13_radial_3097_10444" cx="0" cy="0" r="1" gradientUnits="userSpaceOnUse" gradientTransform="translate(41.6684 7.22717) rotate(-1.70136) scale(40.5213 29.6866)">
<stop stop-color="#19CD59"/>
<stop offset="0.21" stop-color="#15C254"/>
<stop offset="0.59" stop-color="#09A347"/>
<stop offset="0.8" stop-color="#01903E"/>
</radialGradient>
<radialGradient id="paint14_radial_3097_10444" cx="0" cy="0" r="1" gradientUnits="userSpaceOnUse" gradientTransform="translate(41.639 7.26386) rotate(-1.70135) scale(40.4345 29.6229)">
<stop stop-color="#1BCF5A"/>
<stop offset="0.2" stop-color="#17C455"/>
<stop offset="0.56" stop-color="#0BA547"/>
<stop offset="0.8" stop-color="#018D3C"/>
</radialGradient>
<radialGradient id="paint15_radial_3097_10444" cx="0" cy="0" r="1" gradientUnits="userSpaceOnUse" gradientTransform="translate(41.6094 7.13949) rotate(-1.13442) scale(40.3377 29.5586)">
<stop stop-color="#1DD05B"/>
<stop offset="0.19" stop-color="#18C556"/>
<stop offset="0.54" stop-color="#0CA648"/>
<stop offset="0.8" stop-color="#018B3B"/>
</radialGradient>
<radialGradient id="paint16_radial_3097_10444" cx="0" cy="0" r="1" gradientUnits="userSpaceOnUse" gradientTransform="translate(41.5774 7.16479) rotate(-1.13442) scale(40.2479 29.4928)">
<stop stop-color="#1ED25B"/>
<stop offset="0.18" stop-color="#1AC756"/>
<stop offset="0.51" stop-color="#0EA848"/>
<stop offset="0.8" stop-color="#01883A"/>
</radialGradient>
<radialGradient id="paint17_radial_3097_10444" cx="0" cy="0" r="1" gradientUnits="userSpaceOnUse" gradientTransform="translate(41.5428 7.18715) rotate(-1.13442) scale(40.1611 29.4292)">
<stop stop-color="#20D35C"/>
<stop offset="0.18" stop-color="#1BC857"/>
<stop offset="0.49" stop-color="#0FA949"/>
<stop offset="0.8" stop-color="#018539"/>
</radialGradient>
<radialGradient id="paint18_radial_3097_10444" cx="0" cy="0" r="1" gradientUnits="userSpaceOnUse" gradientTransform="translate(41.5062 7.22368) rotate(-1.13442) scale(40.0742 29.3655)">
<stop stop-color="#22D55D"/>
<stop offset="0.17" stop-color="#1DCA58"/>
<stop offset="0.47" stop-color="#11AB4A"/>
<stop offset="0.8" stop-color="#018237"/>
</radialGradient>
<radialGradient id="paint19_radial_3097_10444" cx="0" cy="0" r="1" gradientUnits="userSpaceOnUse" gradientTransform="translate(41.46 7.25528) rotate(-1.13442) scale(39.9845 29.2998)">
<stop stop-color="#24D65E"/>
<stop offset="0.16" stop-color="#1FCB59"/>
<stop offset="0.45" stop-color="#13AC4B"/>
<stop offset="0.8" stop-color="#017F36"/>
</radialGradient>
<radialGradient id="paint20_radial_3097_10444" cx="0" cy="0" r="1" gradientUnits="userSpaceOnUse" gradientTransform="translate(41.4129 7.29732) rotate(-1.13442) scale(39.8976 29.2361)">
<stop stop-color="#25D85E"/>
<stop offset="0.15" stop-color="#20CD59"/>
<stop offset="0.43" stop-color="#14AE4B"/>
<stop offset="0.79" stop-color="#017D36"/>
<stop offset="0.8" stop-color="#007C35"/>
</radialGradient>
<radialGradient id="paint21_radial_3097_10444" cx="0" cy="0" r="1" gradientUnits="userSpaceOnUse" gradientTransform="translate(42.2824 7.34107) rotate(-1.13442) scale(39.8108 29.1647)">
<stop stop-color="#27D95F"/>
<stop offset="0.15" stop-color="#22CE5A"/>
<stop offset="0.42" stop-color="#16AF4C"/>
<stop offset="0.77" stop-color="#027E36"/>
<stop offset="0.8" stop-color="#007934"/>
</radialGradient>
<radialGradient id="paint22_radial_3097_10444" cx="0" cy="0" r="1" gradientUnits="userSpaceOnUse" gradientTransform="translate(41.986 7.38738) rotate(-1.1233) scale(40.1142 29.099)">
<stop stop-color="#29DB60"/>
<stop offset="0.14" stop-color="#24D05B"/>
<stop offset="0.4" stop-color="#18B14D"/>
<stop offset="0.74" stop-color="#048037"/>
<stop offset="0.8" stop-color="#007632"/>
</radialGradient>
<radialGradient id="paint23_radial_3097_10444" cx="0" cy="0" r="1" gradientUnits="userSpaceOnUse" gradientTransform="translate(41.9504 7.43747) rotate(-1.1233) scale(40.0264 29.0353)">
<stop stop-color="#2BDC61"/>
<stop offset="0.14" stop-color="#26D15C"/>
<stop offset="0.39" stop-color="#1AB24E"/>
<stop offset="0.71" stop-color="#068138"/>
<stop offset="0.8" stop-color="#007331"/>
</radialGradient>
<radialGradient id="paint24_radial_3097_10444" cx="0" cy="0" r="1" gradientUnits="userSpaceOnUse" gradientTransform="translate(41.9147 7.49651) rotate(-1.1233) scale(39.9358 28.9696)">
<stop stop-color="#2CDE61"/>
<stop offset="0.13" stop-color="#27D35C"/>
<stop offset="0.37" stop-color="#1BB44E"/>
<stop offset="0.69" stop-color="#088339"/>
<stop offset="0.8" stop-color="#007030"/>
</radialGradient>
<radialGradient id="paint25_radial_3097_10444" cx="0" cy="0" r="1" gradientUnits="userSpaceOnUse" gradientTransform="translate(41.8769 7.20678) rotate(-0.561705) scale(39.8423 28.9063)">
<stop stop-color="#2EDF62"/>
<stop offset="0.13" stop-color="#29D45D"/>
<stop offset="0.37" stop-color="#1DB54F"/>
<stop offset="0.67" stop-color="#098439"/>
<stop offset="0.8" stop-color="#006E2F"/>
</radialGradient>
<radialGradient id="paint26_radial_3097_10444" cx="0" cy="0" r="1" gradientUnits="userSpaceOnUse" gradientTransform="translate(41.8325 7.25303) rotate(-0.561705) scale(39.7546 28.8426)">
<stop stop-color="#30E163"/>
<stop offset="0.13" stop-color="#2BD65E"/>
<stop offset="0.35" stop-color="#1FB750"/>
<stop offset="0.65" stop-color="#0B8639"/>
<stop offset="0.8" stop-color="#006B2D"/>
</radialGradient>
<radialGradient id="paint27_radial_3097_10444" cx="0" cy="0" r="1" gradientUnits="userSpaceOnUse" gradientTransform="translate(41.7888 7.30309) rotate(-0.561706) scale(39.6639 28.7769)">
<stop stop-color="#31E263"/>
<stop offset="0.12" stop-color="#2CD75E"/>
<stop offset="0.34" stop-color="#20B850"/>
<stop offset="0.63" stop-color="#0D873A"/>
<stop offset="0.8" stop-color="#00682C"/>
</radialGradient>
<radialGradient id="paint28_radial_3097_10444" cx="0" cy="0" r="1" gradientUnits="userSpaceOnUse" gradientTransform="translate(41.7397 7.35577) rotate(-0.561706) scale(39.5763 28.7132)">
<stop stop-color="#33E364"/>
<stop offset="0.12" stop-color="#2ED85F"/>
<stop offset="0.34" stop-color="#22B951"/>
<stop offset="0.62" stop-color="#0E883B"/>
<stop offset="0.8" stop-color="#00652B"/>
</radialGradient>
<radialGradient id="paint29_radial_3097_10444" cx="0" cy="0" r="1" gradientUnits="userSpaceOnUse" gradientTransform="translate(41.6888 7.41316) rotate(-0.561705) scale(39.4856 28.6475)">
<stop stop-color="#35E565"/>
<stop offset="0.12" stop-color="#30DA60"/>
<stop offset="0.33" stop-color="#24BB52"/>
<stop offset="0.6" stop-color="#108A3C"/>
<stop offset="0.8" stop-color="#00622A"/>
</radialGradient>
<radialGradient id="paint30_radial_3097_10444" cx="0" cy="0" r="1" gradientUnits="userSpaceOnUse" gradientTransform="translate(41.636 7.47184) rotate(-0.561705) scale(39.3979 28.5838)">
<stop stop-color="#37E666"/>
<stop offset="0.11" stop-color="#32DB61"/>
<stop offset="0.32" stop-color="#26BC53"/>
<stop offset="0.59" stop-color="#128B3C"/>
<stop offset="0.8" stop-color="#005F28"/>
</radialGradient>
<radialGradient id="paint31_radial_3097_10444" cx="0" cy="0" r="1" gradientUnits="userSpaceOnUse" gradientTransform="translate(41.5782 7.53467) rotate(-0.561705) scale(39.3073 28.5181)">
<stop stop-color="#38E866"/>
<stop offset="0.11" stop-color="#33DD61"/>
<stop offset="0.31" stop-color="#27BE53"/>
<stop offset="0.57" stop-color="#148D3D"/>
<stop offset="0.8" stop-color="#005C27"/>
</radialGradient>
<radialGradient id="paint32_radial_3097_10444" cx="0" cy="0" r="1" gradientUnits="userSpaceOnUse" gradientTransform="translate(41.5133 7.60297) rotate(-0.561706) scale(39.2196 28.4545)">
<stop stop-color="#3AE967"/>
<stop offset="0.11" stop-color="#35DE62"/>
<stop offset="0.3" stop-color="#29BF54"/>
<stop offset="0.56" stop-color="#158E3E"/>
<stop offset="0.8" stop-color="#005926"/>
</radialGradient>
<radialGradient id="paint33_radial_3097_10444" cx="0" cy="0" r="1" gradientUnits="userSpaceOnUse" gradientTransform="translate(41.4535 7.67291) rotate(-0.561705) scale(39.1319 28.3908)">
<stop stop-color="#3CEB68"/>
<stop offset="0.11" stop-color="#37E063"/>
<stop offset="0.29" stop-color="#2BC155"/>
<stop offset="0.54" stop-color="#17903F"/>
<stop offset="0.8" stop-color="#005625"/>
</radialGradient>
<radialGradient id="paint34_radial_3097_10444" cx="0" cy="0" r="1" gradientUnits="userSpaceOnUse" gradientTransform="translate(41.3838 7.74475) rotate(-0.561705) scale(39.0413 28.3251)">
<stop stop-color="#3EEC69"/>
<stop offset="0.1" stop-color="#39E164"/>
<stop offset="0.29" stop-color="#2DC256"/>
<stop offset="0.53" stop-color="#19913F"/>
<stop offset="0.8" stop-color="#005323"/>
</radialGradient>
<radialGradient id="paint35_radial_3097_10444" cx="0" cy="0" r="1" gradientUnits="userSpaceOnUse" gradientTransform="translate(41.3149 7.30004) scale(38.9517 28.259)">
<stop stop-color="#3FEE69"/>
<stop offset="0.1" stop-color="#3AE364"/>
<stop offset="0.28" stop-color="#2EC456"/>
<stop offset="0.52" stop-color="#1A9340"/>
<stop offset="0.8" stop-color="#005122"/>
</radialGradient>
<radialGradient id="paint36_radial_3097_10444" cx="0" cy="0" r="1" gradientUnits="userSpaceOnUse" gradientTransform="translate(42.2315 7.36153) scale(39.2421 28.1933)">
<stop stop-color="#41EF6A"/>
<stop offset="0.1" stop-color="#3CE465"/>
<stop offset="0.28" stop-color="#30C557"/>
<stop offset="0.51" stop-color="#1C9441"/>
<stop offset="0.79" stop-color="#015022"/>
<stop offset="0.8" stop-color="#004E21"/>
</radialGradient>
<radialGradient id="paint37_radial_3097_10444" cx="0" cy="0" r="1" gradientUnits="userSpaceOnUse" gradientTransform="translate(42.1761 7.43016) scale(39.1564 28.1318)">
<stop stop-color="#43F16B"/>
<stop offset="0.1" stop-color="#3EE666"/>
<stop offset="0.27" stop-color="#32C758"/>
<stop offset="0.5" stop-color="#1E9642"/>
<stop offset="0.77" stop-color="#035223"/>
<stop offset="0.8" stop-color="#004B20"/>
</radialGradient>
<radialGradient id="paint38_radial_3097_10444" cx="0" cy="0" r="1" gradientUnits="userSpaceOnUse" gradientTransform="translate(42.1242 7.5035) scale(39.0678 28.0682)">
<stop stop-color="#45F26C"/>
<stop offset="0.1" stop-color="#40E767"/>
<stop offset="0.27" stop-color="#34C859"/>
<stop offset="0.49" stop-color="#209742"/>
<stop offset="0.76" stop-color="#055323"/>
<stop offset="0.8" stop-color="#00481E"/>
</radialGradient>
<radialGradient id="paint39_radial_3097_10444" cx="0" cy="0" r="1" gradientUnits="userSpaceOnUse" gradientTransform="translate(42.0676 7.5781) scale(38.9764 28.0024)">
<stop stop-color="#46F46C"/>
<stop offset="0.09" stop-color="#41E967"/>
<stop offset="0.26" stop-color="#35CA59"/>
<stop offset="0.48" stop-color="#229943"/>
<stop offset="0.74" stop-color="#065524"/>
<stop offset="0.8" stop-color="#00451D"/>
</radialGradient>
<radialGradient id="paint40_radial_3097_10444" cx="0" cy="0" r="1" gradientUnits="userSpaceOnUse" gradientTransform="translate(42.0127 7.66107) scale(38.8848 27.9367)">
<stop stop-color="#48F56D"/>
<stop offset="0.09" stop-color="#43EA68"/>
<stop offset="0.25" stop-color="#37CB5A"/>
<stop offset="0.47" stop-color="#239A44"/>
<stop offset="0.73" stop-color="#085625"/>
<stop offset="0.8" stop-color="#00421C"/>
</radialGradient>
<linearGradient id="paint41_linear_3097_10444" x1="42.6447" y1="27.7474" x2="39.2914" y2="3.70082" gradientUnits="userSpaceOnUse">
<stop offset="0.1" stop-color="#FF8475"/>
<stop offset="0.37" stop-color="#E84E43"/>
<stop offset="0.6" stop-color="#D6261F"/>
<stop offset="0.79" stop-color="#CC0E08"/>
<stop offset="0.9" stop-color="#C80500"/>
</linearGradient>
<clipPath id="clip0_3097_10444">
<rect width="18" height="18" fill="white" transform="translate(30.25 6)"/>
</clipPath>
<clipPath id="clip1_3097_10444">
<rect x="10" y="6" width="18" height="18" rx="9" fill="white"/>
</clipPath>
</defs>
</svg>
