<svg width="24" height="25" viewBox="0 0 24 25" fill="none" xmlns="http://www.w3.org/2000/svg">
<path d="M5.34067 13.818C5.75533 13.818 6.15733 13.87 6.54467 13.96L13.4593 7.04533C13.37 6.658 13.318 6.256 13.318 5.84133C13.318 2.89133 15.7093 0.5 18.6587 0.5C19.26 0.5 20.06 1.11067 19.394 1.77667L17.396 3.77467C17.396 3.77467 16.73 5.10667 18.062 6.438C19.394 7.76933 20.726 7.10333 20.726 7.10333L22.7233 5.106C23.3893 4.44 24 5.23667 24 5.84133C24 8.79133 21.6087 11.1827 18.6587 11.1827C18.244 11.1827 17.842 11.1307 17.4547 11.0413L10.5407 17.9553C10.6307 18.3427 10.6827 18.7447 10.6827 19.1593C10.6827 22.1093 8.29067 24.5 5.34133 24.5C4.74067 24.5 3.94067 23.8893 4.60667 23.2233L6.60467 21.2253C6.60467 21.2253 7.27067 19.8933 5.93867 18.562C4.60667 17.2307 3.27533 17.896 3.27533 17.896L1.27733 19.894C0.610666 20.56 0 19.7633 0 19.1593C0 16.2093 2.39133 13.818 5.34067 13.818Z" fill="white"/>
</svg>
